<svg width="66" height="97" viewBox="0 0 66 97" fill="none" xmlns="http://www.w3.org/2000/svg">
<g filter="url(#filter0_d_592_1541)">
<path opacity="0.996" fill-rule="evenodd" clip-rule="evenodd" d="M27.3047 0C29.1015 0 30.8985 0 32.6953 0C43.2004 1.27593 51.1104 6.47125 56.4259 15.5859C58.3824 19.2739 59.5738 23.1801 60 27.3047C60 28.4765 60 29.6484 60 30.8203C57.2957 28.1552 54.6005 25.4989 51.9139 22.8516C50.8781 21.035 49.3546 20.41 47.3437 20.9766C46.7121 20.2275 46.009 19.5634 45.2343 18.9844C43.9935 17.1843 42.353 16.6961 40.3125 17.5195C39.3925 18.0873 38.787 18.888 38.4961 19.9218C38.4375 22.1481 38.4179 24.3746 38.4375 26.6016C32.8125 26.6016 27.1875 26.6016 21.5625 26.6016C21.5625 26.5625 21.5625 26.5234 21.5625 26.4844C23.9846 26.5039 26.4065 26.4844 28.8281 26.4257C26.2596 23.7984 23.6425 21.2399 20.9766 18.75C19.5525 16.9591 17.8337 16.627 15.8203 17.7539C15.081 18.3549 14.6122 19.1166 14.414 20.0391C14.3359 20.7422 14.2578 21.4453 14.1797 22.1484C13.2354 21.0195 12.0245 20.5703 10.5469 20.8008C9.16016 21.25 8.24216 22.168 7.79297 23.5547C7.73441 24.5695 7.71488 25.5852 7.73437 26.6016C6.83595 26.6016 5.93749 26.6016 5.03907 26.6016C5.03907 27.7344 5.03907 28.8671 5.03907 30C5.00067 31.1931 5.03974 32.3649 5.15624 33.5156C5.97656 34.4141 6.83595 35.2734 7.73437 36.0937C7.95286 37.3146 8.57787 38.2521 9.60939 38.9062C16.6016 45.9375 23.5937 52.9685 30.5859 60C29.4922 60 28.3984 60 27.3047 60C16.7995 58.7242 8.88939 53.5286 3.57422 44.414C1.61781 40.726 0.426398 36.8198 0 32.6953C0 30.8985 0 29.1015 0 27.3047C1.27588 16.7996 6.4712 8.88953 15.5859 3.57422C19.2739 1.61781 23.1801 0.426398 27.3047 0Z" fill="#00A359"/>
<path fill-rule="evenodd" clip-rule="evenodd" d="M20.9766 18.7499C21.1828 19.1237 21.3586 19.5142 21.5039 19.9218C21.5625 22.109 21.5821 24.2964 21.5625 26.4843C21.5625 26.5233 21.5625 26.5625 21.5625 26.6015C21.5625 27.7344 21.5625 28.8671 21.5625 29.9999C19.1406 29.9999 16.7188 29.9999 14.2969 29.9999C14.2969 27.4218 14.2969 24.8437 14.2969 22.2655C14.4129 21.5455 14.4519 20.8033 14.414 20.039C14.6122 19.1166 15.081 18.3549 15.8203 17.7538C17.8337 16.627 19.5525 16.9591 20.9766 18.7499Z" fill="#555A65"/>
<path fill-rule="evenodd" clip-rule="evenodd" d="M45.2349 18.9841C45.4218 19.3105 45.539 19.6621 45.5864 20.0388C45.5486 20.8031 45.5876 21.5453 45.7036 22.2654C45.7036 24.8435 45.7036 27.4216 45.7036 29.9998C43.2817 29.9998 40.8599 29.9998 38.438 29.9998C38.438 28.8669 38.438 27.7342 38.438 26.6013C38.4185 24.3744 38.438 22.1479 38.4966 19.9216C38.7876 18.8878 39.3929 18.0871 40.313 17.5193C42.3535 16.6958 43.9941 17.184 45.2349 18.9841Z" fill="#555A65"/>
<path fill-rule="evenodd" clip-rule="evenodd" d="M20.9766 18.75C23.6425 21.2399 26.2596 23.7984 28.8281 26.4258C26.4066 26.4844 23.9846 26.504 21.5625 26.4844C21.5821 24.2965 21.5625 22.1091 21.5039 19.9219C21.3586 19.5143 21.1828 19.1237 20.9766 18.75Z" fill="#067141"/>
<path fill-rule="evenodd" clip-rule="evenodd" d="M45.2344 18.9844C46.009 19.5634 46.7121 20.2275 47.3437 20.9766C46.6995 21.1914 46.1917 21.5819 45.8203 22.1484C45.7422 21.4453 45.6641 20.7422 45.5859 20.0391C45.5385 19.6623 45.4213 19.3107 45.2344 18.9844Z" fill="#067141"/>
<path fill-rule="evenodd" clip-rule="evenodd" d="M14.4141 20.0391C14.4519 20.8034 14.4129 21.5455 14.2969 22.2656C14.2187 22.2656 14.1797 22.2266 14.1797 22.1484C14.2579 21.4453 14.3359 20.7422 14.4141 20.0391Z" fill="#8D5F4C"/>
<path fill-rule="evenodd" clip-rule="evenodd" d="M45.5857 20.0391C45.6639 20.7422 45.742 21.4453 45.8201 22.1484C45.8201 22.2266 45.7811 22.2656 45.703 22.2656C45.5869 21.5455 45.5479 20.8034 45.5857 20.0391Z" fill="#855045"/>
<path fill-rule="evenodd" clip-rule="evenodd" d="M14.1802 22.1485C14.1802 22.2266 14.2192 22.2656 14.2973 22.2656C14.2973 24.8438 14.2973 27.4219 14.2973 30C12.1098 30 9.92234 30 7.73484 30C7.73484 28.8672 7.73484 27.7345 7.73484 26.6016C7.71535 25.5852 7.73489 24.5696 7.79345 23.5547C8.24268 22.168 9.16063 21.25 10.5473 20.8008C12.025 20.5703 13.2359 21.0195 14.1802 22.1485Z" fill="#636977"/>
<path fill-rule="evenodd" clip-rule="evenodd" d="M51.9139 22.8514C52.0776 23.1387 52.1751 23.4512 52.2072 23.789C52.2658 24.7256 52.285 25.6631 52.2658 26.6014C52.2658 27.7343 52.2658 28.867 52.2658 29.9999C50.0779 29.9999 47.8906 29.9999 45.7031 29.9999C45.7031 27.4218 45.7031 24.8436 45.7031 22.2655C45.7813 22.2655 45.8203 22.2265 45.8203 22.1483C46.1917 21.5818 46.6995 21.1913 47.3437 20.9765C49.3546 20.4099 50.8781 21.0349 51.9139 22.8514Z" fill="#636977"/>
<path fill-rule="evenodd" clip-rule="evenodd" d="M51.9139 22.8516C54.6005 25.4989 57.2957 28.1552 60 30.8203C60 31.4452 60 32.0703 60 32.6953C58.7241 43.2004 53.5286 51.1104 44.414 56.4259C40.726 58.3824 36.8198 59.5737 32.6953 60C31.9921 60 31.289 60 30.5859 60C23.5937 52.9685 16.6016 45.9375 9.60938 38.9062C10.7883 39.388 11.9601 39.3685 13.125 38.8476C13.5351 38.5741 13.8867 38.242 14.1796 37.8516C14.2325 38.7861 14.3691 39.7236 14.5898 40.664C15.8314 42.8747 17.6088 43.4412 19.9218 42.3633C20.7227 41.7958 21.25 41.0341 21.5039 40.0781C21.5625 37.8909 21.5821 35.7035 21.5625 33.5156C27.1875 33.5156 32.8125 33.5156 38.4375 33.5156C38.4179 35.6643 38.4375 37.8129 38.496 39.9609C39.2122 42.3412 40.7942 43.2591 43.2421 42.7148C44.2284 42.3146 44.951 41.6311 45.4101 40.664C45.6308 39.7236 45.7674 38.7861 45.8203 37.8516C46.7099 39.0015 47.8818 39.4507 49.3358 39.1992C50.6755 38.8727 51.5933 38.072 52.0896 36.7969C52.2485 35.7099 52.307 34.6161 52.2658 33.5156C53.1638 33.5156 54.0624 33.5156 54.9609 33.5156C54.9609 32.3437 54.9609 31.1718 54.9609 30C54.9609 28.8671 54.9609 27.7344 54.9609 26.6016C54.0624 26.6016 53.1638 26.6016 52.2658 26.6016C52.285 25.6632 52.2658 24.7257 52.2072 23.789C52.175 23.4513 52.0776 23.1387 51.9139 22.8516Z" fill="#067141"/>
<path fill-rule="evenodd" clip-rule="evenodd" d="M7.73436 26.6016C7.73436 27.7344 7.73436 28.8671 7.73436 30C6.83594 30 5.93748 30 5.03906 30C5.03906 28.8671 5.03906 27.7344 5.03906 26.6016C5.93748 26.6016 6.83594 26.6016 7.73436 26.6016Z" fill="#FFFEFE"/>
<path fill-rule="evenodd" clip-rule="evenodd" d="M21.5625 26.6016C27.1875 26.6016 32.8125 26.6016 38.4375 26.6016C38.4375 27.7344 38.4375 28.8671 38.4375 30C32.8125 30 27.1875 30 21.5625 30C21.5625 28.8671 21.5625 27.7344 21.5625 26.6016Z" fill="#FEFFFE"/>
<path fill-rule="evenodd" clip-rule="evenodd" d="M52.2656 26.6016C53.1637 26.6016 54.0623 26.6016 54.9608 26.6016C54.9608 27.7344 54.9608 28.8671 54.9608 30C54.0623 30 53.1637 30 52.2656 30C52.2656 28.8671 52.2656 27.7344 52.2656 26.6016Z" fill="#FEFEFD"/>
<path fill-rule="evenodd" clip-rule="evenodd" d="M5.03918 30C5.93759 30 6.83601 30 7.73447 30C7.73447 31.1719 7.73447 32.3437 7.73447 33.5156C6.87508 33.5156 6.01574 33.5156 5.15635 33.5156C5.03985 32.365 5.00078 31.1931 5.03918 30Z" fill="#E9EAF1"/>
<path fill-rule="evenodd" clip-rule="evenodd" d="M7.73438 30C9.92188 30 12.1093 30 14.2969 30C14.3346 32.6259 14.2956 35.2432 14.1797 37.8516C13.8867 38.242 13.5352 38.5741 13.125 38.8476C11.9601 39.3686 10.7883 39.388 9.6094 38.9063C8.57788 38.2521 7.95287 37.3146 7.73438 36.0937C7.73438 35.2344 7.73438 34.375 7.73438 33.5156C7.73438 32.3437 7.73438 31.1719 7.73438 30Z" fill="#414952"/>
<path fill-rule="evenodd" clip-rule="evenodd" d="M14.2969 30C16.7188 30 19.1406 30 21.5625 30C21.5625 31.1719 21.5625 32.3437 21.5625 33.5156C21.5821 35.7036 21.5625 37.891 21.5039 40.0781C21.2501 41.0341 20.7228 41.7959 19.9219 42.3633C17.6089 43.4412 15.8315 42.8747 14.5898 40.6641C14.3692 39.7236 14.2326 38.7862 14.1797 37.8516C14.2956 35.2432 14.3346 32.6259 14.2969 30Z" fill="#333940"/>
<path fill-rule="evenodd" clip-rule="evenodd" d="M21.5625 30C27.1875 30 32.8125 30 38.4375 30C38.4375 31.1719 38.4375 32.3437 38.4375 33.5156C32.8125 33.5156 27.1875 33.5156 21.5625 33.5156C21.5625 32.3437 21.5625 31.1719 21.5625 30Z" fill="#E9EAF1"/>
<path fill-rule="evenodd" clip-rule="evenodd" d="M38.438 30C40.8599 30 43.2817 30 45.7036 30C45.6659 32.6259 45.7049 35.2432 45.8208 37.8516C45.768 38.7862 45.6313 39.7236 45.4107 40.6641C44.9515 41.6311 44.2289 42.3146 43.2427 42.7149C40.7947 43.2592 39.2127 42.3413 38.4966 39.961C38.438 37.8129 38.4185 35.6644 38.438 33.5156C38.438 32.3437 38.438 31.1719 38.438 30Z" fill="#333940"/>
<path fill-rule="evenodd" clip-rule="evenodd" d="M45.7029 30C47.8904 30 50.0777 30 52.2656 30C52.2656 31.1719 52.2656 32.3437 52.2656 33.5156C52.3068 34.6162 52.2483 35.71 52.0894 36.7969C51.5931 38.072 50.6753 38.8727 49.3356 39.1992C47.8816 39.4507 46.7097 39.0015 45.8201 37.8516C45.7041 35.2432 45.6651 32.6259 45.7029 30Z" fill="#414952"/>
<path fill-rule="evenodd" clip-rule="evenodd" d="M52.2656 30C53.1637 30 54.0623 30 54.9608 30C54.9608 31.1719 54.9608 32.3437 54.9608 33.5156C54.0623 33.5156 53.1637 33.5156 52.2656 33.5156C52.2656 32.3437 52.2656 31.1719 52.2656 30Z" fill="#E9EAF1"/>
<path fill-rule="evenodd" clip-rule="evenodd" d="M5.15625 33.5156C6.01564 33.5156 6.87503 33.5156 7.73438 33.5156C7.73438 34.375 7.73438 35.2345 7.73438 36.0937C6.83596 35.2735 5.97657 34.4141 5.15625 33.5156Z" fill="#067141"/>
</g>
<path d="M4.58984 78.8613C5.09766 78.8613 5.56966 78.9753 6.00586 79.2031C6.44206 79.431 6.82617 79.7728 7.1582 80.2285C7.49023 80.6777 7.75065 81.2376 7.93945 81.9082C8.12826 82.5723 8.22917 83.3438 8.24219 84.2227H9.42383V86H8.08594C7.94271 86.7487 7.65625 87.4714 7.22656 88.168C6.80339 88.8711 6.17188 89.4896 5.33203 90.0234C4.49219 90.5638 3.37891 90.9674 1.99219 91.2344L1.41602 89.6816C2.39909 89.4928 3.24219 89.2324 3.94531 88.9004C4.65495 88.5684 5.22461 88.1615 5.6543 87.6797C6.09049 87.1979 6.38672 86.638 6.54297 86H5C3.76302 86 2.83529 85.7526 2.2168 85.2578C1.60482 84.7565 1.29883 84.0046 1.29883 83.002C1.29883 82.5202 1.37044 82.0384 1.51367 81.5566C1.66341 81.0684 1.87826 80.6224 2.1582 80.2188C2.44466 79.8086 2.78971 79.4798 3.19336 79.2324C3.60352 78.985 4.06901 78.8613 4.58984 78.8613ZM4.90234 84.2227H6.63086C6.5918 83.5977 6.52018 83.0573 6.41602 82.6016C6.31185 82.1458 6.17513 81.7715 6.00586 81.4785C5.83659 81.1855 5.63151 80.9707 5.39062 80.834C5.14974 80.6908 4.87305 80.6191 4.56055 80.6191C4.14388 80.6191 3.8151 80.7526 3.57422 81.0195C3.33984 81.2865 3.17383 81.6022 3.07617 81.9668C2.98503 82.3249 2.93945 82.6504 2.93945 82.9434C2.93945 83.3991 3.09245 83.7279 3.39844 83.9297C3.71094 84.125 4.21224 84.2227 4.90234 84.2227ZM9.04297 84.2227H9.73633V86H9.04297V84.2227ZM13.3398 74.5352L14.707 75.8926L13.3398 77.2695L11.9824 75.8926L13.3398 74.5352ZM10.0977 74.5352L11.4648 75.8926L10.0977 77.2695L8.74023 75.8926L10.0977 74.5352ZM11.0645 86H9.47266V84.2227H11.0449C11.696 84.2227 12.1354 84.0339 12.3633 83.6562C12.5977 83.2786 12.7148 82.8001 12.7148 82.2207C12.7148 81.7975 12.6758 81.3451 12.5977 80.8633C12.5195 80.3815 12.4349 79.8965 12.3438 79.4082L14.043 78.9785C14.1536 79.4993 14.2415 80.0104 14.3066 80.5117C14.3717 81.013 14.4043 81.4915 14.4043 81.9473C14.4043 82.7285 14.2969 83.4251 14.082 84.0371C13.8672 84.6491 13.5156 85.1309 13.0273 85.4824C12.5391 85.8275 11.8848 86 11.0645 86ZM16.8652 72.5527H18.5156V81.8887C18.5156 82.8066 18.6849 83.4251 19.0234 83.7441C19.362 84.0632 19.873 84.2227 20.5566 84.2227H20.8008V86H20.5566C19.3132 86 18.3854 85.6712 17.7734 85.0137C17.168 84.3496 16.8652 83.3047 16.8652 81.8789V72.5527ZM20.4004 84.2227H20.8691V86H20.4004V84.2227ZM22.4121 87.4941L23.8281 88.9102L22.4121 90.3262L20.9961 88.9102L22.4121 87.4941ZM23.7598 80.2285L25.3906 80.0332L25.5469 82.3184C25.5729 82.735 25.6641 83.0866 25.8203 83.373C25.9766 83.653 26.1947 83.8646 26.4746 84.0078C26.7611 84.151 27.1126 84.2227 27.5293 84.2227H27.7344V86H27.5098C27.028 86 26.6113 85.9414 26.2598 85.8242C25.9082 85.707 25.6087 85.5378 25.3613 85.3164C25.1139 85.0951 24.9023 84.8249 24.7266 84.5059C24.375 85.0202 23.9128 85.3978 23.3398 85.6387C22.7669 85.8796 22.168 86 21.543 86H20.6055V84.2227H21.543C22.3698 84.2227 22.959 84.0371 23.3105 83.666C23.6686 83.2949 23.8477 82.7253 23.8477 81.957C23.8477 81.6445 23.8379 81.3483 23.8184 81.0684C23.8053 80.7884 23.7858 80.5085 23.7598 80.2285ZM27.7734 86H27.3438V84.2227H27.7246C28.1608 84.2227 28.5286 84.099 28.8281 83.8516C29.1276 83.5977 29.3945 83.2721 29.6289 82.875C29.8633 82.4779 30.0944 82.0579 30.3223 81.6152C30.5566 81.166 30.8171 80.7428 31.1035 80.3457C31.39 79.9486 31.735 79.6263 32.1387 79.3789C32.5488 79.125 33.0534 78.998 33.6523 78.998C34.3359 78.998 34.9154 79.1413 35.3906 79.4277C35.8659 79.7142 36.25 80.1016 36.543 80.5898C36.8359 81.0781 37.0475 81.6315 37.1777 82.25C37.2689 82.6732 37.3991 83.0345 37.5684 83.334C37.7376 83.627 37.9395 83.8483 38.1738 83.998C38.4082 84.1478 38.6654 84.2227 38.9453 84.2227H39.1992V86H38.9355C38.5189 86 38.112 85.9154 37.7148 85.7461C37.3177 85.5703 36.9954 85.2936 36.748 84.916C36.4746 85.3132 36.1361 85.6322 35.7324 85.873C35.3288 86.1074 34.8047 86.2246 34.1602 86.2246C33.724 86.2246 33.3138 86.1595 32.9297 86.0293C32.5456 85.9056 32.168 85.7168 31.7969 85.4629C31.4258 85.209 31.0417 84.8932 30.6445 84.5156C30.3646 84.8346 30.0944 85.1048 29.834 85.3262C29.5736 85.5475 29.2839 85.7168 28.9648 85.834C28.6458 85.9447 28.2487 86 27.7734 86ZM33.6914 80.7266C33.3659 80.7266 33.0697 80.8372 32.8027 81.0586C32.5358 81.2734 32.2949 81.5534 32.0801 81.8984C31.8652 82.2435 31.6732 82.6016 31.5039 82.9727C31.7188 83.194 31.9336 83.3926 32.1484 83.5684C32.3633 83.7441 32.5716 83.8939 32.7734 84.0176C33.0404 84.1803 33.2878 84.3008 33.5156 84.3789C33.75 84.457 33.9583 84.4961 34.1406 84.4961C34.6289 84.4961 34.9902 84.3724 35.2246 84.125C35.4655 83.8776 35.5859 83.5163 35.5859 83.041C35.5859 82.3639 35.4167 81.8105 35.0781 81.3809C34.7461 80.9447 34.2839 80.7266 33.6914 80.7266ZM38.7891 84.2227H39.5703V86H38.7891V84.2227ZM42.3145 87.5527L43.6816 88.9102L42.3145 90.2871L40.957 88.9102L42.3145 87.5527ZM39.0723 87.5527L40.4395 88.9102L39.0723 90.2871L37.7148 88.9102L39.0723 87.5527ZM42.4805 80.2285L44.1113 80.0332L44.2676 82.3184C44.2936 82.735 44.3848 83.0866 44.541 83.373C44.6973 83.653 44.9154 83.8646 45.1953 84.0078C45.4818 84.151 45.8333 84.2227 46.25 84.2227H46.4551V86H46.2305C45.7487 86 45.332 85.9414 44.9805 85.8242C44.6289 85.707 44.3294 85.5378 44.082 85.3164C43.8346 85.0951 43.623 84.8249 43.4473 84.5059C43.0957 85.0202 42.6335 85.3978 42.0605 85.6387C41.4876 85.8796 40.8887 86 40.2637 86H39.3262V84.2227H40.2637C41.0905 84.2227 41.6797 84.0371 42.0312 83.666C42.3893 83.2949 42.5684 82.7253 42.5684 81.957C42.5684 81.6445 42.5586 81.3483 42.5391 81.0684C42.526 80.7884 42.5065 80.5085 42.4805 80.2285ZM52.7734 87.4941L54.1895 88.9102L52.7734 90.3262L51.3574 88.9102L52.7734 87.4941ZM46.0742 84.2227H47.7344C48.4961 84.2227 49.196 84.1543 49.834 84.0176C50.472 83.8809 51.0938 83.6921 51.6992 83.4512C52.3112 83.2103 52.9492 82.9271 53.6133 82.6016C54.2839 82.2695 55.0326 81.9147 55.8594 81.5371C55.3971 81.3678 54.9186 81.1855 54.4238 80.9902C53.929 80.7884 53.457 80.5996 53.0078 80.4238C52.5651 80.248 52.1777 80.1048 51.8457 79.9941C51.5137 79.877 51.2793 79.8184 51.1426 79.8184C50.7454 79.8184 50.3939 79.9355 50.0879 80.1699C49.7884 80.3978 49.5117 80.6745 49.2578 81L48.9941 81.332L47.5 80.5996L47.6465 80.3652C48.0762 79.6686 48.5742 79.112 49.1406 78.6953C49.7135 78.2721 50.3841 78.0605 51.1523 78.0605C51.4779 78.0605 51.8652 78.1419 52.3145 78.3047C52.7637 78.4674 53.2552 78.6725 53.7891 78.9199C54.3229 79.1608 54.8763 79.4082 55.4492 79.6621C56.0221 79.9095 56.5951 80.1211 57.168 80.2969C57.7409 80.4661 58.2878 80.5605 58.8086 80.5801V82.2695C58.5352 82.3021 58.2096 82.3802 57.832 82.5039C57.4544 82.6211 57.0085 82.7969 56.4941 83.0312C55.9798 83.2656 55.3776 83.5651 54.6875 83.9297C53.8542 84.3724 53.0794 84.75 52.3633 85.0625C51.6536 85.3685 50.9277 85.6029 50.1855 85.7656C49.4499 85.9219 48.623 86 47.7051 86H46.0742V84.2227Z" fill="#2D2E2E"/>
<defs>
<filter id="filter0_d_592_1541" x="0" y="0" width="65.2" height="65.2" filterUnits="userSpaceOnUse" color-interpolation-filters="sRGB">
<feFlood flood-opacity="0" result="BackgroundImageFix"/>
<feColorMatrix in="SourceAlpha" type="matrix" values="0 0 0 0 0 0 0 0 0 0 0 0 0 0 0 0 0 0 127 0" result="hardAlpha"/>
<feOffset dx="3" dy="3"/>
<feGaussianBlur stdDeviation="1.1"/>
<feComposite in2="hardAlpha" operator="out"/>
<feColorMatrix type="matrix" values="0 0 0 0 0 0 0 0 0 0 0 0 0 0 0 0 0 0 0.25 0"/>
<feBlend mode="normal" in2="BackgroundImageFix" result="effect1_dropShadow_592_1541"/>
<feBlend mode="normal" in="SourceGraphic" in2="effect1_dropShadow_592_1541" result="shape"/>
</filter>
</defs>
</svg>
