<svg width="886" height="597" viewBox="0 0 886 597" fill="none" xmlns="http://www.w3.org/2000/svg">
<path d="M0 92.7939C16.6679 102.146 30.0995 117.652 38.8535 137.657C53.0554 170.113 76.7467 190.518 109.268 198.304C133.912 204.204 154.715 200.317 154.929 200.276L157.3 212.39C156.359 212.573 134.043 216.812 106.878 210.424C90.8226 206.648 76.3933 199.931 63.9912 190.458C48.5184 178.64 36.2493 162.538 27.5244 142.599C20.8479 127.341 11.3939 115.392 0 107.267V99.127C11.9407 105.721 22.3599 117.289 29.7031 135.396L30.1064 136.378C47.2554 177.774 77.3358 194.998 103.197 201.824C116.213 205.26 128.155 206.063 136.841 206.008C141.185 205.98 144.721 205.738 147.175 205.502C148.402 205.384 149.359 205.267 150.013 205.18C150.339 205.136 150.59 205.1 150.761 205.074C150.846 205.061 150.911 205.051 150.956 205.044C150.978 205.04 150.996 205.037 151.008 205.035C151.014 205.034 151.018 205.034 151.021 205.033C151.023 205.033 151.025 205.032 151.026 205.032C151.027 205.029 151.019 204.975 150.831 203.856L151.028 205.032C151.678 204.923 152.116 204.307 152.007 203.658C151.904 203.049 151.357 202.626 150.754 202.666L150.633 202.68L150.632 202.681C150.63 202.681 150.626 202.681 150.622 202.682C150.613 202.683 150.599 202.685 150.58 202.688C150.542 202.695 150.483 202.704 150.404 202.716C150.247 202.74 150.009 202.775 149.696 202.816C149.07 202.9 148.142 203.013 146.946 203.128C144.554 203.358 141.09 203.596 136.825 203.623C128.292 203.677 116.568 202.887 103.806 199.519C78.5138 192.843 49.1173 176.042 32.3076 135.462L31.9131 134.499C24.1635 115.391 12.9713 103.199 0 96.4189V92.7939Z" fill="#2E6B32"/>
<path d="M648.889 388.296C637.163 388.296 629.252 387.747 628.198 387.67L629.3 372.684C630.092 372.743 704.174 377.83 743.7 355.355C738.844 351.798 734.337 347.788 730.241 343.38C716.438 328.472 710.592 312.368 714.6 300.302C718.106 289.751 725.646 283.688 735.288 283.668H735.332C750.203 283.668 767.396 298.816 773.677 317.463C778.043 330.428 776.497 342.759 769.546 352.786C780.486 357.245 792.869 359.155 805.487 356.048C834.082 349.01 856.58 317.871 870.549 265.998L885.083 269.899C876.94 300.139 865.874 324.143 852.193 341.248C839.782 356.764 825.28 366.652 809.09 370.638C794.838 374.146 779.419 372.874 764.501 366.955C762.317 366.089 760.153 365.126 758.007 364.067C728.201 385.066 677.329 388.296 648.889 388.296ZM735.335 298.694H735.319C734.023 298.696 730.988 298.703 728.885 305.033C727.09 310.435 730.231 321.234 741.292 333.181C745.712 337.914 750.682 342.103 756.096 345.66C762.488 337.697 761.623 328.818 759.412 322.252C754.941 308.976 742.804 298.694 735.335 298.694V298.694Z" fill="#2E6B32"/>
<path d="M765.164 349.047C786.051 319.243 736.355 273.099 725.67 305.258C714.017 340.331 830.338 435.113 874.206 272.216" stroke="white" stroke-width="1.98736" stroke-linecap="round" stroke-linejoin="round"/>
<path d="M644.223 446.834C644.223 448.265 643.941 449.682 643.393 451.004C642.844 452.326 642.04 453.527 641.027 454.538C640.013 455.55 638.81 456.353 637.486 456.9C636.162 457.448 634.743 457.73 633.31 457.73H189.218C186.323 457.73 183.547 456.582 181.501 454.538C179.454 452.495 178.304 449.724 178.304 446.834V446.834C178.304 445.403 178.586 443.986 179.135 442.664C179.683 441.342 180.487 440.141 181.501 439.129C182.514 438.117 183.717 437.315 185.041 436.767C186.365 436.219 187.784 435.937 189.218 435.938H633.31C634.743 435.937 636.162 436.219 637.486 436.767C638.811 437.315 640.014 438.117 641.027 439.129C642.04 440.141 642.844 441.342 643.393 442.664C643.941 443.986 644.223 445.403 644.223 446.834Z" fill="#4B8C4F"/>
<path d="M380.504 163.604L401.26 158.471C401.26 158.471 406.019 161.886 401.939 166.956C401.702 167.25 380.504 163.604 380.504 163.604Z" fill="#4EA454"/>
<path d="M380.504 163.604L401.26 158.471C401.26 158.471 406.019 161.886 401.939 166.956C401.702 167.25 380.504 163.604 380.504 163.604Z" stroke="white" stroke-width="1.19242" stroke-miterlimit="10"/>
<path d="M377.921 152.067L391.637 135.688C391.637 135.688 397.498 135.638 397.203 142.136C397.185 142.513 377.921 152.067 377.921 152.067Z" fill="#4EA454"/>
<path d="M377.921 152.067L391.637 135.688C391.637 135.688 397.498 135.638 397.203 142.136C397.185 142.513 377.921 152.067 377.921 152.067Z" stroke="white" stroke-width="1.19242" stroke-miterlimit="10"/>
<path d="M369.513 153.079L363.247 132.667C363.247 132.667 366.401 127.737 371.695 131.528C372.002 131.748 369.513 153.079 369.513 153.079Z" fill="#4EA454"/>
<path d="M369.513 153.079L363.247 132.667C363.247 132.667 366.401 127.737 371.695 131.528C372.002 131.748 369.513 153.079 369.513 153.079Z" stroke="white" stroke-width="1.19242" stroke-miterlimit="10"/>
<path d="M408.729 426.46L389.974 427.926C389.974 427.926 386.337 424.278 390.611 420.465C390.858 420.244 408.729 426.46 408.729 426.46Z" fill="#4EA454"/>
<path d="M408.729 426.46L389.974 427.926C389.974 427.926 386.337 424.278 390.611 420.465C390.858 420.244 408.729 426.46 408.729 426.46Z" stroke="white" stroke-width="1.19242" stroke-miterlimit="10"/>
<path d="M409.305 436.845L395.035 449.085C395.035 449.085 389.942 448.285 391.135 442.687C391.205 442.363 409.305 436.845 409.305 436.845Z" fill="#4EA454"/>
<path d="M409.305 436.845L395.035 449.085C395.035 449.085 389.942 448.285 391.135 442.687C391.205 442.363 409.305 436.845 409.305 436.845Z" stroke="white" stroke-width="1.19242" stroke-miterlimit="10"/>
<path d="M416.748 437.176L419.239 455.793C419.239 455.793 415.789 459.619 411.742 455.566C411.507 455.331 416.748 437.176 416.748 437.176Z" fill="#4EA454"/>
<path d="M416.748 437.176L419.239 455.793C419.239 455.793 415.789 459.619 411.742 455.566C411.507 455.331 416.748 437.176 416.748 437.176Z" stroke="white" stroke-width="1.19242" stroke-miterlimit="10"/>
<path d="M324.447 339.97H321.629L320.457 347.134H316.974L318.147 339.97H314.261V336.772H318.672L319.442 332.159H315.574V328.962H319.967L321.174 321.692H324.64L323.45 328.962H326.267L327.475 321.692H330.958L329.75 328.962H333.793V332.159H329.225L328.455 336.772H332.463V339.97H327.93L326.757 347.134H323.274L324.447 339.97ZM322.154 336.772H324.972L325.742 332.159H322.924L322.154 336.772Z" fill="#4B8C4F"/>
<path d="M265.891 441.524C264.416 441.507 263.007 440.915 261.964 439.874C260.922 438.833 260.328 437.426 260.311 435.954V414.909H195.217C193.742 414.892 192.333 414.299 191.291 413.258C190.248 412.218 189.655 410.811 189.638 409.339V387.468C189.638 383.893 190.533 380.936 192.324 378.597L254.111 300.814C255.351 299.302 256.488 298.304 257.521 297.822C258.554 297.342 259.966 297.101 261.758 297.1H292.962C294.436 297.117 295.845 297.709 296.888 298.75C297.93 299.791 298.523 301.198 298.541 302.67V381.897H316.313C317.787 381.915 319.196 382.507 320.239 383.548C321.281 384.589 321.875 385.996 321.892 387.468V409.339C321.875 410.811 321.281 412.217 320.239 413.258C319.196 414.299 317.787 414.892 316.313 414.909H298.541V435.954C298.524 437.426 297.93 438.832 296.888 439.874C295.845 440.915 294.436 441.507 292.962 441.524H265.891ZM261.344 381.897V343.935L231.174 381.897H261.344Z" fill="#4B8C4F"/>
<path d="M423.513 232.177C433.845 232.177 442.731 233.69 450.17 236.716C457.61 239.743 463.775 243.801 468.666 248.889C473.558 253.983 477.293 260.07 479.618 266.736C482.042 273.616 483.468 280.806 483.854 288.09C484.129 294.005 484.267 300.195 484.268 306.659C484.268 313.126 484.13 319.178 483.854 324.815C483.468 332.098 482.042 339.289 479.618 346.169C477.294 352.835 473.558 358.922 468.666 364.016C463.774 369.107 457.609 373.164 450.17 376.189C442.731 379.213 433.846 380.726 423.513 380.728C413.181 380.728 404.295 379.215 396.855 376.189C389.416 373.165 383.252 369.107 378.361 364.016C373.466 358.924 369.73 352.836 367.408 346.169C364.983 339.289 363.556 332.098 363.172 324.815C362.894 319.177 362.757 313.125 362.759 306.659C362.759 300.195 362.897 294.005 363.172 288.09C363.556 280.806 364.983 273.615 367.408 266.736C369.731 260.069 373.466 253.982 378.361 248.889C383.249 243.802 389.414 239.744 396.855 236.716C404.295 233.692 413.181 232.179 423.513 232.177ZM445.625 323.783C446.174 312.094 446.174 300.54 445.625 289.122C445.386 285.919 444.867 282.743 444.075 279.631C443.393 276.902 442.163 274.339 440.458 272.1C438.708 269.894 436.435 268.157 433.845 267.045C431.088 265.807 427.644 265.188 423.513 265.188C419.38 265.188 415.936 265.807 413.181 267.045C410.59 268.156 408.318 269.893 406.568 272.1C404.857 274.349 403.594 276.906 402.848 279.631C401.989 282.726 401.503 285.912 401.402 289.122C400.711 300.665 400.711 312.24 401.402 323.783C401.504 326.986 401.954 330.168 402.745 333.274C403.43 336.021 404.699 338.589 406.464 340.805C408.268 343 410.57 344.734 413.181 345.86C415.935 347.098 419.379 347.716 423.513 347.716C427.646 347.716 431.09 347.098 433.845 345.86C436.455 344.732 438.757 342.999 440.561 340.805C442.325 338.588 443.593 336.02 444.281 333.274C445.069 330.168 445.519 326.986 445.625 323.783V323.783Z" fill="#4B8C4F"/>
<path d="M584.182 281.233C582.708 281.215 581.299 280.623 580.256 279.582C579.214 278.541 578.62 277.134 578.603 275.662V254.617H513.509C512.034 254.6 510.625 254.008 509.582 252.967C508.54 251.926 507.947 250.519 507.93 249.047V227.176C507.93 223.601 508.825 220.644 510.616 218.305L572.403 140.522C573.643 139.01 574.78 138.013 575.813 137.53C576.846 137.05 578.258 136.809 580.049 136.808H611.254C612.728 136.825 614.137 137.418 615.18 138.459C616.222 139.5 616.816 140.907 616.833 142.379V221.606H634.604C636.079 221.623 637.488 222.216 638.53 223.257C639.573 224.297 640.166 225.704 640.184 227.176V249.047C640.167 250.519 639.573 251.926 638.531 252.967C637.488 254.008 636.079 254.6 634.604 254.617H616.833V275.662C616.815 277.134 616.222 278.541 615.18 279.582C614.137 280.623 612.728 281.215 611.254 281.233H584.182ZM579.636 221.606V183.643L549.466 221.606H579.636Z" fill="#4B8C4F"/>
<path d="M262.244 426.033C260.769 426.016 259.36 425.423 258.318 424.383C257.275 423.342 256.682 421.935 256.664 420.463V399.417H191.57C190.096 399.401 188.687 398.808 187.644 397.767C186.601 396.726 186.008 395.319 185.991 393.847V371.977C185.991 368.402 186.887 365.445 188.677 363.105L250.465 285.323C251.705 283.811 252.841 282.813 253.875 282.331C254.908 281.851 256.32 281.61 258.111 281.608H289.315C290.789 281.625 292.198 282.218 293.241 283.259C294.284 284.3 294.877 285.707 294.894 287.179V366.406H312.666C314.14 366.423 315.55 367.016 316.592 368.057C317.635 369.098 318.228 370.505 318.245 371.977V393.847C318.228 395.319 317.635 396.726 316.592 397.767C315.55 398.808 314.14 399.4 312.666 399.417H294.894V420.463C294.877 421.935 294.284 423.342 293.241 424.383C292.198 425.424 290.789 426.016 289.315 426.033H262.244ZM257.697 366.406V328.443L227.527 366.406H257.697Z" stroke="white" stroke-width="1.19242" stroke-linecap="round" stroke-linejoin="round"/>
<path d="M405.239 239.69C415.571 239.69 424.456 241.203 431.896 244.229C439.335 247.256 445.5 251.314 450.391 256.402C455.283 261.497 459.019 267.584 461.344 274.249C463.768 281.129 465.194 288.32 465.579 295.603C465.854 301.518 465.992 307.708 465.993 314.172C465.993 320.639 465.855 326.691 465.579 332.328C465.194 339.611 463.768 346.802 461.344 353.682C459.02 360.348 455.284 366.435 450.391 371.529C445.499 376.62 439.334 380.677 431.896 383.702C424.457 386.726 415.571 388.239 405.239 388.241C394.906 388.241 386.02 386.728 378.581 383.702C371.141 380.678 364.977 376.621 360.086 371.529C355.191 366.437 351.455 360.349 349.134 353.682C346.708 346.802 345.282 339.612 344.898 332.328C344.62 326.689 344.482 320.637 344.484 314.172C344.484 307.708 344.622 301.518 344.898 295.603C345.281 288.32 346.708 281.128 349.134 274.249C351.456 267.582 355.192 261.495 360.086 256.402C364.974 251.315 371.139 247.257 378.581 244.229C386.021 241.205 394.906 239.692 405.239 239.69ZM427.35 331.296C427.899 319.607 427.899 308.053 427.35 296.635C427.111 293.432 426.593 290.256 425.8 287.144C425.118 284.415 423.888 281.853 422.184 279.613C420.433 277.407 418.161 275.67 415.571 274.559C412.813 273.32 409.369 272.701 405.239 272.701C401.105 272.701 397.661 273.32 394.906 274.559C392.316 275.669 390.043 277.406 388.293 279.613C386.582 281.863 385.319 284.419 384.574 287.144C383.715 290.239 383.229 293.425 383.127 296.635C382.436 308.178 382.436 319.753 383.127 331.296C383.229 334.499 383.68 337.681 384.47 340.787C385.156 343.534 386.424 346.103 388.19 348.318C389.993 350.513 392.296 352.246 394.906 353.373C397.66 354.611 401.105 355.23 405.239 355.23C409.371 355.23 412.815 354.611 415.571 353.373C418.18 352.245 420.483 350.512 422.287 348.318C424.05 346.101 425.319 343.533 426.007 340.787C426.794 337.681 427.245 334.499 427.35 331.296V331.296Z" stroke="white" stroke-width="1.19242" stroke-linecap="round" stroke-linejoin="round"/>
<path d="M567.167 288.746C565.692 288.729 564.283 288.136 563.24 287.095C562.198 286.054 561.604 284.647 561.587 283.175V262.13H496.493C495.018 262.113 493.609 261.521 492.567 260.48C491.524 259.439 490.931 258.032 490.914 256.56V234.69C490.914 231.115 491.809 228.157 493.6 225.818L555.388 148.035C556.627 146.523 557.764 145.526 558.797 145.043C559.83 144.563 561.242 144.323 563.034 144.321H594.237C595.712 144.339 597.121 144.931 598.164 145.972C599.206 147.013 599.8 148.42 599.817 149.892V229.119H617.589C619.063 229.136 620.472 229.729 621.515 230.77C622.557 231.811 623.151 233.218 623.168 234.69V256.56C623.151 258.032 622.557 259.439 621.515 260.48C620.472 261.521 619.063 262.113 617.589 262.13H599.817V283.175C599.8 284.647 599.206 286.054 598.164 287.095C597.121 288.136 595.712 288.729 594.237 288.746H567.167ZM562.62 229.119V191.156L532.45 229.119H562.62Z" stroke="white" stroke-width="1.19242" stroke-linecap="round" stroke-linejoin="round"/>
<path d="M190.283 435.042H625.651" stroke="white" stroke-width="1.19242" stroke-linecap="round" stroke-linejoin="round"/>
<path d="M270.703 421.827L266.941 433.231L258.412 432.998L261.23 423.504" fill="white"/>
<path d="M270.703 421.827L266.941 433.231L258.412 432.998L261.23 423.504" stroke="white" stroke-width="1.19242" stroke-linecap="round" stroke-linejoin="round"/>
<path d="M302.884 249.396L297.702 249.827C298.961 260.397 294.465 268.204 288.569 273.784L294.283 282.764C304.54 269.226 302.884 249.396 302.884 249.396Z" fill="white" stroke="white" stroke-width="1.19242" stroke-linecap="round" stroke-linejoin="round"/>
<path d="M267.265 285.638L272.056 294.826C282.683 293.647 289.681 288.838 294.283 282.764L288.569 273.784C279.553 282.316 267.265 285.638 267.265 285.638Z" fill="#4B8C4F" stroke="white" stroke-width="1.19242" stroke-linecap="round" stroke-linejoin="round"/>
<path d="M302.81 251.711L298.006 251.628C297.804 251.504 297.618 251.355 297.454 251.185C297.202 250.916 297.727 249.956 297.727 249.956C297.727 249.956 295.949 247.178 295.544 244.805C295.138 242.433 293.256 240.101 294.392 240.07C295.527 240.039 295.582 242.081 296.145 241.838C296.425 241.718 296.518 239.849 296.198 238.027C295.88 236.207 295.148 234.433 295.947 234.581C297.546 234.878 298.413 240.716 298.413 240.716C298.413 240.716 298.53 238.834 298.522 236.865C298.514 234.753 298.414 232.544 299.416 232.558C300.281 232.57 300.265 234.512 300.498 236.446C300.665 237.719 300.904 238.981 301.215 240.226C301.215 240.226 301.641 233.841 302.342 234.503C303.042 235.164 302.536 240.84 302.942 240.838C303.35 240.835 303.851 236.863 304.429 237.188C305.006 237.513 304.396 244.338 304.396 244.338C304.396 244.338 304.615 248.34 303.075 250.197C303.075 250.197 303.76 251.421 302.81 251.711Z" fill="#2E6B32"/>
<path d="M291.403 270.908L286.276 274.109L293.485 285.617L298.611 282.416L291.403 270.908Z" fill="#4B8C4F" stroke="white" stroke-width="1.19242" stroke-linecap="round" stroke-linejoin="round"/>
<path d="M224.973 204.176C224.973 207.227 223.759 210.153 221.598 212.311C219.437 214.468 216.507 215.68 213.451 215.681H158.866C155.81 215.681 152.879 214.468 150.718 212.311C148.557 210.153 147.343 207.227 147.342 204.176V204.176C147.343 201.124 148.557 198.198 150.718 196.041C152.879 193.883 155.81 192.671 158.866 192.67H213.451C216.507 192.671 219.437 193.883 221.598 196.041C223.759 198.199 224.973 201.125 224.973 204.176V204.176Z" fill="white" stroke="white" stroke-width="1.19242" stroke-linecap="round" stroke-linejoin="round"/>
<path d="M209.952 206.517H160.548C158.191 206.515 155.904 205.717 154.06 204.252C152.216 202.787 150.923 200.741 150.393 198.448C149.537 200.035 149.108 201.816 149.148 203.617C149.187 205.419 149.695 207.179 150.62 208.727C151.545 210.274 152.857 211.555 154.426 212.445C155.996 213.335 157.77 213.802 159.575 213.803H208.979C210.549 213.807 212.1 213.456 213.515 212.777C214.931 212.097 216.173 211.106 217.15 209.879C218.127 208.652 218.813 207.219 219.156 205.689C219.5 204.16 219.492 202.572 219.133 201.046C218.24 202.7 216.915 204.082 215.299 205.046C213.682 206.009 211.835 206.517 209.952 206.517V206.517Z" fill="#4B8C4F"/>
<path d="M249.233 208.413C249.234 211.236 248.677 214.032 247.595 216.64C246.514 219.248 244.928 221.618 242.928 223.615C240.929 225.611 238.555 227.195 235.943 228.275C233.33 229.355 230.53 229.911 227.703 229.911V229.911C224.875 229.911 222.075 229.355 219.463 228.275C216.85 227.195 214.476 225.611 212.477 223.615C210.478 221.618 208.892 219.248 207.81 216.64C206.728 214.032 206.172 211.236 206.172 208.413V199.936C206.172 197.113 206.729 194.318 207.81 191.709C208.892 189.101 210.478 186.731 212.477 184.735C214.477 182.739 216.85 181.155 219.463 180.075C222.075 178.995 224.875 178.439 227.703 178.439V178.439C230.53 178.439 233.33 178.995 235.942 180.075C238.555 181.155 240.928 182.739 242.928 184.735C244.927 186.731 246.513 189.101 247.595 191.709C248.677 194.318 249.234 197.113 249.233 199.936V208.413Z" fill="white" stroke="white" stroke-width="1.19242" stroke-linecap="round" stroke-linejoin="round"/>
<path d="M234.152 218.373C231.649 218.373 229.17 217.881 226.858 216.925C224.545 215.968 222.443 214.566 220.673 212.799C218.903 211.032 217.499 208.934 216.542 206.624C215.584 204.315 215.091 201.84 215.091 199.341V191.836C215.09 189.37 215.569 186.926 216.504 184.643C213.916 186.384 211.796 188.734 210.331 191.486C208.867 194.238 208.102 197.307 208.104 200.423V207.927C208.104 212.339 209.639 216.613 212.446 220.02C215.254 223.426 219.159 225.753 223.495 226.603C227.83 227.452 232.327 226.772 236.216 224.677C240.104 222.583 243.144 219.205 244.814 215.121C241.666 217.246 237.952 218.379 234.152 218.373V218.373Z" fill="#4B8C4F"/>
<path d="M319.587 220.525C319.587 223.706 318.96 226.855 317.741 229.794C316.522 232.733 314.735 235.403 312.482 237.653C310.229 239.902 307.554 241.686 304.611 242.903C301.667 244.12 298.513 244.746 295.327 244.746H252.265C249.08 244.746 245.925 244.12 242.981 242.903C240.038 241.685 237.364 239.901 235.111 237.652C232.858 235.403 231.071 232.733 229.852 229.794C228.633 226.855 228.006 223.706 228.006 220.525V187.825C228.006 184.644 228.633 181.495 229.852 178.556C231.071 175.617 232.858 172.947 235.111 170.698C237.364 168.449 240.038 166.665 242.982 165.447C245.925 164.23 249.08 163.604 252.265 163.604H295.327C298.513 163.604 301.667 164.23 304.611 165.447C307.554 166.664 310.229 168.448 312.482 170.697C314.735 172.947 316.522 175.617 317.741 178.556C318.96 181.494 319.587 184.644 319.587 187.825V220.525Z" fill="white" stroke="white" stroke-width="1.19242" stroke-linecap="round" stroke-linejoin="round"/>
<path d="M303.484 230.435H263.46C260.499 230.436 257.567 229.853 254.831 228.722C252.095 227.591 249.609 225.932 247.515 223.842C245.421 221.751 243.761 219.27 242.627 216.538C241.494 213.807 240.911 210.879 240.911 207.923V177.529C240.91 174.703 241.443 171.902 242.483 169.274C238.775 171.157 235.661 174.028 233.487 177.569C231.312 181.109 230.161 185.182 230.162 189.336V219.729C230.161 222.685 230.745 225.613 231.878 228.344C233.011 231.076 234.672 233.558 236.765 235.648C238.859 237.739 241.345 239.397 244.081 240.528C246.817 241.659 249.749 242.242 252.71 242.241H292.734C297.259 242.241 301.68 240.882 305.422 238.339C309.163 235.796 312.051 232.189 313.711 227.985C310.544 229.599 307.039 230.439 303.484 230.435V230.435Z" fill="#4B8C4F"/>
<path d="M323.338 147.557C319.886 147.531 316.458 148.136 313.225 149.342C313.181 149.341 313.136 149.337 313.092 149.337C311.117 149.337 309.225 150.562 307.477 152.8C305.913 154.262 304.881 155.954 304.547 157.775C299.995 167.592 296.968 185.015 296.968 204.876C296.968 235.55 304.187 260.416 313.092 260.416C313.953 260.407 314.798 260.186 315.553 259.773C318.091 260.459 320.709 260.802 323.338 260.793C333.784 260.793 342.254 255.642 342.254 249.288V159.063C342.254 152.709 333.784 147.557 323.338 147.557Z" fill="white" stroke="white" stroke-width="1.19242" stroke-linecap="round" stroke-linejoin="round"/>
<path d="M285.827 219.127C285.827 219.502 285.677 219.862 285.412 220.127C285.146 220.392 284.786 220.541 284.41 220.542V220.542C284.035 220.54 283.676 220.391 283.412 220.126C283.147 219.86 282.999 219.501 282.999 219.127V184.006C283 183.633 283.149 183.275 283.413 183.01C283.678 182.746 284.036 182.598 284.41 182.597V182.597C284.785 182.596 285.145 182.745 285.41 183.009C285.676 183.273 285.826 183.632 285.827 184.006V219.127Z" fill="#4B8C4F"/>
<path d="M275.614 219.127C275.614 219.502 275.465 219.862 275.199 220.127C274.934 220.392 274.573 220.541 274.198 220.542V220.542C273.823 220.54 273.464 220.391 273.199 220.126C272.935 219.86 272.786 219.501 272.786 219.127V184.006C272.787 183.632 272.936 183.275 273.201 183.01C273.465 182.746 273.824 182.598 274.198 182.597V182.597C274.573 182.597 274.932 182.745 275.198 183.009C275.463 183.273 275.613 183.632 275.614 184.006V219.127Z" fill="#4B8C4F"/>
<path d="M350.716 204.876C350.716 235.55 343.497 260.415 334.592 260.415C325.687 260.415 318.468 235.55 318.468 204.876C318.468 174.202 325.687 149.336 334.592 149.336C343.497 149.336 350.716 174.202 350.716 204.876Z" fill="#4EA454" stroke="white" stroke-width="1.19242" stroke-miterlimit="10"/>
<path d="M330.836 213.677C330.836 214.247 330.609 214.793 330.206 215.195C329.803 215.598 329.256 215.824 328.686 215.824V215.824C328.403 215.824 328.124 215.768 327.863 215.661C327.602 215.553 327.365 215.395 327.165 215.195C326.966 214.996 326.807 214.759 326.699 214.499C326.591 214.238 326.536 213.959 326.536 213.677V194.895C326.536 194.613 326.591 194.334 326.699 194.074C326.807 193.813 326.966 193.577 327.165 193.377C327.365 193.178 327.602 193.02 327.863 192.912C328.124 192.804 328.403 192.749 328.686 192.749C329.256 192.749 329.803 192.975 330.206 193.377C330.609 193.78 330.836 194.326 330.836 194.895V213.677Z" fill="#2E6B32"/>
<path d="M342.929 206.433C342.929 207.002 342.702 207.548 342.299 207.951C341.896 208.353 341.349 208.579 340.779 208.58V208.58C340.209 208.579 339.662 208.353 339.259 207.951C338.856 207.548 338.629 207.002 338.629 206.433V187.65C338.629 187.081 338.856 186.535 339.259 186.133C339.662 185.73 340.209 185.504 340.779 185.504V185.504C341.349 185.504 341.896 185.73 342.299 186.133C342.702 186.535 342.929 187.081 342.929 187.65V206.433Z" fill="#2E6B32"/>
<path d="M297.981 416.863L296.301 426.59L287.029 428.066L289.113 418.54" fill="white"/>
<path d="M297.981 416.863L296.301 426.59L287.029 428.066L289.113 418.54" stroke="white" stroke-width="1.19242" stroke-linecap="round" stroke-linejoin="round"/>
<path d="M255.661 280.892C255.661 280.892 241.681 282.985 242.8 296.525C243.179 301.116 251.048 340.772 251.048 340.772L287.747 337.284C287.747 337.284 277.89 286.754 271.599 282.567C265.308 278.379 255.661 280.892 255.661 280.892Z" fill="#2E6B32"/>
<path d="M251.048 340.772C251.048 340.772 252.819 351.976 256.78 362.546C262.747 378.473 267.86 386.387 266.426 398.193C264.279 415.878 257.535 425.852 257.535 425.852L273.055 428.334C273.055 428.334 282.73 395.868 281.297 391.216C278.781 369.442 276.459 335.764 276.459 335.764L251.048 340.772Z" fill="#2E6B32"/>
<path d="M285.23 331.769C285.23 331.769 303.75 358.747 304.588 377.8C305.272 393.329 299.123 421.29 299.123 421.29L286.16 420.881C286.16 420.881 290.793 385.312 287.926 376.727C279.538 361.652 266.964 343.276 266.964 343.276L285.23 331.769Z" fill="#2E6B32"/>
<path d="M251.886 286.648C251.886 286.648 261.323 283.822 264.888 293.453C268.453 303.084 265.301 309.857 259.57 310.89C247.614 313.045 239.094 288.114 251.886 286.648Z" fill="#4B8C4F"/>
<path d="M274.849 295.135C275.17 296.134 270.97 298.688 270.97 298.688C270.319 296.998 269.532 295.365 268.616 293.803C267.868 292.577 267.015 291.418 266.068 290.339C264.469 288.847 262.372 286.754 260.023 285.716C259.169 285.322 258.282 285.006 257.371 284.774C255.493 284.293 255.373 282.396 257.287 282.069C258.233 281.783 259.22 281.652 260.209 281.681C261.209 281.71 262.201 281.86 263.165 282.126C264.176 282.331 265.16 282.651 266.097 283.08C267.016 283.512 267.896 284.024 268.725 284.611C269.624 285.162 273.055 289.545 274.849 295.135Z" fill="#4B8C4F"/>
<path d="M256.005 264.064L254.576 273.285L248.105 267.353L245.807 262.773L248.392 260.335C248.392 260.335 258.159 252.447 259.74 250.654C261.32 248.862 266.489 258.889 262.036 263.048" fill="#2E6B32"/>
<path d="M253.494 271.679L254.298 282.985C254.298 282.985 258.335 285.026 260.642 284.712C262.006 284.532 263.248 283.837 264.115 282.77L260.379 271.749L253.494 271.679Z" fill="white" stroke="white" stroke-width="1.19242" stroke-linecap="round" stroke-linejoin="round"/>
<path d="M261.163 260.902L254.243 263.63C254.243 263.63 254.964 266.775 254.814 267.141C254.812 267.141 252.836 268.333 252.835 268.334C251.874 268.999 251.781 270.525 252.627 271.743C253.473 272.961 254.937 273.409 255.897 272.744C256.116 272.59 256.295 272.387 256.422 272.151C258.413 274.163 259.846 275.084 262.478 275.084C267.469 275.084 261.163 260.902 261.163 260.902Z" fill="white" stroke="white" stroke-width="0.794946" stroke-linecap="round" stroke-linejoin="round"/>
<path d="M279.567 249.096H275.583C276.046 258.056 271.348 266.338 265.96 272.878L273.025 278.74C279.821 264.393 279.567 249.096 279.567 249.096Z" fill="white" stroke="white" stroke-width="1.19242" stroke-linecap="round" stroke-linejoin="round"/>
<path d="M250.591 286.983C249.647 288.098 248.828 289.313 248.15 290.606C246.853 293.042 246.853 296.399 248.951 297.655C255.661 302.262 261.953 294.738 266.011 289.846C266.849 288.828 267.632 287.802 268.368 286.717C269.104 285.634 269.793 284.575 270.438 283.447C270.914 282.667 271.362 281.995 271.788 281.201C272.226 280.387 272.635 279.565 273.025 278.741L265.96 272.878C265.862 272.996 252.725 284.66 250.591 286.983Z" fill="#4B8C4F" stroke="white" stroke-width="1.19242" stroke-linecap="round" stroke-linejoin="round"/>
<path d="M267.116 268.381L263.248 273.021L273.697 281.704L277.565 277.063L267.116 268.381Z" fill="#4B8C4F" stroke="white" stroke-width="1.19242" stroke-linecap="round" stroke-linejoin="round"/>
<path d="M283.866 327.646C283.866 327.646 261.463 333.827 249.422 332.344L250.302 343.097C250.302 343.097 273.568 337.386 284.46 331.699C284.653 331.598 284.47 331.088 284.47 331.088L283.866 327.646Z" fill="white" stroke="white" stroke-width="1.19242" stroke-linecap="round" stroke-linejoin="round"/>
<path d="M294.252 433.593L293.413 432.547L285.137 431.99L284.431 434.256C284.431 434.256 308.441 436.978 308.861 435.198C308.995 434.63 309.128 434.297 309.084 434.01L294.252 433.593Z" fill="#4B8C4F" stroke="white" stroke-width="1.19242" stroke-linecap="round" stroke-linejoin="round"/>
<path d="M294.251 433.592L309.084 434.01C308.991 433.4 310.032 432.743 306.606 430.749C304.748 429.667 300.825 429.605 299.424 428.55C297.959 427.431 296.724 426.039 295.789 424.45C295.789 424.45 292.609 428.324 290.826 427.591C289.044 426.858 286.947 426.195 286.947 426.195L285.137 431.99L293.413 432.546L294.251 433.592Z" fill="#4B8C4F" stroke="white" stroke-width="1.19242" stroke-linecap="round" stroke-linejoin="round"/>
<path d="M265.244 439.773L264.447 438.695L256.2 437.818L255.405 440.055C255.405 440.055 279.292 443.706 279.78 441.943C279.936 441.38 280.082 441.052 280.05 440.765L265.244 439.773Z" fill="#4B8C4F" stroke="white" stroke-width="1.19242" stroke-linecap="round" stroke-linejoin="round"/>
<path d="M265.245 439.773L280.05 440.765C279.98 440.151 281.046 439.536 277.701 437.41C275.886 436.256 271.968 436.043 270.61 434.935C269.189 433.759 268.009 432.32 267.137 430.696C267.137 430.696 263.808 434.444 262.055 433.642C260.303 432.841 258.233 432.098 258.233 432.098L256.2 437.818L264.447 438.694L265.245 439.773Z" fill="#4B8C4F" stroke="white" stroke-width="1.19242" stroke-linecap="round" stroke-linejoin="round"/>
<path d="M280.171 250.899L275.29 250.682C275.087 250.551 274.903 250.394 274.74 250.216C274.492 249.937 275.051 248.974 275.051 248.974C275.051 248.974 273.32 246.1 272.973 243.677C272.627 241.253 270.777 238.83 271.933 238.83C273.089 238.83 273.089 240.908 273.667 240.676C273.956 240.561 274.103 238.664 273.828 236.803C273.554 234.943 272.858 233.118 273.667 233.292C275.285 233.638 276.005 239.598 276.005 239.598C276.005 239.598 276.176 237.687 276.222 235.685C276.273 233.538 276.232 231.289 277.25 231.331C278.129 231.366 278.06 233.34 278.244 235.314C278.377 236.612 278.586 237.902 278.867 239.177C278.867 239.177 279.478 232.696 280.171 233.388C280.865 234.08 280.193 239.837 280.607 239.846C281.021 239.855 281.641 235.83 282.219 236.177C282.797 236.522 281.988 243.445 281.988 243.445C281.988 243.445 282.1 247.521 280.482 249.367C280.482 249.367 281.145 250.63 280.171 250.899Z" fill="#2E6B32"/>
<path d="M273.701 304.7C274.215 306.037 274.184 307.293 273.63 307.506C273.076 307.719 272.209 306.807 271.693 305.47C271.179 304.133 271.211 302.876 271.766 302.663C272.319 302.451 273.185 303.363 273.701 304.7Z" fill="white"/>
<path d="M278.269 301.928C278.784 303.265 278.752 304.522 278.198 304.734C277.644 304.947 276.778 304.036 276.262 302.699C275.748 301.362 275.78 300.105 276.334 299.892C276.888 299.68 277.754 300.591 278.269 301.928Z" fill="white"/>
<path d="M249.048 331.113H258.005C258.718 331.113 259.402 331.396 259.906 331.899C260.41 332.403 260.693 333.085 260.693 333.797V351.863C260.693 352.575 260.41 353.257 259.906 353.76C259.402 354.263 258.719 354.546 258.006 354.546H249.047C248.335 354.546 247.651 354.263 247.147 353.76C246.643 353.257 246.36 352.575 246.36 351.863V333.797C246.36 333.085 246.643 332.402 247.147 331.899C247.651 331.396 248.335 331.113 249.048 331.113Z" fill="#16631C" stroke="white" stroke-width="1.19242" stroke-linecap="round" stroke-linejoin="round"/>
<path d="M625.925 370.05C625.865 369.241 625.803 368.479 625.749 367.758C625.693 367.038 625.687 366.36 625.652 365.735C625.623 365.111 625.591 364.535 625.595 364.015C625.584 363.332 625.575 362.758 625.576 362.276C626.768 361.107 635.312 352.052 628.288 339.185C628.288 339.185 615.309 348.564 625.342 362.271C625.269 362.744 625.187 363.316 625.109 363.99C624.978 365.03 624.88 366.299 624.784 367.759C624.751 368.488 624.72 369.265 624.688 370.083C624.638 370.906 624.764 371.763 624.801 372.661C624.851 373.361 624.89 374.091 624.944 374.836C624.464 374.205 623.829 373.375 623.19 372.539C622.871 372.119 622.549 371.697 622.246 371.307C622.13 371.164 622.018 371.026 621.908 370.891C623.85 353.063 610.921 350.547 610.921 350.547C611.239 369.345 618.863 370.975 621.216 371.029C621.387 371.241 621.57 371.463 621.765 371.7C622.065 372.091 622.386 372.509 622.701 372.924C623.34 373.759 623.975 374.593 624.452 375.22C624.522 375.293 624.551 375.386 624.628 375.44C624.702 375.497 624.774 375.55 624.838 375.602C624.91 375.654 624.959 375.691 625.017 375.736C625.111 376.613 625.211 377.511 625.308 378.437C625.367 378.949 625.411 379.469 625.485 379.992C625.566 380.512 625.65 381.04 625.732 381.573C625.903 382.641 626.076 383.732 626.25 384.839C626.468 385.955 626.674 387.05 626.927 388.184C627.047 388.72 627.175 389.262 627.299 389.802C627.228 389.659 627.149 389.519 627.062 389.385C626.91 389.132 626.755 388.876 626.598 388.618C626.291 388.105 625.98 387.588 625.689 387.106C625.372 386.638 625.076 386.202 624.822 385.826C624.767 385.735 624.706 385.647 624.64 385.564C624.562 385.491 624.486 385.426 624.419 385.36C624.353 385.302 624.3 385.264 624.241 385.214C623.861 382.444 621.52 371.507 608.023 369.033C608.023 369.033 607.159 384.983 624.105 385.842C624.117 385.871 624.128 385.897 624.137 385.927C624.19 386.018 624.249 386.106 624.315 386.189C624.566 386.557 624.854 386.985 625.167 387.443C625.451 387.918 625.76 388.424 626.064 388.936C626.215 389.189 626.369 389.442 626.521 389.693C626.67 389.934 626.805 390.184 626.925 390.442C627.173 390.941 627.401 391.406 627.6 391.802C627.638 391.901 627.687 391.996 627.746 392.084C627.785 392.133 627.823 392.177 627.862 392.224C628.355 394.299 628.855 396.389 629.223 398.497C629.456 399.655 629.592 400.823 629.751 401.98C629.825 402.561 629.852 403.146 629.906 403.723C629.949 404.304 630.013 404.882 630.01 405.46C630.012 405.591 630.014 405.717 630.016 405.85C629.977 405.771 629.939 405.692 629.894 405.612C629.707 405.247 629.501 404.893 629.277 404.55C629.065 404.177 628.785 403.834 628.531 403.462C628.251 403.115 627.967 402.755 627.654 402.422C627.35 402.131 627.066 401.815 626.737 401.552C626.817 401.525 626.892 401.508 626.973 401.482C626.973 401.482 622.564 388.312 608.28 390.769C608.28 390.769 611.638 405.833 626.02 401.764C626.099 401.829 626.177 401.891 626.255 401.955C626.586 402.233 626.901 402.531 627.196 402.847C627.494 403.164 627.765 403.508 628.036 403.84C628.278 404.194 628.546 404.523 628.749 404.882C628.972 405.227 629.171 405.569 629.343 405.904C629.528 406.234 629.671 406.558 629.812 406.854C629.891 407.001 629.921 407.159 630.003 407.287C630.015 407.305 630.024 407.325 630.036 407.344C630.039 407.864 630.037 408.38 630 408.895C629.974 409.46 629.955 410.021 629.93 410.579C629.882 411.138 629.815 411.692 629.759 412.239C629.705 412.789 629.646 413.33 629.59 413.87C629.505 414.407 629.42 414.938 629.334 415.461C629.158 416.512 629.013 417.541 628.774 418.527C628.552 419.517 628.341 420.48 628.136 421.415C628.076 421.633 628.018 421.847 627.958 422.062C627.907 421.853 627.85 421.642 627.781 421.434C627.51 420.592 627.121 419.792 626.624 419.06C626.571 418.992 626.547 418.9 626.478 418.85C626.411 418.794 626.345 418.747 626.285 418.701C626.202 418.64 626.135 418.598 626.065 418.552C625.937 417.091 624.594 406.387 612.739 405.17C612.739 405.17 611.978 419.197 625.806 418.725C625.835 418.807 625.864 418.889 625.898 418.989C625.923 419.056 625.948 419.132 625.974 419.208C626.001 419.282 626.071 419.333 626.11 419.408C626.573 420.092 626.937 420.838 627.19 421.624C627.328 422.04 627.427 422.468 627.485 422.902C627.517 423.1 627.538 423.3 627.546 423.501C627.547 423.531 627.548 423.556 627.546 423.584C627.502 423.752 627.458 423.92 627.413 424.085C627.295 424.51 627.18 424.931 627.066 425.342C626.946 425.746 626.808 426.138 626.716 426.533C626.521 427.321 626.336 428.066 626.16 428.768C625.829 430.179 625.465 431.387 625.174 432.387C624.597 434.391 624.289 435.548 624.289 435.548C624.289 435.548 624.779 434.462 625.611 432.545C626.026 431.582 626.542 430.421 627.048 429.053C627.232 428.586 627.423 428.09 627.623 427.58C627.667 427.559 627.705 427.541 627.755 427.516C627.824 427.482 627.9 427.445 627.979 427.405C628.059 427.371 628.105 427.285 628.182 427.23C628.322 427.091 628.473 426.963 628.635 426.85C628.809 426.732 628.996 426.606 629.186 426.478C629.38 426.348 629.57 426.204 629.778 426.078C629.993 425.974 630.214 425.86 630.433 425.748C630.646 425.627 630.868 425.524 631.097 425.44C631.324 425.352 631.549 425.269 631.758 425.191C631.967 425.114 632.18 425.05 632.397 425.002C632.603 424.954 632.792 424.886 632.972 424.86C633.06 424.853 633.148 424.838 633.234 424.815C633.274 424.794 633.309 424.778 633.35 424.759C635.792 425.406 647.098 427.645 654.601 415.872C654.601 415.872 640.27 409.153 633.064 424.21C632.997 424.221 632.927 424.244 632.852 424.25C632.66 424.28 632.459 424.348 632.24 424.398C632.011 424.451 631.786 424.518 631.565 424.599C631.336 424.684 631.1 424.773 630.859 424.865C630.618 424.957 630.383 425.065 630.156 425.189C629.924 425.307 629.695 425.426 629.466 425.544C629.244 425.673 629.043 425.824 628.839 425.958C628.639 426.094 628.444 426.228 628.259 426.355C628.171 426.41 628.089 426.473 628.014 426.545C628.247 425.875 628.401 425.15 628.614 424.416C628.848 423.549 629.093 422.647 629.349 421.712C629.554 420.763 629.772 419.785 629.993 418.781C630.238 417.778 630.387 416.726 630.565 415.656C630.65 415.123 630.737 414.581 630.826 414.036C630.857 413.754 630.887 413.465 630.916 413.18C630.949 413.168 630.978 413.154 631.013 413.143C631.072 413.117 631.094 413.05 631.147 413.012C631.512 412.649 631.999 412.165 632.48 411.681C632.966 411.197 633.449 410.711 633.813 410.345C633.841 410.311 633.878 410.287 633.906 410.258C637.014 409.807 647.495 407.329 650.003 394.219C650.003 394.219 633.976 393.235 633.043 410.237C632.738 410.543 632.39 410.894 632.042 411.239C631.68 411.599 631.321 411.958 631.008 412.268C631.064 411.741 631.127 411.21 631.172 410.669C631.196 410.096 631.22 409.518 631.245 408.939C631.328 407.777 631.273 406.601 631.255 405.411C631.256 404.819 631.189 404.227 631.148 403.63C631.093 403.036 631.066 402.433 630.989 401.837C630.867 400.953 630.747 400.063 630.602 399.179C630.619 399.082 630.63 398.984 630.636 398.885C630.702 398.329 630.728 397.681 630.85 396.983C630.962 396.287 631.066 395.544 631.215 394.805C631.482 393.326 631.815 391.856 632.069 390.753C632.106 390.623 632.136 390.491 632.159 390.358C632.163 390.287 632.168 390.218 632.17 390.149C633.724 389.378 645.097 383.196 640.097 369.287C640.097 369.287 624.345 378.978 631.726 389.835C631.721 389.848 631.715 389.861 631.709 389.874C631.659 389.982 631.609 390.094 631.554 390.216C631.505 390.337 631.504 390.476 631.463 390.613C631.203 391.721 630.871 393.198 630.601 394.692C630.449 395.435 630.345 396.191 630.234 396.896C630.227 396.947 630.224 396.996 630.216 397.047C629.832 395.101 629.37 393.19 628.926 391.305C628.65 390.168 628.399 389.04 628.148 387.933C627.899 386.825 627.687 385.686 627.474 384.615C627.302 383.523 627.132 382.444 626.966 381.39C626.882 380.864 626.801 380.342 626.717 379.827C626.647 379.311 626.604 378.798 626.545 378.294C626.448 377.387 626.356 376.51 626.263 375.651C626.295 375.402 626.343 375.157 626.408 374.915C626.476 374.598 626.562 374.286 626.664 373.978C626.758 373.667 626.869 373.36 626.996 373.061C627.105 372.762 627.256 372.481 627.381 372.202C627.633 371.703 627.915 371.221 628.227 370.758C628.287 370.651 628.375 370.572 628.423 370.468C628.47 370.364 628.518 370.263 628.558 370.172C628.559 370.166 628.563 370.161 628.565 370.153C631.04 369.386 638.978 366.117 636.87 356.288C636.87 356.288 625.493 358.957 627.827 370.229C627.793 370.291 627.754 370.351 627.71 370.407C627.383 370.893 627.087 371.399 626.824 371.922C626.691 372.218 626.536 372.508 626.419 372.825C626.304 373.101 626.203 373.384 626.113 373.673C626.091 373.306 626.072 372.945 626.048 372.591C625.978 371.705 625.975 370.857 625.925 370.05Z" fill="#4EA454"/>
<path d="M178.886 311.719C178.886 312.102 178.773 312.477 178.559 312.796C178.346 313.115 178.042 313.364 177.687 313.51C177.332 313.657 176.942 313.696 176.565 313.621C176.188 313.546 175.842 313.361 175.57 313.09C175.299 312.819 175.114 312.473 175.039 312.097C174.964 311.721 175.002 311.331 175.149 310.976C175.296 310.622 175.545 310.319 175.865 310.106C176.184 309.893 176.56 309.779 176.944 309.779C177.459 309.779 177.953 309.984 178.317 310.347C178.682 310.711 178.886 311.204 178.886 311.719V311.719Z" fill="#4B8C4F"/>
<path d="M189.937 311.719C189.937 312.102 189.823 312.477 189.609 312.796C189.396 313.115 189.093 313.364 188.738 313.51C188.383 313.657 187.992 313.696 187.615 313.621C187.238 313.546 186.892 313.361 186.621 313.09C186.349 312.819 186.164 312.473 186.089 312.097C186.014 311.721 186.053 311.331 186.2 310.976C186.347 310.622 186.596 310.319 186.915 310.106C187.235 309.893 187.61 309.779 187.994 309.779C188.509 309.779 189.004 309.984 189.368 310.347C189.732 310.711 189.937 311.204 189.937 311.719Z" fill="#4B8C4F"/>
<path d="M200.987 311.719C200.988 312.102 200.874 312.477 200.66 312.796C200.447 313.115 200.143 313.364 199.788 313.51C199.433 313.657 199.043 313.696 198.666 313.621C198.289 313.546 197.943 313.361 197.671 313.09C197.399 312.818 197.215 312.473 197.14 312.096C197.065 311.72 197.104 311.33 197.251 310.976C197.398 310.621 197.647 310.319 197.967 310.106C198.286 309.893 198.662 309.779 199.046 309.779C199.301 309.779 199.554 309.83 199.789 309.927C200.025 310.025 200.239 310.167 200.419 310.347C200.599 310.528 200.742 310.741 200.84 310.977C200.937 311.212 200.988 311.464 200.987 311.719V311.719Z" fill="#4B8C4F"/>
<path d="M212.039 311.719C212.039 312.102 211.925 312.477 211.712 312.796C211.498 313.115 211.195 313.363 210.84 313.51C210.485 313.657 210.095 313.695 209.718 313.621C209.341 313.546 208.995 313.361 208.723 313.09C208.452 312.819 208.267 312.473 208.192 312.097C208.117 311.721 208.155 311.331 208.302 310.976C208.449 310.622 208.698 310.319 209.018 310.106C209.337 309.893 209.713 309.779 210.097 309.779C210.352 309.779 210.604 309.829 210.84 309.927C211.076 310.024 211.29 310.167 211.47 310.347C211.651 310.527 211.794 310.741 211.891 310.976C211.989 311.212 212.039 311.464 212.039 311.719V311.719Z" fill="#4B8C4F"/>
<path d="M223.091 311.719C223.091 312.102 222.977 312.477 222.764 312.796C222.55 313.115 222.247 313.364 221.892 313.51C221.537 313.657 221.146 313.696 220.769 313.621C220.393 313.546 220.047 313.361 219.775 313.09C219.503 312.819 219.318 312.473 219.243 312.097C219.168 311.721 219.207 311.331 219.354 310.976C219.501 310.622 219.75 310.319 220.069 310.106C220.389 309.893 220.764 309.779 221.149 309.779C221.664 309.779 222.158 309.984 222.522 310.347C222.886 310.711 223.091 311.204 223.091 311.719V311.719Z" fill="#4B8C4F"/>
<path d="M234.141 311.719C234.141 312.102 234.027 312.477 233.814 312.796C233.6 313.115 233.297 313.364 232.942 313.51C232.587 313.657 232.196 313.696 231.82 313.621C231.443 313.546 231.097 313.361 230.825 313.09C230.553 312.818 230.368 312.473 230.294 312.096C230.219 311.72 230.257 311.33 230.405 310.976C230.552 310.621 230.801 310.319 231.12 310.106C231.44 309.893 231.816 309.779 232.2 309.779C232.715 309.78 233.209 309.984 233.573 310.348C233.937 310.711 234.141 311.204 234.141 311.719V311.719Z" fill="#4B8C4F"/>
<path d="M178.886 323.785C178.887 324.169 178.773 324.544 178.559 324.863C178.346 325.182 178.043 325.431 177.688 325.578C177.333 325.725 176.942 325.763 176.566 325.688C176.189 325.614 175.842 325.429 175.571 325.158C175.299 324.887 175.114 324.541 175.039 324.165C174.964 323.788 175.002 323.398 175.149 323.044C175.296 322.69 175.545 322.387 175.865 322.174C176.184 321.96 176.56 321.847 176.944 321.847C177.459 321.847 177.953 322.051 178.317 322.415C178.681 322.778 178.886 323.271 178.886 323.785V323.785Z" fill="#4B8C4F"/>
<path d="M189.937 323.785C189.937 324.169 189.823 324.544 189.61 324.863C189.396 325.182 189.093 325.431 188.738 325.578C188.383 325.725 187.993 325.763 187.616 325.688C187.239 325.614 186.893 325.429 186.621 325.158C186.349 324.887 186.164 324.541 186.089 324.165C186.014 323.788 186.053 323.398 186.2 323.044C186.347 322.69 186.596 322.387 186.915 322.174C187.235 321.96 187.61 321.847 187.994 321.847C188.509 321.847 189.003 322.051 189.367 322.415C189.731 322.778 189.936 323.271 189.937 323.785V323.785Z" fill="#4B8C4F"/>
<path d="M200.987 323.785C200.988 324.169 200.874 324.544 200.661 324.863C200.447 325.182 200.144 325.431 199.789 325.578C199.434 325.725 199.043 325.763 198.666 325.688C198.289 325.613 197.943 325.429 197.671 325.157C197.4 324.886 197.215 324.54 197.14 324.164C197.065 323.788 197.103 323.398 197.251 323.043C197.398 322.689 197.647 322.386 197.967 322.173C198.286 321.96 198.662 321.846 199.046 321.847C199.561 321.847 200.054 322.051 200.418 322.415C200.782 322.778 200.987 323.271 200.987 323.785Z" fill="#4B8C4F"/>
<path d="M212.039 323.785C212.039 324.169 211.926 324.544 211.712 324.863C211.499 325.182 211.196 325.431 210.841 325.577C210.486 325.724 210.095 325.763 209.718 325.688C209.341 325.613 208.995 325.429 208.724 325.158C208.452 324.886 208.267 324.541 208.192 324.165C208.117 323.788 208.155 323.398 208.302 323.044C208.449 322.69 208.698 322.387 209.018 322.174C209.337 321.96 209.713 321.847 210.097 321.847C210.612 321.847 211.106 322.051 211.47 322.415C211.834 322.778 212.039 323.271 212.039 323.785V323.785Z" fill="#4B8C4F"/>
<path d="M223.091 323.785C223.091 324.169 222.977 324.544 222.764 324.863C222.551 325.182 222.247 325.431 221.892 325.577C221.537 325.724 221.147 325.763 220.77 325.688C220.393 325.613 220.047 325.429 219.775 325.158C219.503 324.886 219.318 324.541 219.243 324.165C219.168 323.788 219.207 323.398 219.354 323.044C219.501 322.69 219.75 322.387 220.069 322.174C220.389 321.96 220.764 321.847 221.149 321.847C221.664 321.847 222.157 322.051 222.521 322.415C222.885 322.778 223.09 323.271 223.091 323.785V323.785Z" fill="#4B8C4F"/>
<path d="M234.141 323.785C234.141 324.169 234.028 324.544 233.814 324.863C233.601 325.182 233.298 325.431 232.943 325.578C232.588 325.725 232.197 325.763 231.82 325.688C231.443 325.613 231.097 325.429 230.825 325.157C230.554 324.886 230.369 324.54 230.294 324.164C230.219 323.788 230.257 323.398 230.404 323.043C230.552 322.689 230.801 322.386 231.12 322.173C231.44 321.96 231.816 321.846 232.2 321.847C232.715 321.847 233.208 322.052 233.572 322.415C233.936 322.778 234.141 323.271 234.141 323.785Z" fill="#4B8C4F"/>
<path d="M178.886 335.855C178.886 336.239 178.772 336.614 178.559 336.932C178.345 337.251 178.042 337.5 177.687 337.646C177.332 337.793 176.941 337.831 176.565 337.756C176.188 337.682 175.842 337.497 175.57 337.225C175.299 336.954 175.114 336.609 175.039 336.232C174.964 335.856 175.002 335.466 175.149 335.112C175.296 334.758 175.545 334.455 175.865 334.242C176.184 334.029 176.56 333.915 176.944 333.915C177.199 333.915 177.452 333.965 177.688 334.063C177.923 334.16 178.137 334.303 178.318 334.483C178.498 334.663 178.641 334.877 178.739 335.113C178.836 335.348 178.886 335.6 178.886 335.855V335.855Z" fill="#4B8C4F"/>
<path d="M189.937 335.855C189.937 336.239 189.823 336.614 189.609 336.932C189.395 337.251 189.092 337.5 188.737 337.646C188.382 337.793 187.992 337.831 187.615 337.756C187.238 337.682 186.892 337.497 186.62 337.225C186.349 336.954 186.164 336.609 186.089 336.232C186.014 335.856 186.053 335.466 186.2 335.112C186.347 334.758 186.596 334.455 186.915 334.242C187.235 334.029 187.61 333.915 187.994 333.915C188.249 333.915 188.502 333.965 188.738 334.063C188.974 334.16 189.188 334.303 189.368 334.483C189.548 334.663 189.692 334.877 189.789 335.113C189.887 335.348 189.937 335.6 189.937 335.855V335.855Z" fill="#4B8C4F"/>
<path d="M200.987 335.855C200.987 336.239 200.873 336.614 200.66 336.932C200.446 337.251 200.143 337.5 199.788 337.647C199.433 337.793 199.042 337.831 198.665 337.756C198.288 337.681 197.942 337.497 197.671 337.225C197.399 336.954 197.214 336.608 197.14 336.232C197.065 335.856 197.104 335.466 197.251 335.111C197.398 334.757 197.647 334.454 197.967 334.241C198.286 334.028 198.662 333.915 199.046 333.915C199.301 333.915 199.554 333.965 199.789 334.063C200.025 334.16 200.239 334.303 200.419 334.483C200.6 334.664 200.743 334.877 200.84 335.113C200.938 335.348 200.988 335.6 200.987 335.855V335.855Z" fill="#4B8C4F"/>
<path d="M212.039 335.855C212.039 336.239 211.925 336.614 211.711 336.932C211.498 337.251 211.194 337.5 210.839 337.646C210.485 337.793 210.094 337.831 209.717 337.756C209.341 337.681 208.994 337.497 208.723 337.225C208.451 336.954 208.266 336.609 208.192 336.232C208.117 335.856 208.155 335.466 208.302 335.112C208.449 334.758 208.698 334.455 209.018 334.242C209.337 334.029 209.713 333.915 210.097 333.915C210.352 333.915 210.605 333.965 210.84 334.063C211.076 334.16 211.29 334.303 211.471 334.483C211.651 334.663 211.794 334.877 211.892 335.113C211.989 335.348 212.039 335.6 212.039 335.855V335.855Z" fill="#4B8C4F"/>
<path d="M223.091 335.855C223.091 336.239 222.977 336.614 222.763 336.932C222.55 337.251 222.246 337.5 221.891 337.646C221.536 337.793 221.146 337.831 220.769 337.756C220.392 337.681 220.046 337.497 219.775 337.225C219.503 336.954 219.318 336.608 219.243 336.232C219.168 335.856 219.207 335.466 219.354 335.112C219.501 334.758 219.75 334.455 220.07 334.242C220.389 334.029 220.764 333.915 221.149 333.915C221.404 333.915 221.656 333.965 221.892 334.063C222.128 334.16 222.342 334.303 222.522 334.483C222.703 334.664 222.846 334.877 222.943 335.113C223.041 335.348 223.091 335.6 223.091 335.855V335.855Z" fill="#4B8C4F"/>
<path d="M234.141 335.855C234.141 336.239 234.027 336.614 233.813 336.932C233.6 337.251 233.296 337.5 232.941 337.646C232.586 337.793 232.196 337.831 231.819 337.756C231.442 337.681 231.096 337.497 230.825 337.225C230.553 336.954 230.368 336.608 230.293 336.232C230.219 335.856 230.257 335.466 230.405 335.111C230.552 334.757 230.801 334.454 231.121 334.241C231.44 334.028 231.816 333.915 232.2 333.915C232.455 333.915 232.708 333.965 232.943 334.063C233.179 334.161 233.393 334.303 233.573 334.484C233.753 334.664 233.896 334.878 233.994 335.113C234.091 335.348 234.141 335.6 234.141 335.855Z" fill="#4B8C4F"/>
<path d="M178.886 347.922C178.886 348.306 178.773 348.681 178.559 349C178.346 349.319 178.042 349.568 177.688 349.714C177.333 349.861 176.942 349.9 176.565 349.825C176.188 349.75 175.842 349.565 175.57 349.294C175.299 349.023 175.114 348.677 175.039 348.301C174.964 347.925 175.002 347.535 175.149 347.181C175.296 346.826 175.545 346.523 175.865 346.31C176.184 346.097 176.56 345.983 176.944 345.983C177.199 345.983 177.452 346.033 177.687 346.131C177.923 346.228 178.137 346.371 178.318 346.551C178.498 346.731 178.641 346.945 178.739 347.18C178.836 347.416 178.886 347.668 178.886 347.922Z" fill="#4B8C4F"/>
<path d="M189.937 347.922C189.937 348.306 189.823 348.681 189.61 349C189.396 349.319 189.093 349.568 188.738 349.714C188.383 349.861 187.992 349.9 187.615 349.825C187.239 349.75 186.892 349.565 186.621 349.294C186.349 349.023 186.164 348.677 186.089 348.301C186.014 347.925 186.053 347.535 186.2 347.181C186.347 346.826 186.596 346.523 186.915 346.31C187.235 346.097 187.61 345.983 187.994 345.983C188.249 345.983 188.502 346.033 188.738 346.131C188.973 346.228 189.187 346.371 189.368 346.551C189.548 346.731 189.691 346.945 189.789 347.18C189.887 347.416 189.937 347.668 189.937 347.922V347.922Z" fill="#4B8C4F"/>
<path d="M200.987 347.922C200.988 348.306 200.874 348.681 200.66 349C200.447 349.319 200.143 349.568 199.788 349.715C199.433 349.861 199.043 349.9 198.666 349.825C198.289 349.75 197.943 349.565 197.671 349.294C197.4 349.023 197.215 348.677 197.14 348.301C197.065 347.924 197.103 347.534 197.251 347.18C197.398 346.826 197.647 346.523 197.967 346.31C198.286 346.097 198.662 345.983 199.046 345.983C199.301 345.983 199.554 346.034 199.789 346.131C200.025 346.228 200.239 346.371 200.419 346.551C200.599 346.731 200.742 346.945 200.84 347.18C200.937 347.416 200.988 347.668 200.987 347.922V347.922Z" fill="#4B8C4F"/>
<path d="M212.039 347.922C212.039 348.306 211.925 348.681 211.712 349C211.498 349.319 211.195 349.568 210.84 349.714C210.485 349.861 210.095 349.9 209.718 349.825C209.341 349.75 208.995 349.565 208.723 349.294C208.452 349.023 208.267 348.677 208.192 348.301C208.117 347.925 208.155 347.535 208.302 347.181C208.449 346.826 208.698 346.523 209.018 346.31C209.337 346.097 209.713 345.983 210.097 345.983C210.352 345.983 210.604 346.033 210.84 346.131C211.076 346.228 211.29 346.371 211.47 346.551C211.651 346.731 211.794 346.945 211.891 347.18C211.989 347.416 212.039 347.668 212.039 347.922Z" fill="#4B8C4F"/>
<path d="M223.091 347.922C223.091 348.306 222.977 348.681 222.764 349C222.55 349.319 222.247 349.568 221.892 349.714C221.537 349.861 221.146 349.9 220.77 349.825C220.393 349.75 220.047 349.565 219.775 349.294C219.503 349.023 219.318 348.677 219.243 348.301C219.168 347.925 219.207 347.535 219.354 347.181C219.501 346.826 219.75 346.523 220.069 346.31C220.389 346.097 220.764 345.983 221.149 345.983C221.404 345.983 221.656 346.033 221.892 346.131C222.128 346.228 222.342 346.371 222.522 346.551C222.702 346.731 222.845 346.945 222.943 347.18C223.041 347.416 223.091 347.668 223.091 347.922V347.922Z" fill="#4B8C4F"/>
<path d="M234.141 347.922C234.141 348.306 234.027 348.681 233.814 349C233.601 349.319 233.297 349.568 232.942 349.715C232.587 349.861 232.197 349.9 231.82 349.825C231.443 349.75 231.097 349.565 230.825 349.294C230.553 349.023 230.368 348.677 230.294 348.301C230.219 347.924 230.257 347.534 230.404 347.18C230.552 346.826 230.801 346.523 231.12 346.31C231.44 346.097 231.816 345.983 232.2 345.983C232.715 345.984 233.209 346.188 233.573 346.551C233.937 346.915 234.141 347.408 234.141 347.922Z" fill="#4B8C4F"/>
<path d="M465.104 208.794C465.104 209.077 465.02 209.353 464.863 209.587C464.706 209.822 464.483 210.005 464.221 210.113C463.96 210.221 463.673 210.25 463.395 210.194C463.118 210.139 462.863 210.003 462.663 209.804C462.463 209.604 462.327 209.35 462.272 209.073C462.217 208.796 462.245 208.509 462.353 208.248C462.462 207.987 462.645 207.764 462.88 207.608C463.115 207.451 463.392 207.367 463.675 207.367C464.054 207.367 464.417 207.518 464.685 207.785C464.953 208.053 465.104 208.416 465.104 208.794V208.794Z" fill="#4EA454"/>
<path d="M473.237 208.794C473.237 209.077 473.153 209.352 472.996 209.587C472.839 209.822 472.616 210.005 472.355 210.113C472.093 210.221 471.806 210.249 471.529 210.194C471.251 210.139 470.997 210.003 470.797 209.804C470.597 209.604 470.461 209.35 470.405 209.073C470.35 208.796 470.379 208.509 470.487 208.248C470.595 207.987 470.778 207.764 471.013 207.608C471.248 207.451 471.525 207.367 471.808 207.367C472.187 207.367 472.55 207.518 472.818 207.785C473.086 208.053 473.237 208.416 473.237 208.794V208.794Z" fill="#4EA454"/>
<path d="M481.37 208.794C481.37 209.077 481.286 209.353 481.129 209.588C480.972 209.822 480.749 210.005 480.487 210.113C480.226 210.222 479.938 210.25 479.661 210.195C479.384 210.14 479.129 210.004 478.929 209.804C478.729 209.604 478.593 209.35 478.538 209.073C478.483 208.796 478.511 208.509 478.619 208.248C478.728 207.987 478.911 207.764 479.146 207.607C479.382 207.451 479.658 207.367 479.941 207.367C480.32 207.367 480.683 207.518 480.951 207.785C481.219 208.053 481.37 208.416 481.37 208.794V208.794Z" fill="#4EA454"/>
<path d="M489.503 208.794C489.503 209.077 489.419 209.353 489.262 209.587C489.105 209.822 488.882 210.005 488.62 210.113C488.359 210.221 488.072 210.25 487.794 210.194C487.517 210.139 487.262 210.003 487.062 209.804C486.862 209.604 486.726 209.35 486.671 209.073C486.616 208.796 486.644 208.509 486.752 208.248C486.861 207.987 487.044 207.764 487.279 207.607C487.514 207.451 487.791 207.367 488.074 207.367C488.261 207.367 488.447 207.404 488.621 207.476C488.794 207.548 488.952 207.653 489.084 207.785C489.217 207.918 489.322 208.075 489.394 208.248C489.466 208.421 489.503 208.607 489.503 208.794V208.794Z" fill="#4EA454"/>
<path d="M497.637 208.794C497.637 209.077 497.553 209.353 497.396 209.587C497.239 209.822 497.016 210.005 496.754 210.113C496.493 210.221 496.206 210.25 495.928 210.195C495.651 210.139 495.396 210.004 495.196 209.804C494.996 209.604 494.86 209.35 494.805 209.073C494.75 208.796 494.778 208.509 494.886 208.249C494.994 207.988 495.177 207.765 495.412 207.608C495.648 207.451 495.924 207.367 496.207 207.367C496.586 207.367 496.949 207.518 497.218 207.785C497.486 208.053 497.636 208.416 497.637 208.794Z" fill="#4EA454"/>
<path d="M505.769 208.794C505.769 209.077 505.685 209.353 505.528 209.588C505.371 209.822 505.148 210.006 504.886 210.114C504.625 210.222 504.338 210.25 504.06 210.195C503.783 210.14 503.528 210.004 503.328 209.804C503.128 209.604 502.992 209.35 502.937 209.073C502.881 208.796 502.91 208.509 503.018 208.248C503.127 207.987 503.31 207.764 503.545 207.607C503.78 207.451 504.057 207.367 504.34 207.367C504.719 207.367 505.082 207.518 505.35 207.786C505.618 208.053 505.769 208.416 505.769 208.794Z" fill="#4EA454"/>
<path d="M465.104 217.676C465.104 217.958 465.02 218.234 464.863 218.469C464.706 218.704 464.483 218.887 464.222 218.995C463.961 219.103 463.673 219.131 463.396 219.076C463.118 219.021 462.864 218.885 462.664 218.686C462.464 218.486 462.327 218.232 462.272 217.955C462.217 217.678 462.245 217.391 462.353 217.13C462.462 216.869 462.645 216.646 462.88 216.49C463.115 216.333 463.392 216.249 463.675 216.249C464.053 216.249 464.417 216.4 464.685 216.667C464.953 216.934 465.104 217.297 465.104 217.676V217.676Z" fill="#4EA454"/>
<path d="M473.237 217.676C473.237 217.958 473.153 218.234 472.996 218.469C472.839 218.703 472.616 218.887 472.355 218.995C472.094 219.103 471.806 219.131 471.529 219.076C471.252 219.021 470.997 218.885 470.797 218.686C470.597 218.486 470.461 218.232 470.405 217.955C470.35 217.678 470.379 217.391 470.487 217.13C470.595 216.869 470.778 216.646 471.013 216.49C471.248 216.333 471.525 216.249 471.808 216.249C472.186 216.249 472.55 216.4 472.818 216.667C473.086 216.934 473.237 217.297 473.237 217.676V217.676Z" fill="#4EA454"/>
<path d="M481.37 217.676C481.37 217.958 481.286 218.234 481.129 218.469C480.972 218.704 480.749 218.887 480.488 218.995C480.226 219.103 479.939 219.132 479.661 219.077C479.384 219.022 479.129 218.886 478.929 218.686C478.729 218.486 478.593 218.232 478.538 217.955C478.483 217.678 478.511 217.391 478.619 217.13C478.728 216.869 478.911 216.646 479.146 216.489C479.382 216.332 479.658 216.249 479.941 216.249C480.32 216.249 480.683 216.4 480.951 216.667C481.219 216.935 481.37 217.297 481.37 217.676V217.676Z" fill="#4EA454"/>
<path d="M489.503 217.676C489.503 217.958 489.419 218.234 489.262 218.469C489.105 218.704 488.882 218.887 488.621 218.995C488.359 219.103 488.072 219.131 487.795 219.076C487.517 219.021 487.262 218.885 487.062 218.686C486.862 218.486 486.726 218.232 486.671 217.955C486.616 217.678 486.644 217.391 486.752 217.13C486.861 216.869 487.044 216.646 487.279 216.489C487.514 216.333 487.791 216.249 488.074 216.249C488.453 216.249 488.816 216.399 489.084 216.667C489.352 216.934 489.503 217.297 489.503 217.676V217.676Z" fill="#4EA454"/>
<path d="M497.637 217.676C497.637 217.958 497.553 218.234 497.396 218.469C497.239 218.704 497.016 218.887 496.755 218.995C496.494 219.103 496.206 219.131 495.929 219.076C495.651 219.021 495.396 218.886 495.196 218.686C494.996 218.487 494.86 218.232 494.805 217.955C494.75 217.678 494.778 217.391 494.886 217.131C494.994 216.87 495.177 216.647 495.412 216.49C495.648 216.333 495.924 216.249 496.207 216.249C496.586 216.249 496.949 216.399 497.217 216.667C497.485 216.934 497.636 217.297 497.637 217.676V217.676Z" fill="#4EA454"/>
<path d="M505.769 217.676C505.769 217.958 505.685 218.234 505.528 218.469C505.371 218.704 505.148 218.887 504.887 218.995C504.626 219.104 504.338 219.132 504.06 219.077C503.783 219.022 503.528 218.886 503.328 218.686C503.128 218.487 502.992 218.232 502.937 217.955C502.881 217.678 502.91 217.391 503.018 217.13C503.126 216.869 503.31 216.646 503.545 216.489C503.78 216.332 504.057 216.249 504.34 216.249C504.719 216.249 505.082 216.4 505.35 216.667C505.618 216.935 505.768 217.297 505.769 217.676V217.676Z" fill="#4EA454"/>
<path d="M465.104 226.557C465.104 226.84 465.02 227.116 464.863 227.35C464.706 227.585 464.482 227.768 464.221 227.876C463.96 227.984 463.672 228.012 463.395 227.957C463.118 227.902 462.863 227.766 462.663 227.566C462.463 227.367 462.327 227.112 462.272 226.835C462.217 226.559 462.245 226.272 462.354 226.011C462.462 225.75 462.645 225.527 462.88 225.37C463.115 225.213 463.392 225.13 463.675 225.13C464.054 225.13 464.417 225.28 464.685 225.548C464.953 225.816 465.104 226.179 465.104 226.557V226.557Z" fill="#4EA454"/>
<path d="M473.237 226.557C473.237 226.84 473.153 227.116 472.996 227.35C472.839 227.585 472.615 227.768 472.354 227.876C472.093 227.984 471.806 228.012 471.528 227.957C471.251 227.902 470.996 227.766 470.796 227.566C470.597 227.367 470.46 227.112 470.405 226.835C470.35 226.559 470.379 226.272 470.487 226.011C470.595 225.75 470.778 225.527 471.013 225.37C471.248 225.214 471.525 225.13 471.808 225.13C472.187 225.13 472.55 225.28 472.818 225.548C473.086 225.816 473.237 226.179 473.237 226.557V226.557Z" fill="#4EA454"/>
<path d="M481.37 226.557C481.37 226.84 481.286 227.116 481.129 227.351C480.972 227.585 480.748 227.768 480.487 227.876C480.226 227.984 479.938 228.013 479.661 227.957C479.383 227.902 479.129 227.766 478.929 227.566C478.729 227.367 478.593 227.112 478.538 226.835C478.483 226.558 478.511 226.271 478.619 226.01C478.728 225.75 478.911 225.527 479.146 225.37C479.382 225.213 479.658 225.13 479.941 225.13C480.129 225.13 480.314 225.167 480.488 225.239C480.661 225.31 480.819 225.416 480.952 225.548C481.084 225.681 481.189 225.838 481.261 226.011C481.333 226.184 481.37 226.37 481.37 226.557V226.557Z" fill="#4EA454"/>
<path d="M489.503 226.557C489.503 226.84 489.419 227.116 489.262 227.35C489.105 227.585 488.881 227.768 488.62 227.876C488.359 227.984 488.071 228.012 487.794 227.957C487.517 227.902 487.262 227.766 487.062 227.566C486.862 227.367 486.726 227.112 486.671 226.835C486.616 226.558 486.644 226.271 486.753 226.011C486.861 225.75 487.044 225.527 487.279 225.37C487.515 225.213 487.791 225.13 488.074 225.13C488.261 225.13 488.447 225.167 488.621 225.239C488.794 225.31 488.952 225.415 489.084 225.548C489.217 225.681 489.322 225.838 489.394 226.011C489.466 226.184 489.503 226.37 489.503 226.557Z" fill="#4EA454"/>
<path d="M497.637 226.557C497.637 226.84 497.553 227.116 497.396 227.35C497.239 227.585 497.015 227.768 496.754 227.876C496.493 227.984 496.205 228.012 495.928 227.957C495.651 227.902 495.396 227.766 495.196 227.567C494.996 227.367 494.86 227.113 494.805 226.836C494.75 226.559 494.778 226.272 494.886 226.011C494.994 225.75 495.177 225.527 495.413 225.371C495.648 225.214 495.924 225.13 496.207 225.13C496.586 225.13 496.95 225.28 497.218 225.548C497.486 225.816 497.637 226.179 497.637 226.557V226.557Z" fill="#4EA454"/>
<path d="M505.769 226.557C505.769 226.84 505.685 227.116 505.528 227.351C505.371 227.585 505.148 227.768 504.886 227.876C504.625 227.985 504.337 228.013 504.06 227.958C503.782 227.903 503.528 227.766 503.328 227.567C503.128 227.367 502.992 227.113 502.937 226.836C502.881 226.559 502.91 226.271 503.018 226.011C503.127 225.75 503.31 225.527 503.545 225.37C503.781 225.213 504.057 225.13 504.34 225.13C504.719 225.13 505.082 225.281 505.35 225.548C505.618 225.816 505.769 226.179 505.769 226.557V226.557Z" fill="#4EA454"/>
<path d="M465.104 235.439C465.104 235.721 465.02 235.997 464.863 236.232C464.706 236.467 464.483 236.65 464.221 236.758C463.96 236.866 463.673 236.894 463.395 236.839C463.118 236.784 462.863 236.648 462.663 236.448C462.463 236.249 462.327 235.994 462.272 235.717C462.217 235.44 462.245 235.153 462.354 234.893C462.462 234.632 462.645 234.409 462.88 234.252C463.115 234.095 463.392 234.012 463.675 234.012C463.862 234.012 464.048 234.049 464.222 234.12C464.395 234.192 464.553 234.297 464.685 234.43C464.818 234.562 464.923 234.72 464.995 234.893C465.067 235.066 465.104 235.251 465.104 235.439V235.439Z" fill="#4EA454"/>
<path d="M473.237 235.439C473.237 235.721 473.153 235.997 472.996 236.232C472.839 236.467 472.616 236.65 472.354 236.758C472.093 236.866 471.806 236.894 471.528 236.839C471.251 236.784 470.996 236.648 470.797 236.448C470.597 236.248 470.461 235.994 470.405 235.717C470.35 235.44 470.379 235.153 470.487 234.893C470.595 234.632 470.778 234.409 471.013 234.252C471.248 234.095 471.525 234.012 471.808 234.012C471.995 234.012 472.181 234.049 472.355 234.12C472.528 234.192 472.686 234.297 472.818 234.43C472.951 234.562 473.056 234.72 473.128 234.893C473.2 235.066 473.237 235.251 473.237 235.439V235.439Z" fill="#4EA454"/>
<path d="M481.37 235.439C481.37 235.721 481.286 235.997 481.129 236.232C480.972 236.467 480.748 236.65 480.487 236.758C480.226 236.866 479.938 236.894 479.661 236.839C479.384 236.784 479.129 236.648 478.929 236.448C478.729 236.249 478.593 235.994 478.538 235.717C478.483 235.44 478.511 235.153 478.619 234.892C478.728 234.631 478.911 234.409 479.146 234.252C479.382 234.095 479.658 234.012 479.941 234.012C480.129 234.012 480.315 234.049 480.488 234.12C480.661 234.192 480.819 234.297 480.952 234.43C481.084 234.562 481.19 234.72 481.261 234.893C481.333 235.066 481.37 235.252 481.37 235.439V235.439Z" fill="#4EA454"/>
<path d="M489.503 235.439C489.503 235.721 489.419 235.997 489.262 236.232C489.105 236.467 488.881 236.65 488.62 236.758C488.359 236.866 488.071 236.894 487.794 236.839C487.517 236.784 487.262 236.648 487.062 236.448C486.862 236.249 486.726 235.994 486.671 235.717C486.616 235.44 486.644 235.153 486.753 234.893C486.861 234.632 487.044 234.409 487.279 234.252C487.514 234.095 487.791 234.012 488.074 234.012C488.261 234.012 488.447 234.048 488.621 234.12C488.794 234.192 488.952 234.297 489.085 234.43C489.217 234.562 489.323 234.719 489.394 234.893C489.466 235.066 489.503 235.251 489.503 235.439V235.439Z" fill="#4EA454"/>
<path d="M497.637 235.439C497.637 235.721 497.553 235.997 497.396 236.232C497.239 236.467 497.015 236.65 496.754 236.758C496.493 236.866 496.206 236.894 495.928 236.839C495.651 236.784 495.396 236.648 495.196 236.449C494.996 236.249 494.86 235.995 494.805 235.718C494.75 235.441 494.778 235.154 494.886 234.893C494.994 234.632 495.177 234.409 495.412 234.252C495.648 234.096 495.924 234.012 496.207 234.012C496.394 234.012 496.58 234.048 496.754 234.12C496.927 234.192 497.085 234.297 497.218 234.429C497.351 234.562 497.456 234.719 497.528 234.893C497.6 235.066 497.637 235.251 497.637 235.439V235.439Z" fill="#4EA454"/>
<path d="M505.769 235.439C505.769 235.721 505.685 235.997 505.528 236.232C505.371 236.467 505.148 236.65 504.886 236.758C504.625 236.866 504.337 236.895 504.06 236.84C503.783 236.784 503.528 236.648 503.328 236.449C503.128 236.249 502.992 235.994 502.937 235.717C502.881 235.44 502.91 235.153 503.018 234.893C503.127 234.632 503.31 234.409 503.545 234.252C503.78 234.095 504.057 234.012 504.34 234.012C504.719 234.012 505.082 234.162 505.35 234.43C505.618 234.697 505.769 235.06 505.769 235.439V235.439Z" fill="#4EA454"/>
<path d="M342.727 427.132C342.727 427.132 331.851 372.647 341.755 376.331C351.66 380.016 353.019 422.092 348.552 428.102" fill="#4EA454"/>
<path d="M342.727 427.132C342.727 427.132 331.851 372.647 341.755 376.331C351.66 380.016 353.019 422.092 348.552 428.102" stroke="white" stroke-width="1.19242" stroke-miterlimit="10"/>
<path d="M341.671 429.139C341.671 429.139 339.735 406.891 329.078 408.051C318.42 409.213 333.922 427.397 336.634 429.139" fill="#4B8C4F"/>
<path d="M341.671 429.139C341.671 429.139 339.735 406.891 329.078 408.051C318.42 409.213 333.922 427.397 336.634 429.139" stroke="white" stroke-width="1.19242" stroke-linecap="round" stroke-linejoin="round"/>
<path d="M329.27 398.958C329.27 398.958 326.365 407.664 334.115 406.117C341.867 404.568 339.614 404.277 339.614 404.277" fill="#4B8C4F"/>
<path d="M329.27 398.958C329.27 398.958 326.365 407.664 334.115 406.117C341.867 404.568 339.614 404.277 339.614 404.277" stroke="white" stroke-width="1.19242" stroke-miterlimit="10"/>
<path d="M343.997 428.944C343.997 428.944 341.478 395.669 337.797 394.315C334.115 392.961 327.915 395.863 329.27 398.958C330.628 402.054 339.735 429.139 339.735 429.139" fill="#16631C"/>
<path d="M343.997 428.944C343.997 428.944 341.478 395.669 337.797 394.315C334.115 392.961 327.915 395.863 329.27 398.958C330.628 402.054 339.735 429.139 339.735 429.139" stroke="white" stroke-width="1.19242" stroke-linecap="round" stroke-linejoin="round"/>
<path d="M366.03 392.426C366.03 392.426 368.555 402.896 363.701 406.386C358.845 409.875 355.156 403.478 355.156 403.478L354.379 392.038" fill="#4B8C4F"/>
<path d="M366.03 392.426C366.03 392.426 368.555 402.896 363.701 406.386C358.845 409.875 355.156 403.478 355.156 403.478L354.379 392.038" stroke="white" stroke-width="1.19242" stroke-miterlimit="10"/>
<path d="M346.027 428.296C346.027 428.296 348.747 384.088 358.263 386.802C367.778 389.517 366.03 394.752 366.03 394.752C366.03 394.752 363.7 392.62 362.341 395.334C360.981 398.049 353.99 429.073 353.99 429.073" fill="#16631C"/>
<path d="M346.027 428.296C346.027 428.296 348.747 384.088 358.263 386.802C367.778 389.517 366.03 394.752 366.03 394.752C366.03 394.752 363.7 392.62 362.341 395.334C360.981 398.049 353.99 429.073 353.99 429.073" stroke="white" stroke-width="1.19242" stroke-linecap="round" stroke-linejoin="round"/>
<path d="M350.312 428.382C350.312 428.382 354.2 406.39 364.714 408.482C375.227 410.573 358.186 427.327 355.33 428.824" fill="#4B8C4F"/>
<path d="M350.312 428.382C350.312 428.382 354.2 406.39 364.714 408.482C375.227 410.573 358.186 427.327 355.33 428.824" stroke="white" stroke-width="1.19242" stroke-miterlimit="10"/>
<path d="M341.561 379.046C341.561 379.046 346.664 410.835 344.915 428.286" stroke="white" stroke-width="0.794946" stroke-linecap="round" stroke-linejoin="round"/>
<path d="M334.181 396.11C334.181 396.11 340.783 419.183 341.367 427.133" stroke="white" stroke-width="0.794946" stroke-linecap="round" stroke-linejoin="round"/>
<path d="M328.938 411.04C328.938 411.04 336.705 422.674 337.871 427.715" stroke="white" stroke-width="0.794946" stroke-linecap="round" stroke-linejoin="round"/>
<path d="M358.651 389.905C358.651 389.905 350.688 413.754 348.552 426.746" stroke="white" stroke-width="0.794946" stroke-linecap="round" stroke-linejoin="round"/>
<path d="M352.335 428.156L352.148 428.051C356.567 420.185 362.776 412.026 362.838 411.944L363.008 412.074C362.946 412.155 356.747 420.304 352.335 428.156Z" stroke="white" stroke-width="0.794946" stroke-linecap="round" stroke-linejoin="round"/>
<path d="M362.924 427.329H330.815V434.502H362.924V427.329Z" fill="#4EA454" stroke="white" stroke-width="1.19242" stroke-miterlimit="10"/>
<path d="M616.863 323.084V318.842H613.463C613.186 317.45 612.636 316.126 611.845 314.946L614.25 312.545L611.246 309.545L608.842 311.946C607.66 311.156 606.334 310.607 604.939 310.331V306.938H600.691V310.331C599.296 310.607 597.97 311.156 596.788 311.946L594.383 309.545L591.379 312.545L593.784 314.946C592.993 316.126 592.444 317.45 592.166 318.842H588.767V323.084H592.166C592.444 324.476 592.993 325.8 593.784 326.98L591.379 329.381L594.383 332.38L596.788 329.98C597.97 330.77 599.296 331.319 600.691 331.595V334.988H604.939V331.595C606.334 331.318 607.66 330.769 608.842 329.98L611.246 332.38L614.25 329.381L611.845 326.98C612.636 325.8 613.186 324.476 613.463 323.084H616.863ZM602.815 326.974C601.624 326.974 600.46 326.622 599.47 325.962C598.48 325.301 597.708 324.362 597.252 323.264C596.796 322.166 596.677 320.957 596.909 319.791C597.141 318.625 597.715 317.553 598.557 316.713C599.399 315.872 600.471 315.299 601.639 315.067C602.807 314.835 604.018 314.954 605.118 315.409C606.218 315.864 607.159 316.635 607.82 317.623C608.482 318.612 608.835 319.774 608.835 320.963C608.835 322.557 608.201 324.086 607.072 325.213C605.943 326.34 604.412 326.974 602.815 326.974V326.974Z" fill="#4B8C4F"/>
<path d="M480.275 211.539V208.565H477.89C477.696 207.588 477.311 206.66 476.756 205.833L478.442 204.15L476.336 202.046L474.65 203.729C473.822 203.175 472.891 202.79 471.913 202.597V200.217H468.935V202.597C467.957 202.791 467.026 203.175 466.198 203.729L464.512 202.046L462.406 204.15L464.092 205.833C463.537 206.66 463.152 207.588 462.958 208.565H460.574V211.539H462.958C463.152 212.516 463.537 213.444 464.092 214.271L462.406 215.954L464.512 218.058L466.198 216.375C467.026 216.928 467.957 217.313 468.935 217.507V219.887H471.913V217.507C472.891 217.313 473.821 216.928 474.65 216.375L476.336 218.058L478.442 215.954L476.756 214.271C477.311 213.444 477.696 212.516 477.89 211.539H480.275ZM470.424 214.267C469.589 214.267 468.773 214.02 468.079 213.557C467.385 213.094 466.843 212.436 466.524 211.665C466.204 210.895 466.12 210.048 466.283 209.23C466.446 208.412 466.848 207.661 467.439 207.072C468.029 206.482 468.781 206.081 469.6 205.918C470.419 205.755 471.268 205.839 472.039 206.158C472.811 206.477 473.47 207.017 473.934 207.71C474.398 208.403 474.646 209.218 474.646 210.052C474.646 211.17 474.201 212.242 473.409 213.032C472.618 213.823 471.544 214.267 470.424 214.267V214.267Z" fill="#4EA454"/>
<path d="M481.19 405.251C481.19 406.245 480.994 407.23 480.614 408.148C480.233 409.067 479.674 409.901 478.97 410.604C478.266 411.307 477.43 411.864 476.51 412.244C475.59 412.625 474.604 412.82 473.609 412.82H419.024C418.028 412.82 417.043 412.625 416.123 412.244C415.203 411.864 414.367 411.307 413.663 410.604C412.959 409.901 412.401 409.066 412.02 408.148C411.64 407.23 411.444 406.245 411.444 405.251V405.251C411.444 404.257 411.64 403.273 412.02 402.354C412.401 401.436 412.959 400.601 413.663 399.898C414.367 399.195 415.203 398.638 416.123 398.257C417.043 397.877 418.028 397.681 419.024 397.682H473.609C474.604 397.681 475.59 397.877 476.51 398.257C477.43 398.638 478.266 399.195 478.97 399.898C479.674 400.601 480.233 401.436 480.614 402.354C480.995 403.273 481.19 404.257 481.19 405.251Z" fill="white" stroke="white" stroke-width="1.19242" stroke-linecap="round" stroke-linejoin="round"/>
<path d="M481.19 361.652C481.19 362.646 480.994 363.631 480.614 364.549C480.233 365.468 479.674 366.302 478.97 367.005C478.266 367.708 477.43 368.266 476.51 368.646C475.59 369.026 474.604 369.222 473.609 369.221H419.024C418.028 369.222 417.043 369.026 416.123 368.646C415.203 368.265 414.367 367.708 413.663 367.005C412.959 366.302 412.401 365.467 412.02 364.549C411.64 363.631 411.444 362.646 411.444 361.652V361.652C411.444 360.658 411.64 359.674 412.02 358.756C412.401 357.837 412.959 357.003 413.663 356.3C414.367 355.597 415.203 355.04 416.123 354.659C417.043 354.279 418.028 354.084 419.024 354.084H473.609C474.604 354.084 475.59 354.279 476.51 354.659C477.43 355.039 478.266 355.597 478.97 356.3C479.674 357.003 480.233 357.837 480.614 358.755C480.995 359.674 481.19 360.658 481.19 361.652V361.652Z" fill="white" stroke="white" stroke-width="1.19242" stroke-linecap="round" stroke-linejoin="round"/>
<path d="M448.19 363.977C448.19 364.455 448.096 364.927 447.913 365.368C447.73 365.809 447.462 366.21 447.124 366.547C446.786 366.885 446.385 367.153 445.943 367.335C445.502 367.518 445.028 367.612 444.55 367.612H418.344C417.866 367.612 417.393 367.518 416.951 367.335C416.51 367.153 416.108 366.885 415.77 366.548C415.432 366.21 415.164 365.809 414.981 365.368C414.799 364.927 414.705 364.455 414.705 363.977V363.977C414.705 363.5 414.799 363.027 414.982 362.587C415.164 362.146 415.433 361.745 415.771 361.408C416.108 361.07 416.51 360.802 416.951 360.62C417.393 360.437 417.866 360.344 418.344 360.344H444.55C445.028 360.344 445.501 360.437 445.943 360.62C446.385 360.803 446.786 361.07 447.124 361.408C447.462 361.745 447.73 362.146 447.913 362.587C448.096 363.027 448.19 363.5 448.19 363.977V363.977Z" fill="#4B8C4F"/>
<path d="M449.443 407.088C449.444 407.565 449.35 408.038 449.167 408.479C448.984 408.92 448.716 409.32 448.378 409.658C448.04 409.995 447.638 410.263 447.197 410.446C446.755 410.628 446.282 410.722 445.804 410.722H419.598C419.12 410.722 418.646 410.628 418.205 410.446C417.763 410.263 417.362 409.995 417.024 409.658C416.686 409.32 416.418 408.92 416.235 408.479C416.052 408.038 415.958 407.565 415.958 407.088V407.088C415.958 406.61 416.052 406.138 416.235 405.697C416.418 405.256 416.686 404.855 417.024 404.518C417.362 404.18 417.763 403.913 418.205 403.73C418.646 403.548 419.12 403.454 419.598 403.454H445.804C446.282 403.454 446.755 403.548 447.197 403.73C447.638 403.913 448.04 404.18 448.378 404.518C448.716 404.855 448.984 405.256 449.167 405.697C449.349 406.138 449.443 406.61 449.443 407.088Z" fill="#4B8C4F"/>
<path d="M637.168 379.024C637.168 379.024 712.459 384.55 752.143 360.41" stroke="white" stroke-width="1.98736" stroke-linecap="round" stroke-linejoin="round"/>
<path d="M596.357 411.341L600.657 420.463L592.012 422.923L588.025 413.666" fill="white"/>
<path d="M596.357 411.341L600.657 420.463L592.012 422.923L588.025 413.666" stroke="white" stroke-width="1.19242" stroke-linecap="round" stroke-linejoin="round"/>
<path d="M542.339 417.109L544.757 426.724L536.247 428.915L535.889 417.869" fill="white"/>
<path d="M542.339 417.109L544.757 426.724L536.247 428.915L535.889 417.869" stroke="white" stroke-width="1.19242" stroke-linecap="round" stroke-linejoin="round"/>
<path d="M551.24 302.825C551.24 302.825 562.856 309.808 566.129 319.609C569.4 329.409 572.837 372.369 578.235 379.536C583.634 386.703 601.239 410.134 601.239 410.134L587.756 417.87C587.756 417.87 567.601 390.377 562.856 382.414C558.112 374.452 550.259 338.516 550.259 338.516C550.259 338.516 540.116 366.321 539.625 377.755C539.134 389.189 547.31 420.017 547.31 420.017L533.738 420.419C533.738 420.419 525.228 391.435 524.409 376.448C523.592 361.462 534.062 317.361 534.062 317.361" fill="#2E6B32"/>
<path d="M507.371 327.93C509.784 320.347 510.95 311.499 508.786 302.253C502.651 276.036 495.044 288.532 495.044 295.638C495.044 295.638 497.565 310.477 496.21 325.409C498.229 326.851 501.708 328.303 507.371 327.93Z" fill="#4B8C4F" stroke="white" stroke-width="1.19242" stroke-linecap="round" stroke-linejoin="round"/>
<path d="M496.209 325.409C495.368 334.672 493.036 343.971 487.681 349.786L494.307 351.501C494.307 351.501 502.942 341.849 507.371 327.93C501.707 328.303 498.229 326.851 496.209 325.409Z" fill="white" stroke="white" stroke-width="1.19242" stroke-linecap="round" stroke-linejoin="round"/>
<path d="M493.57 295.393C493.57 295.393 496.024 281.181 510.994 283.142C525.963 285.102 551.24 302.743 551.24 302.743C551.24 302.743 542.406 320.875 535.044 321.12C527.681 321.364 493.57 306.909 493.57 296.373" fill="#2E6B32"/>
<path d="M488.663 350.398L485.84 355.422L479.951 360.322L493.08 361.18L491.852 357.259L493.326 351.379" fill="#4B8C4F"/>
<path d="M488.663 350.398L485.84 355.422L479.951 360.322L493.08 361.18L491.852 357.259L493.326 351.379" stroke="white" stroke-width="1.19242" stroke-linecap="round" stroke-linejoin="round"/>
<path d="M510.38 308.806C510.38 308.806 504.123 298.496 506.578 292.452C509.031 286.409 511.373 286.011 511.373 286.011C511.373 286.011 500.565 281.427 498.355 290.614C496.147 299.803 504.061 306.051 504.061 306.051L510.38 308.806Z" fill="#4B8C4F"/>
<path d="M513.081 306.46C513.081 306.46 503.878 286.899 519.011 288.369C531.635 289.595 538.732 302.721 536.605 306.07C534.478 309.418 513.081 306.46 513.081 306.46Z" fill="#4B8C4F"/>
<path d="M593.232 429.948L594.005 428.581L603.457 426.385L604.701 428.868C604.701 428.868 577.481 436.523 576.662 434.546C576.399 433.914 576.183 433.555 576.18 433.216L593.232 429.948Z" fill="#4B8C4F" stroke="white" stroke-width="1.19242" stroke-linecap="round" stroke-linejoin="round"/>
<path d="M593.232 429.948L576.18 433.216C576.172 432.494 574.845 431.932 578.426 428.984C580.368 427.385 584.888 426.577 586.308 425.095C587.79 423.527 588.953 421.687 589.734 419.677C589.734 419.677 594.137 423.553 596.057 422.372C597.978 421.19 600.276 420.031 600.276 420.031L603.457 426.385L594.004 428.581L593.232 429.948Z" fill="#4B8C4F" stroke="white" stroke-width="1.19242" stroke-linecap="round" stroke-linejoin="round"/>
<path d="M536.551 433.501L537.566 432.303L547.264 431.925L548.017 434.598C548.017 434.598 519.84 436.995 519.407 434.898C519.27 434.23 519.125 433.835 519.185 433.502L536.551 433.501Z" fill="#4B8C4F" stroke="white" stroke-width="1.19242" stroke-linecap="round" stroke-linejoin="round"/>
<path d="M536.551 433.5L519.186 433.501C519.314 432.791 518.119 431.989 522.191 429.767C524.4 428.563 528.992 428.619 530.666 427.432C532.417 426.171 533.907 424.582 535.052 422.755C535.052 422.755 538.646 427.39 540.755 426.592C542.864 425.793 545.339 425.085 545.339 425.085L547.264 431.925L537.566 432.303L536.551 433.5Z" fill="#4B8C4F" stroke="white" stroke-width="1.19242" stroke-linecap="round" stroke-linejoin="round"/>
<path d="M497.374 288.042L503.326 288.287C503.326 288.287 505.426 290.892 504.981 293.708C504.552 296.434 502.804 297.904 500.932 298.118C499.061 298.332 497.865 294.228 497.865 294.228" fill="white"/>
<path d="M497.374 288.042L503.326 288.287C503.326 288.287 505.426 290.892 504.981 293.708C504.552 296.434 502.804 297.904 500.932 298.118C499.061 298.332 497.865 294.228 497.865 294.228" stroke="white" stroke-width="1.19242" stroke-linecap="round" stroke-linejoin="round"/>
<path d="M486.454 294.085C486.454 294.085 493.98 309.113 497.252 304.866C500.524 300.619 499.46 288.532 499.46 288.532C499.46 288.532 492.998 287.552 486.454 294.085Z" fill="white" stroke="white" stroke-width="1.19242" stroke-linecap="round" stroke-linejoin="round"/>
<path d="M494.716 292.942L497.252 294.29C497.252 294.29 496.679 292.86 497.538 292.493C498.398 292.125 500.155 293.187 499.706 294.984L501.424 292.289L499.42 287.185" fill="#2E6B32"/>
<path d="M499.706 287.225C499.706 287.225 499.297 279.834 492.057 280.814C487.842 281.384 479.255 288.696 485.636 295.066C485.636 295.066 495.943 297.189 499.706 287.225Z" fill="#2E6B32"/>
<path d="M530.136 320.221C530.136 320.221 551.896 314.994 550.832 302.825L555.494 306.174C555.494 306.174 553.982 313.06 549.125 316.847C544.656 320.332 538.576 322.214 533.49 321.936L530.136 320.221Z" fill="white" stroke="white" stroke-width="1.19242" stroke-linecap="round" stroke-linejoin="round"/>
<path d="M493.362 321.317L492.073 327.81L509.445 331.248L510.734 324.756L493.362 321.317Z" fill="#4B8C4F" stroke="white" stroke-width="1.19242" stroke-linecap="round" stroke-linejoin="round"/>
<path d="M467.953 327.689C464.709 327.665 461.487 328.234 458.448 329.368C458.406 329.367 458.364 329.362 458.322 329.362C456.466 329.362 454.688 330.514 453.045 332.618C451.574 333.992 450.604 335.582 450.289 337.294C446.012 346.522 443.167 362.899 443.167 381.569C443.167 410.401 449.952 433.774 458.322 433.774C459.109 433.774 465.344 434.129 467.953 434.129C477.772 434.129 485.734 429.286 485.734 423.314V338.505C485.734 332.532 477.772 327.689 467.953 327.689Z" fill="white" stroke="white" stroke-width="1.19242" stroke-linecap="round" stroke-linejoin="round"/>
<path d="M493.688 381.568C493.688 410.4 486.902 433.773 478.532 433.773C470.161 433.773 463.375 410.4 463.375 381.568C463.375 352.735 470.161 329.361 478.532 329.361C486.902 329.361 493.688 352.735 493.688 381.568Z" fill="#4B8C4F" stroke="white" stroke-width="1.19242" stroke-miterlimit="10"/>
<path d="M561.451 381.077C561.451 378.026 562.666 375.099 564.827 372.942C566.988 370.784 569.92 369.572 572.976 369.572H627.56C630.616 369.572 633.547 370.784 635.708 372.942C637.87 375.099 639.084 378.026 639.084 381.077C639.084 384.129 637.87 387.055 635.708 389.213C633.547 391.37 630.616 392.582 627.56 392.582H572.976C569.919 392.582 566.988 391.37 564.827 389.213C562.666 387.055 561.451 384.129 561.451 381.077V381.077Z" fill="white" stroke="white" stroke-width="1.19242" stroke-linecap="round" stroke-linejoin="round"/>
<path d="M632.119 372.269C631.934 374.77 630.809 377.108 628.97 378.816C627.13 380.523 624.711 381.472 622.199 381.473H575.044C573.053 381.476 571.107 380.88 569.46 379.762C569.441 380.005 569.422 380.248 569.422 380.496C569.422 383.133 570.471 385.661 572.338 387.525C574.206 389.389 576.738 390.436 579.379 390.436H626.534C628.664 390.437 630.738 389.755 632.452 388.491C634.165 387.226 635.427 385.447 636.052 383.414C636.677 381.38 636.632 379.2 635.924 377.194C635.216 375.188 633.882 373.462 632.119 372.269V372.269Z" fill="#4B8C4F"/>
<path d="M537.191 376.838C537.191 374.015 537.747 371.219 538.829 368.611C539.911 366.003 541.497 363.633 543.497 361.636C545.496 359.64 547.87 358.056 550.482 356.976C553.095 355.896 555.895 355.34 558.722 355.34V355.34C561.55 355.34 564.35 355.896 566.962 356.976C569.575 358.056 571.948 359.64 573.948 361.636C575.947 363.632 577.533 366.002 578.615 368.611C579.696 371.219 580.253 374.015 580.252 376.838V385.314C580.253 388.137 579.697 390.933 578.615 393.541C577.533 396.15 575.947 398.52 573.948 400.516C571.948 402.513 569.575 404.096 566.962 405.177C564.35 406.257 561.55 406.813 558.722 406.812V406.812C555.895 406.813 553.095 406.257 550.482 405.176C547.87 404.096 545.496 402.513 543.496 400.516C541.497 398.52 539.911 396.15 538.829 393.541C537.747 390.933 537.191 388.137 537.191 385.314V376.838Z" fill="white" stroke="white" stroke-width="1.19242" stroke-linecap="round" stroke-linejoin="round"/>
<path d="M567.681 393.575C565.128 393.576 562.601 393.074 560.243 392.099C557.884 391.124 555.742 389.694 553.937 387.892C552.132 386.09 550.7 383.951 549.724 381.596C548.747 379.242 548.245 376.718 548.245 374.169V366.518C548.242 363.934 548.757 361.376 549.761 358.994C546.795 360.693 544.331 363.143 542.617 366.098C540.904 369.052 540.002 372.406 540.003 375.82V383.472C540.004 387.952 541.557 392.295 544.4 395.762C547.242 399.229 551.199 401.608 555.598 402.494C559.997 403.38 564.568 402.719 568.534 400.624C572.501 398.528 575.619 395.127 577.36 390.997C574.416 392.69 571.078 393.579 567.681 393.575V393.575Z" fill="#4B8C4F"/>
<path d="M534.16 340.505H491.098C487.67 340.502 484.281 341.228 481.156 342.633C473.002 360.18 469.24 399.355 481.158 419.519C484.283 420.924 487.671 421.649 491.098 421.647H534.16C537.345 421.647 540.5 421.021 543.443 419.804C546.387 418.587 549.061 416.803 551.314 414.554C553.567 412.305 555.354 409.634 556.573 406.696C557.792 403.757 558.42 400.607 558.42 397.427V364.726C558.42 361.545 557.792 358.395 556.573 355.457C555.354 352.518 553.567 349.848 551.314 347.599C549.061 345.349 546.387 343.565 543.443 342.348C540.5 341.131 537.345 340.505 534.16 340.505V340.505Z" fill="white" stroke="white" stroke-width="1.19242" stroke-linecap="round" stroke-linejoin="round"/>
<path d="M549.518 406.444H510.821C507.741 406.446 504.696 405.795 501.888 404.532C492.995 389.486 493.822 362.672 498.55 344.975H492.546C489.466 344.973 486.42 345.625 483.611 346.887C476.284 362.656 472.903 397.861 483.613 415.982C486.421 417.244 489.466 417.895 492.546 417.893H531.243C535.186 417.894 539.054 416.828 542.438 414.808C545.821 412.787 548.592 409.889 550.456 406.42C550.144 406.434 549.833 406.444 549.518 406.444Z" fill="#4B8C4F"/>
<path d="M524.896 325.227C525.846 319.583 526.222 306.97 524.386 300.783C519.349 283.81 511.898 294.304 511.898 300.573C511.898 300.573 512.727 312.495 512.173 325.713C516.418 326.052 520.689 325.889 524.896 325.227V325.227Z" fill="#4B8C4F" stroke="white" stroke-width="1.19242" stroke-linecap="round" stroke-linejoin="round"/>
<path d="M512.173 325.712C511.726 336.4 510.341 349.096 504.087 355.887L508.835 357.229C508.835 357.229 521.88 343.132 524.896 325.227C520.689 325.889 516.418 326.052 512.173 325.712V325.712Z" fill="white" stroke="white" stroke-width="1.19242" stroke-linecap="round" stroke-linejoin="round"/>
<path d="M527.109 324.494H509.192V332.007H527.109V324.494Z" fill="#4B8C4F" stroke="white" stroke-width="1.19242" stroke-linecap="round" stroke-linejoin="round"/>
<path d="M509.78 355.7L504.631 353.702C504.362 353.746 504.099 353.824 503.85 353.934C503.466 354.11 503.605 355.36 503.605 355.36C503.605 355.36 500.502 357.544 499.036 359.892C497.57 362.241 494.55 363.905 495.745 364.431C496.941 364.958 497.89 362.809 498.383 363.311C498.629 363.562 497.914 365.59 496.78 367.39C495.645 369.19 494.094 370.76 495.009 370.95C496.84 371.329 500.307 365.492 500.307 365.492C500.307 365.492 499.612 367.546 498.745 369.637C497.817 371.882 496.746 374.189 497.818 374.609C498.743 374.972 499.573 372.899 500.665 370.942C501.397 369.66 502.202 368.421 503.076 367.231C503.076 367.231 500.747 374.211 501.78 373.811C502.813 373.411 504.748 367.152 505.18 367.331C505.613 367.51 504.416 371.956 505.171 371.861C505.928 371.765 508.253 364.237 508.253 364.237C508.253 364.237 510.231 360.072 509.401 357.425C509.401 357.425 510.664 356.422 509.78 355.7Z" fill="#2E6B32"/>
<path d="M566.554 313.785C566.744 314.082 566.874 314.413 566.936 314.76C566.998 315.107 566.991 315.463 566.916 315.807C566.84 316.151 566.697 316.477 566.495 316.766C566.294 317.055 566.037 317.302 565.74 317.492L559.629 321.398C559.332 321.588 559 321.718 558.652 321.78C558.305 321.842 557.949 321.835 557.604 321.759C557.259 321.684 556.932 321.541 556.643 321.34C556.353 321.138 556.106 320.882 555.916 320.585L547.947 308.156C547.756 307.86 547.627 307.528 547.564 307.182C547.502 306.835 547.509 306.479 547.585 306.135C547.66 305.791 547.803 305.465 548.005 305.176C548.207 304.886 548.464 304.64 548.761 304.45L554.872 300.544C555.169 300.354 555.501 300.224 555.848 300.162C556.196 300.1 556.552 300.107 556.897 300.182C557.241 300.258 557.568 300.4 557.857 300.602C558.147 300.803 558.394 301.06 558.584 301.357L566.554 313.785Z" fill="#4B8C4F" stroke="white" stroke-width="1.19242" stroke-linecap="round" stroke-linejoin="round"/>
<path d="M551.019 312.326C551.019 312.326 558.722 312.022 561.978 306.276Z" fill="#4B8C4F"/>
<path d="M551.019 312.326C551.019 312.326 558.722 312.022 561.978 306.276" stroke="white" stroke-width="1.19242" stroke-linecap="round" stroke-linejoin="round"/>
<path d="M547.787 265.755C547.787 266.869 547.567 267.973 547.14 269.003C546.712 270.032 546.086 270.968 545.297 271.756C544.508 272.544 543.571 273.169 542.539 273.595C541.508 274.022 540.403 274.241 539.287 274.241H510.954C508.699 274.241 506.538 273.347 504.944 271.756C503.35 270.164 502.454 268.006 502.454 265.755V265.755C502.454 263.504 503.35 261.346 504.944 259.754C506.538 258.163 508.699 257.269 510.954 257.269H539.287C540.403 257.269 541.508 257.488 542.539 257.914C543.571 258.341 544.508 258.966 545.297 259.754C546.086 260.542 546.712 261.478 547.14 262.507C547.567 263.537 547.787 264.64 547.787 265.755V265.755Z" fill="#2E6B32"/>
<path d="M512.528 265.755H502.454V274.206H512.528V265.755Z" fill="#2E6B32"/>
<path d="M226.945 250.72H185.735C178.907 250.72 173.372 257.018 173.372 264.786C173.372 272.554 178.907 278.851 185.735 278.851H226.945C227.313 278.851 227.676 278.829 228.036 278.794H239.307V264.786C239.307 257.018 233.772 250.72 226.945 250.72Z" fill="#4EA454"/>
<path d="M518.194 265.475C518.194 265.724 518.121 265.967 517.982 266.174C517.844 266.38 517.647 266.542 517.417 266.637C517.187 266.732 516.934 266.757 516.689 266.708C516.445 266.66 516.221 266.54 516.045 266.364C515.868 266.188 515.749 265.964 515.7 265.72C515.651 265.476 515.676 265.224 515.772 264.994C515.867 264.764 516.028 264.568 516.236 264.43C516.443 264.291 516.686 264.218 516.935 264.218C517.101 264.218 517.264 264.25 517.417 264.313C517.57 264.377 517.709 264.469 517.826 264.586C517.943 264.703 518.035 264.841 518.099 264.994C518.162 265.146 518.194 265.31 518.194 265.475V265.475Z" fill="white"/>
<path d="M526.379 265.475C526.379 265.724 526.306 265.967 526.167 266.174C526.029 266.38 525.832 266.542 525.602 266.637C525.372 266.732 525.119 266.757 524.874 266.708C524.63 266.66 524.406 266.54 524.23 266.364C524.054 266.188 523.934 265.964 523.885 265.72C523.836 265.476 523.861 265.224 523.957 264.994C524.052 264.764 524.214 264.568 524.421 264.43C524.628 264.291 524.871 264.218 525.12 264.218C525.286 264.218 525.449 264.25 525.602 264.313C525.755 264.377 525.894 264.469 526.011 264.586C526.128 264.703 526.22 264.841 526.284 264.994C526.347 265.146 526.379 265.31 526.379 265.475Z" fill="white"/>
<path d="M534.564 265.475C534.564 265.724 534.49 265.967 534.352 266.174C534.214 266.38 534.017 266.541 533.787 266.637C533.557 266.732 533.304 266.756 533.059 266.708C532.815 266.659 532.591 266.54 532.415 266.364C532.238 266.188 532.119 265.964 532.07 265.72C532.021 265.476 532.047 265.223 532.142 264.994C532.237 264.764 532.399 264.568 532.606 264.43C532.813 264.291 533.056 264.218 533.305 264.218C533.471 264.218 533.634 264.25 533.787 264.314C533.94 264.377 534.079 264.469 534.196 264.586C534.313 264.703 534.405 264.841 534.469 264.994C534.532 265.147 534.564 265.31 534.564 265.475V265.475Z" fill="white"/>
<path d="M195.104 267.398H193.634L193.022 271.134H191.206L191.818 267.398H189.791V265.73H192.091L192.493 263.323H190.475V261.656H192.767L193.397 257.864H195.204L194.584 261.656H196.053L196.683 257.864H198.5L197.87 261.656H199.979V263.323H197.596L197.194 265.73H199.285V267.398H196.921L196.309 271.134H194.492L195.104 267.398ZM193.908 265.73H195.378L195.779 263.323H194.31L193.908 265.73Z" fill="white"/>
<path d="M207.696 267.398H206.227L205.615 271.134H203.798L204.41 267.398H202.383V265.73H204.684L205.085 263.323H203.068V261.656H205.359L205.989 257.864H207.797L207.176 261.656H208.646L209.276 257.864H211.092L210.462 261.656H212.571V263.323H210.188L209.787 265.73H211.877V267.398H209.513L208.901 271.134H207.085L207.696 267.398ZM206.5 265.73H207.97L208.372 263.323H206.902L206.5 265.73Z" fill="white"/>
<path d="M220.289 267.398H218.819L218.207 271.134H216.391L217.002 267.398H214.976V265.73H217.276L217.678 263.323H215.66V261.656H217.952L218.581 257.864H220.389L219.768 261.656H221.238L221.868 257.864H223.685L223.055 261.656H225.164V263.323H222.781L222.379 265.73H224.47V267.398H222.105L221.493 271.134H219.677L220.289 267.398ZM219.092 265.73H220.562L220.964 263.323H219.494L219.092 265.73Z" fill="white"/>
</svg>
