<svg width="508" height="508" viewBox="0 0 508 508" fill="none" xmlns="http://www.w3.org/2000/svg">
<path d="M448.242 258.425C463.059 242.539 476.968 221.115 469.397 201.023C461.808 180.878 436.913 173.161 415.079 169.309C393.244 165.458 368.475 161.198 356.383 143.223C344.175 125.08 350.005 99.6299 338.01 81.3541C325.273 61.9485 298.145 58.1019 274.44 56.1634C238.293 53.2068 201.07 50.3539 166.435 60.778C131.802 71.2032 99.9576 98.2705 96.0166 133.101C92.0105 168.506 116.741 204.407 105.864 238.439C94.5755 273.759 48.6277 293.242 44.051 329.942C41.655 349.154 51.6615 367.555 61.3492 384.493C73.744 406.165 86.1388 429.207 98.5344 450.878H406.292C401.867 444.85 406.247 436.174 412.422 431.812C418.597 427.45 426.331 425.421 432.267 420.758C447.984 408.412 444.437 384.168 435.577 366.573C426.715 348.977 413.684 331.773 414.758 312.232C415.93 290.883 433.427 274.311 448.242 258.425Z" fill="#EDFFF5"/>
<path d="M69.2826 273.308C102.483 241.338 99.9507 224.325 93.1352 181.73C89.8097 160.946 63.3795 181.315 53.9489 212.825C44.0537 245.886 51.6173 290.319 69.2826 273.308Z" fill="#EDFFF4"/>
<path d="M177.471 434.846C173.08 442.655 112.517 459.36 112.066 436.353C111.688 416.977 155.721 422.747 171.876 429.547C167.059 424.837 162.443 419.973 158.019 415.136C153.784 410.503 149.713 405.738 145.802 400.851C136.298 406.909 77.9566 408.37 82.6266 386.653C86.3616 369.275 121.612 381.053 138.356 391.087C132.469 383.07 126.99 374.766 121.902 366.223C114.892 372.268 52.7308 370.173 59.0966 348.171C64.416 329.788 103.82 347.67 117.716 358.988C112.513 349.719 107.746 340.2 103.424 330.477C94.565 335.149 34.721 324.946 43.7991 304.21C51.308 287.056 86.6319 308.584 99.6744 321.73C97.4062 316.239 95.281 310.69 93.2787 305.098C83.9447 301.29 53.0019 249.208 74.6541 242.683C95.1115 236.517 100.701 290.574 96.4069 302.86C98.652 309.184 101.085 315.441 103.678 321.622C104.439 304.352 118.763 260.692 136.065 270.334C155.55 281.195 116.617 326.093 106.563 328.345C110.82 337.925 115.527 347.29 120.649 356.423C119.62 338.402 128.149 295.403 146.15 302.541C166.609 310.656 135.012 359.044 124.873 363.735C131.052 374.11 137.806 384.139 145.156 393.753C141.656 378.596 146.617 328.808 166.283 335.057C187.956 341.947 157.186 395.616 148.416 397.972C152.428 403.035 156.598 407.984 160.948 412.794C164.846 417.104 168.923 421.432 173.173 425.641C166.91 408.506 162.482 365.485 181.665 366.952C203.595 368.631 187.812 424.15 179.516 431.692C187.426 438.957 195.895 445.64 204.929 450.966C207.009 452.192 204.767 455.201 202.703 453.985C193.712 448.681 185.329 442.049 177.471 434.846Z" fill="#16774B"/>
<path d="M269.988 453.43C272.126 439.446 275.056 425.588 278.763 411.936C282.462 398.314 286.949 384.906 292.157 371.787C297.375 358.638 303.325 345.779 309.967 333.29C316.597 320.825 323.914 308.733 331.902 297.092C339.867 285.483 348.481 274.32 357.704 263.683C358.873 262.334 360.053 260.996 361.242 259.663C362.794 257.923 360.006 255.618 358.46 257.352C348.955 268.006 340.063 279.203 331.837 290.874C323.633 302.512 316.08 314.614 309.219 327.091C302.371 339.544 296.218 352.38 290.795 365.519C285.336 378.744 280.634 392.277 276.683 406.029C272.758 419.687 269.604 433.566 267.259 447.582C266.965 449.343 266.684 451.105 266.413 452.87C266.063 455.167 269.634 455.738 269.988 453.43Z" fill="#0A9A59"/>
<path d="M327.494 304.086C324.84 276.448 332.156 235.504 332.812 208.291C333.537 178.262 337.732 145.979 363.117 128.571C369.739 124.03 378.185 120.644 387.551 121.898C400.71 123.659 412.2 134.418 416.663 145.5C421.124 156.582 419.947 167.865 417.821 178.438C407.434 230.079 375.052 275.124 327.494 304.086Z" fill="#16774B"/>
<path d="M287.59 379.002C269.366 359.897 251.043 325.063 235.621 304.354C218.604 281.5 202.943 254.948 212.329 227.205C214.777 219.968 219.308 212.535 227.264 208.033C238.442 201.708 253.6 203.076 263.526 208.765C273.452 214.453 279.149 223.564 283.699 232.697C305.916 277.306 307.311 329.756 287.59 379.002Z" fill="#16774B"/>
<path d="M273.685 419.205C288.031 392.878 318.987 357.968 335.934 333.236C354.634 305.946 377.686 277.847 410.073 271.101C418.521 269.341 427.848 269.304 435.177 273.859C445.473 280.258 448.914 294.307 446.093 306.096C443.273 317.888 435.467 327.812 427.268 336.742C387.219 380.353 332.161 409.915 273.685 419.205Z" fill="#EDFFF4"/>
<path d="M262.994 454.827C280.292 450.074 297.074 441.097 312.483 431.293C313.158 431.748 314.139 432.375 315.391 433.075C317.94 434.53 321.608 436.34 326.02 437.989C330.429 439.634 335.597 441.145 341.136 442.22C346.693 443.306 352.623 443.941 358.564 444.166C364.517 444.341 370.475 444.098 376.084 443.37C378.9 443.017 381.601 442.551 384.185 442.005C386.754 441.464 389.185 440.786 391.453 440.128C393.706 439.446 395.765 438.719 397.625 437.993C399.458 437.258 401.056 436.55 402.374 435.902C405.027 434.611 406.553 433.602 406.553 433.602C406.553 433.602 405.095 432.486 402.544 431.04C401.26 430.298 399.698 429.487 397.914 428.637C396.132 427.795 394.105 426.95 391.906 426.105C389.697 425.306 387.311 424.463 384.769 423.769C382.225 423.057 379.557 422.41 376.778 421.876C371.232 420.783 365.299 420.163 359.352 419.96C353.405 419.804 347.434 420.046 341.834 420.781C336.224 421.479 330.982 422.663 326.465 424.024C324.253 424.691 322.221 425.412 320.405 426.127C321.555 425.345 322.706 424.572 323.85 423.789C334.889 416.266 345.407 408.088 355.497 399.44C356.023 399.759 356.633 400.115 357.34 400.52C359.898 401.982 363.571 403.788 367.981 405.428C372.39 407.079 377.548 408.591 383.1 409.666C388.633 410.757 394.583 411.389 400.527 411.612C406.477 411.795 412.438 411.56 418.035 410.819C420.843 410.467 423.555 410.003 426.138 409.451C428.708 408.918 431.15 408.237 433.408 407.575C435.671 406.894 437.722 406.166 439.572 405.449C441.399 404.712 443.01 404.001 444.333 403.351C446.982 402.064 448.508 401.054 448.508 401.054C448.508 401.054 447.047 399.934 444.507 398.49C443.209 397.751 441.649 396.932 439.877 396.088C438.088 395.246 436.069 394.394 433.855 393.554C431.656 392.749 429.269 391.921 426.728 391.213C424.189 390.5 421.508 389.867 418.734 389.328C413.189 388.243 407.251 387.616 401.311 387.417C395.359 387.255 389.394 387.492 383.795 388.222C378.188 388.942 372.932 390.11 368.422 391.475C366.06 392.189 363.908 392.96 361.994 393.703C371.654 385.029 380.874 375.889 389.658 366.323C390.292 366.48 391.012 366.659 391.846 366.838C394.738 367.44 398.781 368.056 403.479 368.291C408.182 368.531 413.561 368.412 419.173 367.747C424.785 367.11 430.636 365.923 436.371 364.327C442.103 362.704 447.71 360.671 452.83 358.273C455.396 357.091 457.84 355.834 460.127 354.522C462.424 353.234 464.542 351.853 466.492 350.539C468.427 349.189 470.189 347.885 471.721 346.637C473.247 345.38 474.58 344.223 475.625 343.2C477.762 341.182 478.908 339.744 478.908 339.744C478.908 339.744 477.186 339.125 474.309 338.51C472.864 338.203 471.144 337.902 469.173 337.634C467.217 337.368 465.042 337.166 462.683 337.029C460.335 336.942 457.799 336.866 455.174 336.966C452.542 337.056 449.795 337.255 446.981 337.575C441.373 338.224 435.524 339.421 429.8 341.031C424.073 342.669 418.477 344.707 413.348 347.109C408.316 349.431 403.773 352.085 399.937 354.686C407.02 346.387 413.809 337.826 420.308 329.037C422.631 327.581 425.441 325.621 428.438 323.133C432.058 320.104 435.92 316.369 439.595 312.078C443.305 307.796 446.783 302.96 449.914 297.896C453.023 292.827 455.767 287.528 457.91 282.286C458.989 279.677 459.924 277.094 460.729 274.586C461.533 272.089 462.147 269.623 462.702 267.335C463.221 265.036 463.612 262.876 463.893 260.922C464.17 258.962 464.355 257.227 464.433 255.748C464.642 252.816 464.497 250.984 464.497 250.984C464.497 250.984 462.816 251.697 460.287 253.199C459.007 253.95 457.537 254.894 455.919 256.034C454.302 257.163 452.547 258.497 450.74 260.003C448.943 261.525 447.037 263.18 445.17 265.042C443.299 266.892 441.417 268.901 439.582 271.041C435.884 275.318 432.408 280.172 429.275 285.237C426.204 290.322 423.464 295.632 421.316 300.86C419.156 306.093 417.582 311.227 416.531 315.82C415.48 320.409 414.969 324.462 414.773 327.403C414.706 328.401 414.682 329.252 414.671 329.971C404.143 343.988 392.831 357.441 380.731 370.103C381.733 367.53 382.846 364.213 383.792 360.366C384.908 355.788 385.797 350.484 386.217 344.849C386.646 339.209 386.568 333.245 386.095 327.319C385.572 321.387 384.637 315.499 383.244 310.022C382.555 307.264 381.786 304.626 380.934 302.133C380.095 299.642 379.141 297.301 378.222 295.134C377.261 292.978 376.303 291.014 375.369 289.27C374.422 287.53 373.532 286.02 372.725 284.777C371.148 282.303 369.965 280.917 369.965 280.917C369.965 280.917 369.022 282.486 367.887 285.193C367.297 286.557 366.679 288.197 366.041 290.07C365.426 291.949 364.81 294.05 364.237 296.332C363.712 298.625 363.154 301.094 362.755 303.703C362.353 306.297 362.026 309.032 361.818 311.848C361.388 317.493 361.465 323.462 361.967 329.387C362.506 335.322 363.459 341.207 364.843 346.688C366.202 352.166 367.992 357.245 369.879 361.568C371.759 365.882 373.757 369.449 375.348 371.918C375.905 372.794 376.416 373.542 376.848 374.121C364.543 386.638 351.471 398.348 337.548 408.993C337.775 408.487 338.027 407.921 338.301 407.283C339.44 404.568 340.791 400.717 341.912 396.142C343.036 391.563 343.92 386.268 344.346 380.632C344.77 374.996 344.707 369.03 344.221 363.088C343.701 357.159 342.761 351.268 341.37 345.781C340.691 343.053 339.915 340.401 339.06 337.916C338.222 335.427 337.262 333.085 336.348 330.914C335.392 328.752 334.437 326.779 333.494 325.048C332.555 323.315 331.669 321.799 330.857 320.551C329.274 318.091 328.085 316.69 328.085 316.69C328.085 316.69 327.149 318.259 326.008 320.974C325.43 322.329 324.81 323.971 324.173 325.849C323.553 327.725 322.932 329.828 322.371 332.12C321.822 334.404 321.269 336.879 320.891 339.473C320.475 342.076 320.15 344.813 319.948 347.635C319.528 353.266 319.599 359.229 320.103 365.164C320.629 371.093 321.583 376.989 322.964 382.472C324.336 387.954 326.118 393.028 328.002 397.339C329.889 401.655 331.884 405.212 333.474 407.696C334.256 408.924 334.945 409.894 335.43 410.551C330.078 414.592 324.608 418.483 319 422.181C312.127 426.726 304.955 431.271 297.552 435.469C297.858 434.836 298.213 434.069 298.585 433.157C299.738 430.439 301.096 426.594 302.195 422.018C303.336 417.444 304.226 412.135 304.63 406.511C305.068 400.858 305.004 394.9 304.504 388.963C303.994 383.033 303.061 377.153 301.678 371.671C300.996 368.917 300.208 366.274 299.351 363.783C298.52 361.295 297.556 358.948 296.643 356.783C295.694 354.636 294.728 352.656 293.789 350.918C292.843 349.183 291.949 347.67 291.155 346.437C289.567 343.959 288.383 342.568 288.383 342.568C288.383 342.568 287.45 344.138 286.296 346.848C285.728 348.206 285.098 349.853 284.471 351.721C283.84 353.6 283.237 355.701 282.655 357.991C282.123 360.273 281.564 362.762 281.19 365.352C280.776 367.954 280.444 370.684 280.242 373.504C279.82 379.149 279.898 385.107 280.39 391.041C280.936 396.969 281.866 402.854 283.261 408.351C284.625 413.831 286.417 418.893 288.291 423.213C290.184 427.536 292.179 431.084 293.778 433.572C294.57 434.831 295.272 435.811 295.769 436.475C284.902 442.517 273.53 447.738 261.822 450.952C259.325 451.651 260.493 455.515 262.994 454.827Z" fill="#16774B"/>
<path d="M187.329 98.3478C192.148 98.3478 196.054 102.254 196.054 107.072C196.054 108.678 197.355 109.98 198.961 109.98C200.568 109.98 201.869 108.678 201.869 107.072C201.869 99.0417 195.36 92.5322 187.329 92.5322C185.724 92.5322 184.421 93.8337 184.421 95.44C184.421 97.0463 185.724 98.3478 187.329 98.3478Z" fill="#009E57"/>
<path d="M187.329 86.7156C198.571 86.7156 207.686 95.8291 207.686 107.072C207.686 108.678 208.987 109.98 210.593 109.98C212.199 109.98 213.501 108.678 213.501 107.072C213.501 92.6176 201.784 80.9011 187.329 80.9011C185.724 80.9011 184.421 82.2025 184.421 83.8078C184.421 85.4141 185.724 86.7156 187.329 86.7156Z" fill="#009E57"/>
<path d="M212.774 121.349C212.449 120.401 211.657 119.687 210.68 119.459L193.232 115.476C192.27 115.257 191.263 115.543 190.558 116.232C190.15 116.61 190.121 116.639 188.231 120.246C181.959 117.355 176.933 112.309 174.069 106.025C177.762 104.164 177.792 104.164 178.17 103.728C178.859 103.022 179.144 102.015 178.926 101.053L174.942 83.808C174.714 82.8316 174 82.0401 173.051 81.715C172.372 81.4722 171.671 81.2964 170.958 81.1918C170.223 81.0211 169.473 80.9236 168.719 80.9012C161.332 80.9012 155.342 86.8895 155.342 94.2769C155.375 118.996 175.405 139.028 200.125 139.059C207.512 139.059 213.501 133.071 213.501 125.682C213.502 124.943 213.443 124.203 213.326 123.473C213.204 122.75 213.02 122.04 212.774 121.349Z" fill="#0FA662"/>
<path d="M355.261 106.507H319.533C312.128 106.507 306.07 100.449 306.07 93.0443C306.07 85.6397 312.128 79.5813 319.533 79.5813H355.261C362.667 79.5813 368.725 85.6397 368.725 93.0443C368.725 100.449 362.667 106.507 355.261 106.507Z" fill="#16774B"/>
<path d="M358.622 110.644C358.622 112.288 357.29 113.619 355.647 113.619C354.004 113.619 352.672 112.288 352.672 110.644C352.672 109.001 354.004 107.669 355.647 107.669C357.29 107.669 358.622 109.001 358.622 110.644Z" fill="#0A9A59"/>
<path d="M329.586 92.6805C329.586 94.8365 327.839 96.583 325.683 96.583C323.527 96.583 321.778 94.8365 321.778 92.6805C321.778 90.5236 323.527 88.776 325.683 88.776C327.839 88.776 329.586 90.5236 329.586 92.6805Z" fill="white"/>
<path d="M341.302 92.6805C341.302 94.8365 339.554 96.583 337.397 96.583C335.241 96.583 333.494 94.8365 333.494 92.6805C333.494 90.5236 335.241 88.776 337.397 88.776C339.554 88.776 341.302 90.5236 341.302 92.6805Z" fill="white"/>
<path d="M353.016 92.6805C353.016 94.8365 351.269 96.583 349.113 96.583C346.957 96.583 345.208 94.8365 345.208 92.6805C345.208 90.5236 346.957 88.776 349.113 88.776C351.269 88.776 353.016 90.5236 353.016 92.6805Z" fill="white"/>
<path d="M303.182 137.788H338.911C346.316 137.788 352.374 131.73 352.374 124.325C352.374 116.92 346.316 110.862 338.911 110.862H303.182C295.777 110.862 289.719 116.92 289.719 124.325C289.719 131.73 295.777 137.788 303.182 137.788Z" fill="#009E57"/>
<path d="M299.822 141.924C299.822 143.568 301.154 144.9 302.797 144.9C304.441 144.9 305.772 143.568 305.772 141.924C305.772 140.281 304.441 138.95 302.797 138.95C301.154 138.95 299.822 140.281 299.822 141.924Z" fill="#009E57"/>
<path d="M313.235 124.084C313.235 126.24 311.487 127.989 309.331 127.989C307.175 127.989 305.428 126.24 305.428 124.084C305.428 121.928 307.175 120.181 309.331 120.181C311.487 120.181 313.235 121.928 313.235 124.084Z" fill="white"/>
<path d="M324.951 124.084C324.951 126.24 323.202 127.989 321.046 127.989C318.89 127.989 317.143 126.24 317.143 124.084C317.143 121.928 318.89 120.181 321.046 120.181C323.202 120.181 324.951 121.928 324.951 124.084Z" fill="white"/>
<path d="M336.665 124.084C336.665 126.24 334.917 127.989 332.761 127.989C330.605 127.989 328.858 126.24 328.858 124.084C328.858 121.928 330.605 120.181 332.761 120.181C334.917 120.181 336.665 121.928 336.665 124.084Z" fill="white"/>
<path d="M250.575 218.136C249.339 221.33 247.262 223.891 244.821 225.548C241.707 227.691 237.984 228.375 234.615 227.072C228.618 224.753 226.044 216.978 228.861 209.721C231.666 202.463 238.813 198.465 244.81 200.785L244.909 200.83C250.84 203.204 253.37 210.925 250.575 218.136Z" fill="#056137"/>
<path d="M103.539 207.305C109.816 216.872 128.092 244.673 138.345 259.741C130.572 274.289 114.296 282.335 114.296 282.335C114.296 282.335 105.879 259.818 101.448 247.63C97.0171 235.442 93.583 225.954 93.7167 219.722C93.7354 218.86 94.4414 218.572 94.9204 218.474L94.2513 217.262C93.4357 215.784 94.0195 213.925 95.5336 213.179C96.4956 212.705 97.5858 212.83 98.4344 213.38L97.1925 211.37C96.1662 209.709 96.5777 207.54 98.1406 206.37C99.8809 205.069 102.347 205.488 103.539 207.305Z" fill="#FFB8B8"/>
<path d="M109.375 245.959C109.568 238.394 116.343 232.415 118.938 230.749L119.839 232.154C116.521 234.284 111.197 239.927 111.044 246.001L109.375 245.959Z" fill="#F18B8B"/>
<path d="M107.597 230.56L97.8115 213.778L98.5331 213.357L108.318 230.138L107.597 230.56Z" fill="#F18B8B"/>
<path d="M102.023 235.137L94.2461 218.934L94.9982 218.574L102.774 234.776L102.023 235.137Z" fill="#F18B8B"/>
<path d="M274.778 232.075L274.817 232.712L275.189 252.242L276.139 301.833L216.768 285.87L245.365 267.055L245.077 259.587L244.108 233.649C243.763 225.225 250.286 218.095 258.705 217.67C267.151 217.27 274.278 223.742 274.778 232.075Z" fill="#FFB8B8"/>
<path d="M274.778 232.075L274.817 232.712L275.189 252.241C272.118 253.89 268.926 255.306 265.727 256.591C260.578 258.657 256.003 260.104 250.437 260.117C248.652 260.117 246.787 260.097 245.078 259.587L244.108 233.648C243.763 225.225 250.287 218.094 258.705 217.67C267.151 217.269 274.278 223.741 274.778 232.075Z" fill="#F18B8B"/>
<path d="M287.423 221.914C283.028 232.565 279.708 236.707 276.097 235.565C265.685 253.397 251.358 260.116 238.578 256.647C228.21 253.859 228.742 238.751 231.65 225.072C232.34 221.915 233.138 218.803 233.954 215.958C235.3 211.322 237.529 204.957 240.644 197.817C232.431 172.365 257.081 166.785 273.35 185.334C274.217 184.696 275.147 184.214 276.118 183.969C280.414 182.753 285.24 185.952 288.854 197.802C296.295 205.96 291.846 211.261 287.423 221.914Z" fill="#656569"/>
<path d="M281.622 197.117C280.273 194.615 277.769 191.515 273.35 185.334C274.217 184.696 275.147 184.214 276.118 183.969C278.25 187.97 281.287 194.206 281.622 197.117Z" fill="#3B3E63"/>
<path d="M284.021 225.581C279.03 235.629 271.301 231.112 270.606 227.078C266.565 232.967 263.938 234.483 262.139 234.672C260.339 234.859 255.328 231.697 253.182 230.999C251.008 230.278 240.169 233.431 231.678 225.098L231.65 225.073C232.34 221.915 233.138 218.803 233.954 215.958C235.3 211.322 237.529 204.957 240.644 197.817C245.247 191.973 259.301 180.716 275.743 209.696C274.427 215.287 273.486 219.58 272.3 222.447C280.321 212.751 289.013 215.559 284.021 225.581Z" fill="#FFB8B8"/>
<path d="M273.536 224.214C273.904 223.244 274.45 222.35 275.158 221.593C275.84 220.808 276.679 220.15 277.629 219.66C278.575 219.176 279.65 218.838 280.785 218.895C281.345 218.911 281.933 219.056 282.435 219.383C282.933 219.7 283.297 220.281 283.222 220.816C282.916 220.372 282.515 220.183 282.106 220.133C281.703 220.06 281.278 220.108 280.859 220.197C280.02 220.385 279.197 220.729 278.394 221.143C277.586 221.552 276.801 222.044 276.01 222.57C275.206 223.086 274.441 223.678 273.536 224.214Z" fill="#F18B8B"/>
<path d="M274.549 223.093C274.925 222.632 275.49 222.318 276.081 222.174C276.675 222.017 277.31 222.016 277.926 222.164C278.534 222.325 279.14 222.666 279.513 223.213C279.902 223.749 279.976 224.432 279.827 224.998C279.477 223.838 278.71 223.207 277.718 222.972C277.231 222.838 276.707 222.802 276.178 222.815C275.649 222.842 275.108 222.902 274.549 223.093Z" fill="#F18B8B"/>
<path d="M245.505 212.821C240.524 219.34 234.611 222.098 233.867 223.838C233.123 225.58 235.701 228.989 242.133 230.158C245.938 227.747 242.859 223.798 245.505 212.821Z" fill="#F18B8B"/>
<path d="M257.605 215.485C257.697 217.014 256.762 218.312 255.519 218.387C254.274 218.461 253.191 217.283 253.1 215.754C253.007 214.227 253.942 212.926 255.186 212.852C256.431 212.778 257.513 213.956 257.605 215.485Z" fill="#727596"/>
<path d="M241.49 213.973C241.201 215.476 239.975 216.506 238.751 216.271C237.527 216.037 236.768 214.627 237.056 213.123C237.343 211.62 238.57 210.589 239.794 210.825C241.018 211.059 241.777 212.468 241.49 213.973Z" fill="#727596"/>
<path d="M258.137 201.692C262.625 201.821 264.751 207.128 265.43 210.012C265.764 211.433 264.824 211.817 264.064 210.491C263.129 208.859 260.601 205.9 257.743 204.767C255.721 203.966 256.394 201.643 258.137 201.692Z" fill="#727596"/>
<path d="M245.301 199.496C241.515 197.942 238.342 200.635 236.74 202.883C235.894 204.073 236.524 205.253 237.805 204.417C239.379 203.391 241.192 202.121 244.252 202.414C246.418 202.62 246.913 200.157 245.301 199.496Z" fill="#727596"/>
<path d="M204.442 422.865C218.057 427.646 232.092 430.536 255.418 428.337C269.041 384.336 271.231 278.641 271.677 272.749C260.995 276.856 247.81 279.247 242.232 266.252C215.515 296.378 204.285 342.405 204.442 422.865Z" fill="white"/>
<path d="M275.364 261.491C260.93 269.823 251.837 295.128 249.44 333.785C247.042 372.443 244.072 407.775 245.054 419.303C246.034 430.833 249.469 449.456 270.137 451.114C290.805 452.771 321.287 453.839 321.287 453.839C321.287 453.839 296.986 304.656 296.16 295.725C295.335 286.793 292.354 272.79 275.364 261.491Z" fill="#009E57"/>
<path d="M447.22 427.941C437.709 421.579 410.07 403.058 395.093 392.673C380.478 400.317 372.287 416.522 372.287 416.522C372.287 416.522 394.73 425.136 406.877 429.675C419.026 434.214 428.484 437.732 434.717 437.653C435.578 437.642 435.872 436.939 435.975 436.46L437.182 437.141C438.652 437.969 440.516 437.402 441.275 435.893C441.757 434.936 441.643 433.845 441.101 432.992L443.099 434.251C444.751 435.293 446.923 434.901 448.107 433.347C449.423 431.619 449.026 429.149 447.22 427.941Z" fill="#FFB8B8"/>
<path d="M402.847 398.853L436.867 407.618C438.833 408.125 440.041 410.103 439.593 412.084C439.125 414.153 437.036 415.425 434.983 414.889L414.655 409.595C414.655 409.595 398.555 406.829 402.847 398.853Z" fill="#FFB8B8"/>
<path d="M412.689 421.069C411.397 421.484 410.035 421.739 408.618 421.762L408.591 420.094C414.667 419.994 420.356 414.722 422.516 411.422L423.912 412.336C422.54 414.432 418.294 419.267 412.689 421.069Z" fill="#F18B8B"/>
<path d="M440.697 433.611L424.003 423.679L424.429 422.962L441.124 432.894L440.697 433.611Z" fill="#F18B8B"/>
<path d="M435.508 437.131L419.375 429.212L419.742 428.464L435.876 436.383L435.508 437.131Z" fill="#F18B8B"/>
<path d="M275.364 261.491C294.03 274.705 299.814 284.208 305.432 295.749C311.048 307.289 332.148 345.132 338.423 353.158C344.699 361.182 395.093 392.673 395.093 392.673L368.178 422.385C368.178 422.385 316.589 399.659 306.676 388.956C296.764 378.252 274.853 338.441 275.364 261.491Z" fill="#009E57"/>
<path d="M245.23 263.893L245.42 268.836C234.15 281.232 225.418 303.065 220.599 331.082C215.124 362.815 213.019 396.556 212.803 424.484C212.677 443.696 194.922 443.456 186.139 436.897C188.006 411.614 195.319 350.578 199.287 331.933C203.091 314.073 210.793 262.176 245.23 263.893Z" fill="#009E57"/>
<path d="M245.249 264.212L245.307 265.62C227.479 272.602 217.969 306.335 217.969 306.335C217.969 306.335 206.866 341.188 196.677 349.244C176.902 364.879 162.164 360.734 151.028 348.907C145.148 342.662 108.034 283.43 108.034 283.43L138.391 259.353L172.773 305.529C172.773 305.529 201.942 284.708 212.937 276.617C222.859 269.284 231.311 264.089 245.249 264.212Z" fill="#009E57"/>
<path d="M297.91 378.697L279.207 330.708L280.763 330.102L299.465 378.091L297.91 378.697Z" fill="#025C33"/>
<path d="M199.122 336.562L197.531 336.06L205.655 310.332L207.245 310.834L199.122 336.562Z" fill="#025C33"/>
<path d="M106.416 226.511L75.2485 195.344V222.04C75.2485 227.204 79.4343 231.39 84.5981 231.39H128.232C133.397 231.39 137.582 227.204 137.582 222.04V195.344L106.416 226.511Z" fill="#656569"/>
<path d="M137.582 195.344V190.873C137.582 185.709 133.397 181.523 128.232 181.523H84.5981C79.4343 181.523 75.2485 185.709 75.2485 190.873V195.344L106.416 226.511L137.582 195.344Z" fill="#999999"/>
<path d="M143.1 187.576C143.1 193.919 137.958 199.061 131.615 199.061C125.272 199.061 120.13 193.919 120.13 187.576C120.13 181.233 125.272 176.091 131.615 176.091C137.958 176.091 143.1 181.233 143.1 187.576Z" fill="#009E57"/>
<path d="M102.842 215.25H82.374V210.68H102.842V215.25Z" fill="#A6AFE2"/>
<path d="M132.234 251.932L123.769 217.836C123.281 215.866 121.314 214.641 119.329 215.071C117.256 215.52 115.965 217.598 116.481 219.656L121.599 240.03C121.599 240.03 124.22 256.153 132.234 251.932Z" fill="#FFB8B8"/>
<path d="M246.095 233.804L246.076 233.967C244.835 243.824 233.092 244.827 232.224 232.793C232.165 232.17 232.145 231.504 232.164 230.81C235.407 230.932 243.207 232.916 246.095 233.804Z" fill="#F18B8B"/>
<path d="M246.095 233.804L246.076 233.968C244.746 234.307 243.302 234.516 241.769 234.594C237.915 234.79 234.438 234.068 232.224 232.793C232.165 232.17 232.145 231.504 232.164 230.81C235.407 230.932 243.207 232.916 246.095 233.804Z" fill="#F3EDFF"/>
<path d="M289.374 227.206C288.137 230.399 286.06 232.961 283.619 234.618C280.504 236.761 276.783 237.445 273.414 236.142C267.416 233.822 264.843 226.047 267.659 218.791C270.465 211.533 277.611 207.535 283.608 209.855L283.708 209.9C289.639 212.274 292.168 219.993 289.374 227.206Z" fill="#056137"/>
<path d="M279.91 210.032C284.485 203.598 279.298 191.16 273.35 185.334C273.35 185.334 271.2 182.987 270.477 182.414C271.816 182.436 272.305 182.669 273.665 183.71C275.025 184.752 293.113 195.687 286.191 212.458C286.191 212.458 280.272 211.487 279.91 210.032Z" fill="#484848"/>
<path d="M289.374 227.206C288.137 230.399 286.06 232.961 283.619 234.618C275.236 236.506 268.653 228.101 274.397 218.194C276.915 213.853 280.262 211.191 283.708 209.899C289.639 212.274 292.168 219.993 289.374 227.206Z" fill="#009E57"/>
<path d="M272.365 230.126C267.293 235.198 257.338 235.742 249.466 235.87C248.708 235.883 248.084 236.472 248.033 237.229C247.975 238.102 248.697 238.828 249.57 238.78C261.537 238.115 268.975 237.36 274.055 231.915L272.365 230.126Z" fill="#484848"/>
<path d="M252.589 237.267C252.589 238.968 251.209 240.348 249.508 240.348C247.806 240.348 246.428 238.968 246.428 237.267C246.428 235.566 247.806 234.187 249.508 234.187C251.209 234.187 252.589 235.566 252.589 237.267Z" fill="#009E57"/>
<path d="M164 134.28C164 140.556 158.91 145.645 152.634 145.645C146.357 145.645 141.268 140.556 141.268 134.28C141.268 128.002 146.357 122.915 152.634 122.915C158.91 122.915 164 128.002 164 134.28Z" fill="#16774B"/>
<path d="M272.184 98.5285C272.184 101.104 270.097 103.191 267.523 103.191C264.947 103.191 262.86 101.104 262.86 98.5285C262.86 95.9529 264.947 93.8651 267.523 93.8651C270.097 93.8651 272.184 95.9529 272.184 98.5285Z" fill="#16774B"/>
<path d="M223.674 164.252C223.674 166.092 222.182 167.582 220.343 167.582C218.504 167.582 217.013 166.092 217.013 164.252C217.013 162.413 218.504 160.922 220.343 160.922C222.182 160.922 223.674 162.413 223.674 164.252Z" fill="#0A9A59"/>
<path d="M316.67 269.442C316.67 271.465 315.029 273.106 313.006 273.106C310.984 273.106 309.344 271.465 309.344 269.442C309.344 267.419 310.984 265.78 313.006 265.78C315.029 265.78 316.67 267.419 316.67 269.442Z" fill="#16774B"/>
<path d="M335.177 337.913V408.457C335.177 415.428 329.533 421.082 322.553 421.082H197.369C190.399 421.082 184.755 415.428 184.755 408.457V337.913C184.755 330.944 190.399 325.289 197.369 325.289H322.553C329.533 325.289 335.177 330.944 335.177 337.913Z" fill="#656569"/>
<path d="M292.952 421.082H247.612L246 368.033H273.922L292.952 421.082Z" fill="#7A7A7C"/>
<path d="M270.192 405.831C270.192 411.479 265.614 416.058 259.966 416.058C254.318 416.058 249.74 411.479 249.74 405.831V401.563C249.74 395.916 254.318 391.337 259.966 391.337C265.614 391.337 270.192 395.916 270.192 401.563V405.831ZM307.378 443.446H283.709L273.927 368.039H246.004L236.223 443.446H212.555C210.598 443.446 209.012 445.032 209.012 446.989V450.472H310.92V446.989C310.92 445.032 309.334 443.446 307.378 443.446Z" fill="#999999"/>
<path d="M259.839 403.192C256.234 403.191 253.268 403.85 250.861 405.074C247.24 406.91 244.979 410.019 243.688 413.686C242.39 417.362 241.992 421.625 241.99 426.063C241.994 434.305 243.384 443.204 243.379 449.778H245.587C245.582 442.927 244.195 434.075 244.2 426.063C244.191 420.322 244.927 415.061 247.199 411.389C248.335 409.546 249.829 408.081 251.863 407.043C253.898 406.008 256.498 405.401 259.839 405.401V403.192Z" fill="#F3EDFF"/>
<path d="M376.571 180.202C371.209 180.202 366.139 180.869 361.632 182.056C359.325 182.663 357.711 184.737 357.711 187.123V221.883V226.349C357.711 229.685 360.785 232.142 364.047 231.448C367.921 230.621 372.148 230.168 376.571 230.168C383.552 230.168 390.053 231.297 395.445 233.235V221.883V183.27C390.053 181.334 383.552 180.202 376.571 180.202Z" fill="#0A9A59"/>
<path d="M414.319 180.202C407.338 180.202 400.837 181.334 395.444 183.27V221.883V233.235C400.837 231.297 407.338 230.168 414.319 230.168C418.743 230.168 422.969 230.621 426.843 231.448C430.106 232.142 433.179 229.685 433.179 226.349V221.883V187.123C433.179 184.737 431.565 182.663 429.259 182.056C424.752 180.869 419.681 180.202 414.319 180.202Z" fill="#11633E"/>
<path d="M432.142 455.279H73.7273C72.3771 455.279 71.2734 454.174 71.2734 452.825C71.2734 451.476 72.3771 450.371 73.7273 450.371H432.142C433.492 450.371 434.595 451.476 434.595 452.825C434.595 454.174 433.492 455.279 432.142 455.279Z" fill="#727596"/>
</svg>
