<svg width="125" height="125" viewBox="0 0 125 125" fill="none" xmlns="http://www.w3.org/2000/svg">
<g clip-path="url(#clip0_13_127)">
<path opacity="0.996" fill-rule="evenodd" clip-rule="evenodd" d="M56.7627 -0.12207C60.5061 -0.12207 64.2498 -0.12207 67.9932 -0.12207C89.8789 2.53611 106.358 13.3597 117.432 32.3486C121.508 40.032 123.99 48.1699 124.878 56.7627C124.878 59.2041 124.878 61.6455 124.878 64.0869C119.244 58.5347 113.629 53.0007 108.032 47.4854C105.874 43.7009 102.7 42.3987 98.5107 43.5791C97.1948 42.0186 95.73 40.635 94.1162 39.4287C91.5312 35.6785 88.1133 34.6614 83.8623 36.377C81.9456 37.5598 80.6843 39.228 80.0781 41.3818C79.9561 46.0198 79.9153 50.6584 79.9561 55.2979C68.2373 55.2979 56.5186 55.2979 44.7998 55.2979C44.7998 55.2166 44.7998 55.135 44.7998 55.0537C49.8459 55.0945 54.8916 55.0537 59.9365 54.9316C54.5854 49.458 49.1331 44.1277 43.5791 38.9404C40.6123 35.2095 37.0315 34.5176 32.8369 36.8652C31.2966 38.1174 30.3201 39.7043 29.9072 41.626C29.7444 43.0908 29.5818 44.5557 29.4189 46.0205C27.4517 43.6685 24.929 42.7327 21.8506 43.2129C18.9616 44.1487 17.0491 46.0613 16.1133 48.9502C15.9913 51.0645 15.9506 53.1804 15.9912 55.2979C14.1195 55.2979 12.2477 55.2979 10.376 55.2979C10.376 57.658 10.376 60.0178 10.376 62.3779C10.296 64.8635 10.3774 67.3049 10.6201 69.7021C12.3291 71.574 14.1195 73.3643 15.9912 75.0732C16.4464 77.6167 17.7485 79.5698 19.8975 80.9326C34.4646 95.5811 49.0315 110.229 63.5986 124.878C61.3201 124.878 59.0413 124.878 56.7627 124.878C34.877 122.22 18.3975 111.396 7.32422 92.4072C3.24836 84.7239 0.76626 76.5859 -0.12207 67.9932C-0.12207 64.2498 -0.12207 60.5061 -0.12207 56.7627C2.53601 34.8772 13.3596 18.3978 32.3486 7.32422C40.032 3.24836 48.1699 0.76626 56.7627 -0.12207Z" fill="#00A359"/>
<path fill-rule="evenodd" clip-rule="evenodd" d="M43.5791 38.9404C44.0088 39.719 44.375 40.5327 44.6777 41.3818C44.7998 45.9385 44.8406 50.4956 44.7998 55.0537C44.7998 55.135 44.7998 55.2166 44.7998 55.2979C44.7998 57.658 44.7998 60.0178 44.7998 62.3779C39.7542 62.3779 34.7087 62.3779 29.6631 62.3779C29.6631 57.0068 29.6631 51.6357 29.6631 46.2646C29.9048 44.7644 29.9861 43.2183 29.9072 41.626C30.3201 39.7043 31.2966 38.1174 32.8369 36.8652C37.0315 34.5176 40.6123 35.2095 43.5791 38.9404Z" fill="#555A65"/>
<path fill-rule="evenodd" clip-rule="evenodd" d="M94.1162 39.4287C94.5056 40.1086 94.7497 40.8411 94.8486 41.626C94.7697 43.2183 94.851 44.7644 95.0927 46.2646C95.0927 51.6357 95.0927 57.0068 95.0927 62.3779C90.0471 62.3779 85.0017 62.3779 79.956 62.3779C79.956 60.0178 79.956 57.658 79.956 55.2978C79.9153 50.6584 79.956 46.0198 80.0781 41.3818C80.6843 39.228 81.9455 37.5598 83.8623 36.377C88.1133 34.6614 91.5312 35.6785 94.1162 39.4287Z" fill="#555A65"/>
<path fill-rule="evenodd" clip-rule="evenodd" d="M43.5791 38.9404C49.1331 44.1277 54.5854 49.458 59.9365 54.9316C54.8916 55.0537 49.8459 55.0945 44.7998 55.0537C44.8406 50.4956 44.7998 45.9385 44.6777 41.3818C44.375 40.5327 44.0088 39.719 43.5791 38.9404Z" fill="#067141"/>
<path fill-rule="evenodd" clip-rule="evenodd" d="M94.1162 39.4287C95.73 40.635 97.1948 42.0186 98.5107 43.5791C97.1685 44.0266 96.1106 44.8403 95.3369 46.0205C95.1741 44.5557 95.0115 43.0908 94.8486 41.626C94.7498 40.8411 94.5056 40.1086 94.1162 39.4287Z" fill="#067141"/>
<path fill-rule="evenodd" clip-rule="evenodd" d="M29.9072 41.626C29.9861 43.2183 29.9048 44.7644 29.6631 46.2646C29.5002 46.2646 29.4189 46.1833 29.4189 46.0205C29.5818 44.5557 29.7444 43.0908 29.9072 41.626Z" fill="#8D5F4C"/>
<path fill-rule="evenodd" clip-rule="evenodd" d="M94.8486 41.626C95.0115 43.0908 95.1741 44.5557 95.3369 46.0205C95.3369 46.1833 95.2556 46.2646 95.0928 46.2646C94.8511 44.7644 94.7698 43.2183 94.8486 41.626Z" fill="#855045"/>
<path fill-rule="evenodd" clip-rule="evenodd" d="M29.419 46.0205C29.419 46.1833 29.5003 46.2646 29.6631 46.2646C29.6631 51.6357 29.6631 57.0068 29.6631 62.3779C25.1057 62.3779 20.5485 62.3779 15.9912 62.3779C15.9912 60.0178 15.9912 57.658 15.9912 55.2979C15.9506 53.1804 15.9913 51.0645 16.1133 48.9502C17.0492 46.0613 18.9616 44.1487 21.8506 43.2129C24.929 42.7327 27.4517 43.6685 29.419 46.0205Z" fill="#636977"/>
<path fill-rule="evenodd" clip-rule="evenodd" d="M108.032 47.4853C108.373 48.0837 108.576 48.7349 108.643 49.4385C108.765 51.3899 108.805 53.343 108.765 55.2978C108.765 57.658 108.765 60.0178 108.765 62.3779C104.207 62.3779 99.6501 62.3779 95.0928 62.3779C95.0928 57.0068 95.0928 51.6357 95.0928 46.2646C95.2556 46.2646 95.3369 46.1833 95.3369 46.0205C96.1106 44.8403 97.1685 44.0266 98.5107 43.5791C102.7 42.3987 105.874 43.7009 108.032 47.4853Z" fill="#636977"/>
<path fill-rule="evenodd" clip-rule="evenodd" d="M108.032 47.4854C113.629 53.0007 119.244 58.5347 124.878 64.0869C124.878 65.3889 124.878 66.6912 124.878 67.9932C122.22 89.8789 111.396 106.358 92.4072 117.432C84.7239 121.508 76.5859 123.99 67.9932 124.878C66.5283 124.878 65.0635 124.878 63.5986 124.878C49.0315 110.229 34.4646 95.5811 19.8975 80.9326C22.3536 81.9363 24.7949 81.8958 27.2217 80.8105C28.0762 80.2407 28.8086 79.5488 29.4189 78.7354C29.5291 80.6824 29.8137 82.6355 30.2734 84.5947C32.8601 89.2002 36.563 90.3804 41.3818 88.1348C43.0503 86.9526 44.1489 85.3657 44.6777 83.374C44.7998 78.8174 44.8406 74.2603 44.7998 69.7021C56.5186 69.7021 68.2373 69.7021 79.9561 69.7021C79.9153 74.1787 79.9561 78.6548 80.0781 83.1299C81.5701 88.0889 84.866 90.0012 89.9658 88.8672C92.0205 88.0334 93.5259 86.6094 94.4824 84.5947C94.9421 82.6355 95.2268 80.6824 95.3369 78.7354C97.1904 81.1311 99.6318 82.0669 102.661 81.543C105.452 80.8628 107.364 79.1946 108.398 76.5381C108.729 74.2737 108.851 71.9949 108.765 69.7021C110.636 69.7021 112.508 69.7021 114.38 69.7021C114.38 67.2607 114.38 64.8193 114.38 62.3779C114.38 60.0178 114.38 57.658 114.38 55.2979C112.508 55.2979 110.636 55.2979 108.765 55.2979C108.805 53.343 108.765 51.3899 108.643 49.4385C108.576 48.7349 108.373 48.0837 108.032 47.4854Z" fill="#067141"/>
<path fill-rule="evenodd" clip-rule="evenodd" d="M15.9912 55.2979C15.9912 57.658 15.9912 60.0178 15.9912 62.3779C14.1195 62.3779 12.2477 62.3779 10.376 62.3779C10.376 60.0178 10.376 57.658 10.376 55.2979C12.2477 55.2979 14.1195 55.2979 15.9912 55.2979Z" fill="#FFFEFE"/>
<path fill-rule="evenodd" clip-rule="evenodd" d="M44.7998 55.2979C56.5186 55.2979 68.2373 55.2979 79.9561 55.2979C79.9561 57.658 79.9561 60.0178 79.9561 62.3779C68.2373 62.3779 56.5186 62.3779 44.7998 62.3779C44.7998 60.0178 44.7998 57.658 44.7998 55.2979Z" fill="#FEFFFE"/>
<path fill-rule="evenodd" clip-rule="evenodd" d="M108.765 55.2979C110.636 55.2979 112.508 55.2979 114.38 55.2979C114.38 57.658 114.38 60.0178 114.38 62.3779C112.508 62.3779 110.636 62.3779 108.765 62.3779C108.765 60.0178 108.765 57.658 108.765 55.2979Z" fill="#FEFEFD"/>
<path fill-rule="evenodd" clip-rule="evenodd" d="M10.376 62.3779C12.2477 62.3779 14.1194 62.3779 15.9912 62.3779C15.9912 64.8193 15.9912 67.2607 15.9912 69.7021C14.2008 69.7021 12.4105 69.7021 10.6201 69.7021C10.3774 67.3049 10.296 64.8635 10.376 62.3779Z" fill="#E9EAF1"/>
<path fill-rule="evenodd" clip-rule="evenodd" d="M15.9912 62.3779C20.5485 62.3779 25.1057 62.3779 29.6631 62.3779C29.7417 67.8486 29.6604 73.3013 29.4189 78.7354C28.8086 79.5488 28.0762 80.2407 27.2217 80.8105C24.7949 81.8958 22.3536 81.9363 19.8975 80.9326C17.7485 79.5698 16.4464 77.6167 15.9912 75.0732C15.9912 73.283 15.9912 71.4924 15.9912 69.7021C15.9912 67.2607 15.9912 64.8193 15.9912 62.3779Z" fill="#414952"/>
<path fill-rule="evenodd" clip-rule="evenodd" d="M29.6631 62.3779C34.7087 62.3779 39.7542 62.3779 44.7998 62.3779C44.7998 64.8193 44.7998 67.2607 44.7998 69.7021C44.8406 74.2603 44.7998 78.8174 44.6777 83.374C44.1489 85.3657 43.0503 86.9526 41.3818 88.1348C36.563 90.3804 32.8601 89.2002 30.2734 84.5947C29.8137 82.6355 29.5291 80.6824 29.4189 78.7354C29.6604 73.3013 29.7417 67.8486 29.6631 62.3779Z" fill="#333940"/>
<path fill-rule="evenodd" clip-rule="evenodd" d="M44.7998 62.3779C56.5186 62.3779 68.2373 62.3779 79.9561 62.3779C79.9561 64.8193 79.9561 67.2607 79.9561 69.7021C68.2373 69.7021 56.5186 69.7021 44.7998 69.7021C44.7998 67.2607 44.7998 64.8193 44.7998 62.3779Z" fill="#E9EAF1"/>
<path fill-rule="evenodd" clip-rule="evenodd" d="M79.956 62.3779C85.0017 62.3779 90.0471 62.3779 95.0927 62.3779C95.0141 67.8486 95.0954 73.3013 95.3369 78.7354C95.2268 80.6824 94.9421 82.6355 94.4824 84.5947C93.5259 86.6094 92.0205 88.0334 89.9658 88.8672C84.8659 90.0012 81.57 88.0889 80.0781 83.1299C79.956 78.6548 79.9153 74.1787 79.956 69.7021C79.956 67.2607 79.956 64.8193 79.956 62.3779Z" fill="#333940"/>
<path fill-rule="evenodd" clip-rule="evenodd" d="M95.0928 62.3779C99.6501 62.3779 104.207 62.3779 108.765 62.3779C108.765 64.8193 108.765 67.2607 108.765 69.7021C108.851 71.9949 108.729 74.2737 108.398 76.5381C107.364 79.1946 105.452 80.8628 102.661 81.543C99.6318 82.0669 97.1904 81.1311 95.3369 78.7354C95.0954 73.3013 95.0141 67.8486 95.0928 62.3779Z" fill="#414952"/>
<path fill-rule="evenodd" clip-rule="evenodd" d="M108.765 62.3779C110.636 62.3779 112.508 62.3779 114.38 62.3779C114.38 64.8193 114.38 67.2607 114.38 69.7021C112.508 69.7021 110.636 69.7021 108.765 69.7021C108.765 67.2607 108.765 64.8193 108.765 62.3779Z" fill="#E9EAF1"/>
<path fill-rule="evenodd" clip-rule="evenodd" d="M10.6201 69.7021C12.4105 69.7021 14.2009 69.7021 15.9912 69.7021C15.9912 71.4924 15.9912 73.283 15.9912 75.0732C14.1195 73.3643 12.3291 71.574 10.6201 69.7021Z" fill="#067141"/>
</g>
<defs>
<clipPath id="clip0_13_127">
<rect width="125" height="125" fill="white"/>
</clipPath>
</defs>
</svg>
