<svg width="129" height="129" viewBox="0 0 129 129" fill="none" xmlns="http://www.w3.org/2000/svg">
<path fill-rule="evenodd" clip-rule="evenodd" d="M45.5791 40.9404C46.0088 41.719 46.375 42.5327 46.6777 43.3818C46.7998 47.9385 46.8406 52.4956 46.7998 57.0537C46.7998 57.135 46.7998 57.2165 46.7998 57.2978C46.7998 59.6579 46.7998 62.0178 46.7998 64.3779C41.7542 64.3779 36.7087 64.3779 31.6631 64.3779C31.6631 59.0068 31.6631 53.6357 31.6631 48.2646C31.9048 46.7644 31.9861 45.2182 31.9072 43.626C32.3201 41.7043 33.2966 40.1174 34.8369 38.8652C39.0315 36.5176 42.6123 37.2095 45.5791 40.9404Z" fill="#EEEEEE"/>
<path fill-rule="evenodd" clip-rule="evenodd" d="M96.1162 41.4287C96.5056 42.1086 96.7497 42.8411 96.8486 43.626C96.7697 45.2183 96.851 46.7644 97.0927 48.2646C97.0927 53.6357 97.0927 59.0068 97.0927 64.3779C92.0471 64.3779 87.0017 64.3779 81.956 64.3779C81.956 62.0178 81.956 59.658 81.956 57.2978C81.9153 52.6584 81.956 48.0198 82.0781 43.3818C82.6843 41.228 83.9455 39.5598 85.8623 38.377C90.1133 36.6614 93.5312 37.6785 96.1162 41.4287Z" fill="#EEEEEE"/>
<path fill-rule="evenodd" clip-rule="evenodd" d="M31.9072 43.626C31.9861 45.2183 31.9048 46.7644 31.6631 48.2646C31.5002 48.2646 31.4189 48.1833 31.4189 48.0205C31.5818 46.5557 31.7444 45.0908 31.9072 43.626Z" fill="white"/>
<path fill-rule="evenodd" clip-rule="evenodd" d="M96.8486 43.626C97.0115 45.0908 97.1741 46.5557 97.3369 48.0205C97.3369 48.1833 97.2556 48.2646 97.0928 48.2646C96.8511 46.7644 96.7698 45.2183 96.8486 43.626Z" fill="white"/>
<path fill-rule="evenodd" clip-rule="evenodd" d="M31.419 48.0205C31.419 48.1834 31.5003 48.2647 31.6631 48.2647C31.6631 53.6358 31.6631 59.0068 31.6631 64.3779C27.1057 64.3779 22.5485 64.3779 17.9912 64.3779C17.9912 62.0178 17.9912 59.658 17.9912 57.2979C17.9506 55.1804 17.9913 53.0645 18.1133 50.9502C19.0492 48.0613 20.9616 46.1487 23.8506 45.2129C26.929 44.7327 29.4517 45.6685 31.419 48.0205Z" fill="#FBFBFB"/>
<path fill-rule="evenodd" clip-rule="evenodd" d="M110.032 49.4853C110.373 50.0837 110.576 50.7348 110.643 51.4385C110.765 53.3899 110.805 55.343 110.765 57.2978C110.765 59.6579 110.765 62.0178 110.765 64.3779C106.207 64.3779 101.65 64.3779 97.0928 64.3779C97.0928 59.0068 97.0928 53.6357 97.0928 48.2646C97.2556 48.2646 97.3369 48.1833 97.3369 48.0205C98.1106 46.8403 99.1685 46.0266 100.511 45.5791C104.7 44.3987 107.874 45.7009 110.032 49.4853Z" fill="#FBFBFB"/>
<path fill-rule="evenodd" clip-rule="evenodd" d="M17.9912 57.2979C17.9912 59.658 17.9912 62.0178 17.9912 64.3779C16.1195 64.3779 14.2477 64.3779 12.376 64.3779C12.376 62.0178 12.376 59.658 12.376 57.2979C14.2477 57.2979 16.1195 57.2979 17.9912 57.2979Z" fill="white"/>
<path fill-rule="evenodd" clip-rule="evenodd" d="M46.7998 57.2979C58.5186 57.2979 70.2373 57.2979 81.9561 57.2979C81.9561 59.658 81.9561 62.0178 81.9561 64.3779C70.2373 64.3779 58.5186 64.3779 46.7998 64.3779C46.7998 62.0178 46.7998 59.658 46.7998 57.2979Z" fill="#FBFBFB"/>
<path fill-rule="evenodd" clip-rule="evenodd" d="M110.765 57.2979C112.636 57.2979 114.508 57.2979 116.38 57.2979C116.38 59.658 116.38 62.0178 116.38 64.3779C114.508 64.3779 112.636 64.3779 110.765 64.3779C110.765 62.0178 110.765 59.658 110.765 57.2979Z" fill="white"/>
<path fill-rule="evenodd" clip-rule="evenodd" d="M12.376 64.3779C14.2477 64.3779 16.1194 64.3779 17.9912 64.3779C17.9912 66.8193 17.9912 69.2607 17.9912 71.7021C16.2008 71.7021 14.4105 71.7021 12.6201 71.7021C12.3774 69.3049 12.296 66.8635 12.376 64.3779Z" fill="#FBFBFB"/>
<path fill-rule="evenodd" clip-rule="evenodd" d="M17.9912 64.3779C22.5485 64.3779 27.1057 64.3779 31.6631 64.3779C31.7417 69.8486 31.6604 75.3013 31.4189 80.7354C30.8086 81.5488 30.0762 82.2407 29.2217 82.8105C26.7949 83.8958 24.3536 83.9363 21.8975 82.9326C19.7485 81.5698 18.4464 79.6167 17.9912 77.0732C17.9912 75.283 17.9912 73.4924 17.9912 71.7021C17.9912 69.2607 17.9912 66.8193 17.9912 64.3779Z" fill="#D4D4D4"/>
<path fill-rule="evenodd" clip-rule="evenodd" d="M31.6631 64.3779C36.7087 64.3779 41.7542 64.3779 46.7998 64.3779C46.7998 66.8193 46.7998 69.2607 46.7998 71.7021C46.8406 76.2603 46.7998 80.8174 46.6777 85.374C46.1489 87.3657 45.0503 88.9526 43.3818 90.1348C38.563 92.3804 34.8601 91.2002 32.2734 86.5947C31.8137 84.6355 31.5291 82.6824 31.4189 80.7354C31.6604 75.3013 31.7417 69.8486 31.6631 64.3779Z" fill="#DEDEDE"/>
<path fill-rule="evenodd" clip-rule="evenodd" d="M46.7998 64.3779C58.5186 64.3779 70.2373 64.3779 81.9561 64.3779C81.9561 66.8193 81.9561 69.2607 81.9561 71.7021C70.2373 71.7021 58.5186 71.7021 46.7998 71.7021C46.7998 69.2607 46.7998 66.8193 46.7998 64.3779Z" fill="#FBFBFB"/>
<path fill-rule="evenodd" clip-rule="evenodd" d="M81.956 64.3779C87.0017 64.3779 92.0471 64.3779 97.0927 64.3779C97.0141 69.8486 97.0954 75.3013 97.3369 80.7354C97.2268 82.6824 96.9421 84.6355 96.4824 86.5947C95.5259 88.6094 94.0205 90.0334 91.9658 90.8672C86.8659 92.0012 83.57 90.0889 82.0781 85.1299C81.956 80.6548 81.9153 76.1787 81.956 71.7021C81.956 69.2607 81.956 66.8193 81.956 64.3779Z" fill="#DEDEDE"/>
<path fill-rule="evenodd" clip-rule="evenodd" d="M97.0928 64.3779C101.65 64.3779 106.207 64.3779 110.765 64.3779C110.765 66.8193 110.765 69.2607 110.765 71.7021C110.851 73.9949 110.729 76.2737 110.398 78.5381C109.364 81.1946 107.452 82.8628 104.661 83.543C101.632 84.0669 99.1904 83.1311 97.3369 80.7354C97.0954 75.3013 97.0141 69.8486 97.0928 64.3779Z" fill="#D4D4D4"/>
<path fill-rule="evenodd" clip-rule="evenodd" d="M110.765 64.3779C112.636 64.3779 114.508 64.3779 116.38 64.3779C116.38 66.8193 116.38 69.2607 116.38 71.7021C114.508 71.7021 112.636 71.7021 110.765 71.7021C110.765 69.2607 110.765 66.8193 110.765 64.3779Z" fill="#FBFBFB"/>
<circle cx="64.5" cy="64.5" r="62.5" stroke="#FBFBFB" stroke-width="4"/>
</svg>
