<svg width="922" height="922" viewBox="0 0 922 922" fill="none" xmlns="http://www.w3.org/2000/svg">
<path d="M577.303 516.436C697.248 435.732 720.506 394.293 779.71 386.587C923.905 367.821 818.253 740.558 488.053 820.208C331.168 858.05 136.831 754.834 109.04 674.64C82.1703 597.109 154.513 568.024 261.33 609.608C368.147 651.192 516.191 557.554 577.303 516.436Z" stroke="#AEB8B2" stroke-width="1.33333" stroke-miterlimit="10"/>
<path d="M722.872 424.404C722.872 434.491 714.696 442.667 704.609 442.667C694.524 442.667 686.346 434.491 686.346 424.404C686.346 414.319 694.524 406.141 704.609 406.141C714.696 406.141 722.872 414.319 722.872 424.404Z" fill="#D2D4D1"/>
<path d="M715.511 783.25C715.511 793.337 707.334 801.513 697.248 801.513C687.161 801.513 678.985 793.337 678.985 783.25C678.985 773.163 687.161 764.989 697.248 764.989C707.334 764.989 715.511 773.163 715.511 783.25Z" stroke="#AEB8B2" stroke-width="1.33333" stroke-miterlimit="10"/>
<path d="M477.642 367.821C477.642 377.907 469.468 386.084 459.381 386.084C449.294 386.084 441.118 377.907 441.118 367.821C441.118 357.736 449.294 349.558 459.381 349.558C469.468 349.558 477.642 357.736 477.642 367.821Z" stroke="#AEB8B2" stroke-width="1.33333" stroke-miterlimit="10"/>
<path d="M407.701 440.782L389.176 466.569H424.382L407.701 440.782Z" stroke="#AEB8B2" stroke-width="1.33333" stroke-miterlimit="10" stroke-linecap="round" stroke-linejoin="round"/>
<path d="M320.646 768.352L309.001 790.773H344.205L320.646 768.352Z" fill="#D2D4D1"/>
<path d="M148.935 484.633C148.935 503.875 133.336 519.473 114.094 519.473C94.8515 519.473 79.2531 503.875 79.2531 484.633C79.2531 465.39 94.8515 449.792 114.094 449.792C133.336 449.792 148.935 465.39 148.935 484.633Z" stroke="#AEB8B2" stroke-width="1.33333" stroke-miterlimit="10" stroke-linecap="round" stroke-linejoin="round"/>
<path d="M106.45 480.85C106.228 479.694 106.118 478.665 106.118 477.763C106.118 476.29 106.323 475.095 106.735 474.177C107.147 473.243 107.669 472.483 108.302 471.897C108.936 471.296 109.585 470.749 110.25 470.259C111.136 469.609 111.92 468.921 112.601 468.193C113.281 467.449 113.622 466.38 113.622 464.987C113.622 463.625 113.218 462.596 112.411 461.9C111.603 461.203 110.566 460.855 109.3 460.855C107.812 460.855 106.577 461.251 105.595 462.042C104.614 462.834 103.917 463.625 103.505 464.417L100.133 459.81C100.941 458.812 102.144 457.863 103.743 456.96C105.358 456.042 107.257 455.583 109.442 455.583C112.957 455.583 115.561 456.351 117.255 457.886C118.949 459.422 119.796 461.583 119.796 464.369C119.796 465.588 119.606 466.609 119.226 467.433C118.862 468.24 118.379 468.945 117.777 469.546C117.176 470.132 116.535 470.702 115.854 471.256C115.126 471.842 114.421 472.475 113.74 473.156C113.06 473.836 112.498 474.676 112.054 475.673C111.611 476.654 111.389 477.905 111.389 479.425V480.85H106.45ZM106.403 492.486V485.409H111.769V492.486H106.403Z" fill="#454545"/>
<path d="M507.709 229.936C507.709 249.178 492.11 264.776 472.868 264.776C453.626 264.776 438.027 249.178 438.027 229.936C438.027 210.694 453.626 195.095 472.868 195.095C492.11 195.095 507.709 210.694 507.709 229.936Z" fill="#454545"/>
<path d="M465.225 226.151C465.003 224.995 464.892 223.966 464.892 223.064C464.892 221.592 465.098 220.396 465.51 219.478C465.921 218.544 466.444 217.784 467.077 217.198C467.71 216.597 468.359 216.051 469.024 215.56C469.911 214.911 470.694 214.222 471.375 213.494C472.056 212.75 472.396 211.681 472.396 210.288C472.396 208.927 471.993 207.897 471.185 207.201C470.378 206.504 469.341 206.156 468.074 206.156C466.586 206.156 465.351 206.552 464.37 207.343C463.388 208.135 462.692 208.927 462.28 209.718L458.908 205.111C459.715 204.114 460.918 203.164 462.517 202.261C464.132 201.343 466.032 200.884 468.217 200.884C471.731 200.884 474.336 201.652 476.03 203.188C477.723 204.723 478.57 206.884 478.57 209.671C478.57 210.89 478.38 211.911 478.001 212.734C477.636 213.541 477.154 214.246 476.552 214.847C475.95 215.433 475.309 216.003 474.628 216.557C473.9 217.143 473.196 217.776 472.515 218.457C471.834 219.138 471.272 219.977 470.829 220.974C470.386 221.956 470.164 223.206 470.164 224.726V226.151H465.225ZM465.177 237.787V230.71H470.544V237.787H465.177Z" fill="#F7F7F7"/>
<path d="M222.228 499.21C222.228 508.9 214.371 516.753 204.68 516.753C194.99 516.753 187.133 508.9 187.133 499.21C187.133 489.518 194.99 481.662 204.68 481.662C214.371 481.662 222.228 489.518 222.228 499.21Z" fill="#D2D4D1"/>
<path d="M826.293 185.599H669.265C660.303 185.599 653.038 192.866 653.038 201.829V296.336C653.038 305.3 660.303 312.565 669.265 312.565H701.227L694.889 328.944C693.054 333.685 698.544 337.887 702.643 334.876L732.996 312.565H826.293C835.255 312.565 842.52 305.3 842.52 296.336V201.829C842.52 192.866 835.255 185.599 826.293 185.599Z" fill="#91D8B1"/>
<path d="M671.563 212.093H821.768" stroke="#F7F7F7" stroke-width="1.33333" stroke-miterlimit="10" stroke-linecap="round" stroke-linejoin="round"/>
<path d="M671.563 225.737H821.768" stroke="#F7F7F7" stroke-width="1.33333" stroke-miterlimit="10" stroke-linecap="round" stroke-linejoin="round"/>
<path d="M671.563 239.379H821.768" stroke="#F7F7F7" stroke-width="1.33333" stroke-miterlimit="10" stroke-linecap="round" stroke-linejoin="round"/>
<path d="M671.563 253.022H821.768" stroke="#F7F7F7" stroke-width="1.33333" stroke-miterlimit="10" stroke-linecap="round" stroke-linejoin="round"/>
<path d="M671.563 266.666H821.768" stroke="#F7F7F7" stroke-width="1.33333" stroke-miterlimit="10" stroke-linecap="round" stroke-linejoin="round"/>
<path d="M671.563 280.31H821.768" stroke="#F7F7F7" stroke-width="1.33333" stroke-miterlimit="10" stroke-linecap="round" stroke-linejoin="round"/>
<path d="M335.315 486.027C335.315 486.027 333.718 472.604 331.64 466.213C329.563 459.822 320.773 447.677 320.773 447.677C320.773 447.677 317.258 455.188 322.372 461.42C322.372 461.42 322.051 471.326 322.532 474.843C322.532 474.843 305.92 460.653 302.724 459.213C300.697 457.598 298.225 455.625 295.206 453.22C284.181 444.432 276.831 447.148 277.789 447.786C278.448 448.227 291.059 458.424 298.863 464.743L297.843 466.205C295.471 464.314 291.693 461.299 286.098 456.838C275.071 448.049 267.721 450.766 268.68 451.406C269.482 451.94 287.941 466.89 293.959 471.767L292.182 474.312C289.849 472.447 285.966 469.348 280.026 464.614C268.999 455.826 261.649 458.542 262.608 459.182C263.43 459.729 282.768 475.396 288.297 479.877L286.414 482.575C284.36 480.709 278.66 475.647 273.154 471.806C266.283 467.013 261.33 469.25 261.33 469.25C261.33 469.25 261.33 469.25 264.365 471.964C267.402 474.682 283.222 487.146 283.222 487.146C283.222 487.146 307.375 508.719 313.436 510.795L319.346 516.436L341.092 492.896L335.315 486.027Z" fill="#F8A58D"/>
<path d="M509.186 635.033C496.219 653.731 478.081 665.278 453.967 660.371C389.392 647.246 313.144 521.896 313.144 521.896L316.982 517.744L345.442 486.954L444.487 576.958L475.416 532.186L505.627 488.463L520.557 466.855C520.557 466.855 529.302 480.681 534.804 524.631C538.24 552.179 530.985 603.665 509.186 635.033Z" fill="#008045"/>
<path d="M509.186 635.033C496.219 653.731 478.081 665.278 453.967 660.371C389.392 647.246 313.144 521.896 313.144 521.896L316.982 517.744L319.349 516.431C319.349 516.431 410.211 641.43 448.5 622.837C472.175 611.34 475.977 565.516 475.416 532.186L505.627 488.463L509.186 635.033Z" fill="#006E3B"/>
<path d="M751.734 622.837L745.85 726.444H723.034L732.002 622.837H751.734Z" fill="#525252"/>
<path d="M612.079 622.837L606.193 726.444H583.377L592.346 622.837H612.079Z" fill="#525252"/>
<path d="M754.071 640.771H573.3C555.332 640.771 540.768 626.206 540.768 608.24V507.122C540.768 489.154 555.332 474.588 573.3 474.588H754.071C772.037 474.588 786.602 489.154 786.602 507.122V608.24C786.602 626.206 772.037 640.771 754.071 640.771Z" fill="#525252"/>
<path d="M738.823 640.771H558.053C540.085 640.771 525.518 626.206 525.518 608.24V507.122C525.518 489.154 540.085 474.588 558.053 474.588H738.823C756.789 474.588 771.356 489.154 771.356 507.122V608.24C771.356 626.206 756.789 640.771 738.823 640.771Z" fill="#3A3A3A"/>
<path d="M602.567 427.937C602.567 427.937 638.219 422.212 686.184 471.832L697.248 726.444H496.79C496.79 726.444 474.902 554.673 500.415 493.587C525.931 432.499 571.756 425.204 602.567 427.937Z" fill="#008E4D"/>
<path d="M532.632 289.849L541.433 277.799L616.469 302.919L615.817 331.105H620.773C630.836 331.105 638.994 339.263 638.994 349.326C638.994 359.39 630.836 367.548 620.773 367.548H614.974L614.091 405.802V439.418L559.766 446.888L558.435 424.404L557.731 412.593L549.848 408.83C527.284 398.063 512.912 375.285 512.912 350.283C512.912 328.549 519.82 307.389 532.632 289.849Z" fill="#F8A58D"/>
<path d="M557.731 412.593L558.435 424.404C560.432 424.166 562.523 423.858 564.694 423.462C598.247 417.345 611.382 387.017 610.019 371.395C610.019 371.395 598.706 408.972 557.731 412.593Z" fill="#FF8C6B"/>
<path d="M621.332 344.105C619.929 345.169 618.632 346.578 618.168 348.335C618.168 348.335 620.971 349.27 621.225 352.411C621.48 355.551 618.168 356.91 618.168 356.91C618.168 356.91 620.714 361.153 624.959 358.861C629.204 356.571 628.501 348.57 624.281 346.893C624.281 346.893 630.987 346.13 633.449 348.592C633.449 348.592 634.011 346.123 631.208 343.937C628.319 341.686 624.251 341.896 621.332 344.105Z" fill="#FF8C6B"/>
<path d="M532.632 289.849C532.632 289.849 542.791 307.336 555.922 312.995C569.049 318.654 583.084 310.417 596.211 317.931C609.341 325.446 600.965 339.528 603.908 346.294C606.851 353.061 610.113 353.967 610.113 353.967C610.113 353.967 611.88 334.727 615.817 331.105C615.817 331.105 627.607 331.003 631.275 334.441C631.275 334.441 637.862 321.145 638.994 310.732C640.126 300.319 628.581 296.924 628.581 296.924C628.581 296.924 625.865 272.025 595.306 262.744C564.749 253.463 541.433 268.177 529.21 262.744C516.986 257.312 505.896 265.462 505.217 277.799C504.537 290.133 512.912 294.66 512.912 294.66C512.912 294.66 507.253 299.432 509.518 306.779C511.78 314.127 518.885 315.824 518.885 315.824C518.885 315.824 527.248 297.194 532.632 289.849Z" fill="#361F16"/>
<path d="M538.717 379.344L569.833 377.817C569.833 377.817 562.626 389.023 552.378 388.914C542.934 388.815 538.717 379.344 538.717 379.344Z" fill="#F7F7F7"/>
<path d="M574.48 328.669C574.089 328.669 573.694 328.538 573.368 328.271C566.801 322.858 560.344 327.456 560.277 327.504C559.495 328.077 558.398 327.904 557.83 327.122C557.259 326.342 557.428 325.245 558.21 324.673C561.199 322.492 568.68 319.866 575.597 325.564C576.344 326.18 576.449 327.284 575.833 328.031C575.488 328.451 574.985 328.669 574.48 328.669Z" fill="#361F16"/>
<path d="M535.787 328.669C535.396 328.669 535.002 328.538 534.675 328.271C528.109 322.858 521.649 327.456 521.585 327.504C520.803 328.077 519.706 327.904 519.136 327.122C518.566 326.342 518.736 325.245 519.518 324.673C522.507 322.492 529.986 319.866 536.903 325.564C537.65 326.18 537.756 327.284 537.141 328.031C536.796 328.451 536.294 328.669 535.787 328.669Z" fill="#361F16"/>
<path d="M624.054 430.594L614.207 417.788L575.097 431.57L568.765 442.558L564.482 432.687L558.54 426.2L552.378 438.086C552.378 438.086 552.562 450.006 567.648 453.172C582.734 456.338 615.699 444.046 624.054 430.594Z" fill="#94796B"/>
<path d="M631.275 334.441C631.275 334.441 625.195 332.117 619.422 337.426C613.648 342.733 615.605 347.948 615.605 347.948C615.605 347.948 618.271 341.66 623.986 342.346C629.698 343.032 633.855 358.47 626.221 361.358C618.585 364.243 608.839 359.845 609.178 347.948C609.519 336.052 613.882 329.324 621.076 328.3C628.269 327.275 631.114 333.316 631.275 334.441Z" fill="#005B31"/>
<path d="M577.284 394.238C576.547 394.238 575.889 393.716 575.745 392.966C575.581 392.114 576.136 391.291 576.989 391.127C606.569 385.438 616.589 357.583 616.687 357.305C616.971 356.486 617.86 356.052 618.684 356.336C619.503 356.62 619.936 357.513 619.652 358.332C619.547 358.63 608.979 388.171 577.581 394.21C577.482 394.229 577.38 394.238 577.284 394.238Z" fill="#005B31"/>
<path d="M570.683 393.207C570.683 396.862 573.648 399.825 577.303 399.825C580.96 399.825 583.923 396.862 583.923 393.207C583.923 389.55 580.96 386.587 577.303 386.587C573.648 386.587 570.683 389.55 570.683 393.207Z" fill="#525252"/>
<path d="M623.239 345.199C623.239 345.199 622.402 352.512 624.008 356.423C625.616 360.332 628.129 358.308 628.618 353.557C629.106 348.809 624.358 342.147 623.239 345.199Z" fill="#525252"/>
<path d="M560.305 342.744C560.305 342.744 560.316 349.569 569.25 350.701C578.184 351.833 579.811 342.744 579.811 342.744C579.811 342.744 574.738 337.989 568.177 337.847C561.618 337.708 560.305 342.744 560.305 342.744Z" fill="#F7F7F7"/>
<path d="M519.49 342.744C519.49 342.744 519.503 349.569 528.243 350.701C536.984 351.833 538.155 342.752 538.155 342.752C538.155 342.752 533.611 337.989 527.192 337.847C520.777 337.708 519.49 342.744 519.49 342.744Z" fill="#F7F7F7"/>
<path d="M538.155 342.752C538.155 342.752 533.473 337.609 528.461 336.685C523.451 335.761 520.012 338.203 519.49 342.752C519.49 342.752 520.484 338.992 525.496 338.531C530.504 338.07 538.155 342.752 538.155 342.752Z" fill="#361F16"/>
<path d="M579.811 342.744C579.811 342.744 574.917 337.369 569.682 336.404C564.445 335.44 560.849 337.99 560.305 342.744C560.305 342.744 561.343 338.816 566.58 338.333C571.817 337.852 579.811 342.744 579.811 342.744Z" fill="#361F16"/>
<path d="M546.737 342.94L542.617 367.81C542.617 367.81 539.337 368.062 534.797 366.213C534.797 366.213 545.558 345.733 546.737 342.94Z" fill="#FF8C6B"/>
<path d="M424.142 726.444C424.142 726.444 423.471 706.586 445.837 700.364C468.201 694.141 495.446 712.335 499.818 726.444H424.142Z" fill="#525252"/>
<path d="M574.482 344.491C574.482 348.407 571.974 351.581 568.88 351.581C565.783 351.581 563.276 348.407 563.276 344.491C563.276 340.576 565.783 337.402 568.88 337.402C571.974 337.402 574.482 340.576 574.482 344.491Z" fill="#361F16"/>
<path d="M535.188 344.714C535.188 348.507 532.741 351.581 529.724 351.581C526.705 351.581 524.258 348.507 524.258 344.714C524.258 340.919 526.705 337.845 529.724 337.845C532.741 337.845 535.188 340.919 535.188 344.714Z" fill="#361F16"/>
<path d="M593.655 362.224C593.655 365.315 589.995 367.821 585.479 367.821C580.965 367.821 577.303 365.315 577.303 362.224C577.303 359.132 580.965 356.626 585.479 356.626C589.995 356.626 593.655 359.132 593.655 362.224Z" fill="#FF8C6B"/>
<path d="M526.892 359.541C526.892 362.632 523.231 365.138 518.717 365.138C514.201 365.138 510.541 362.632 510.541 359.541C510.541 356.449 514.201 353.943 518.717 353.943C523.231 353.943 526.892 356.449 526.892 359.541Z" fill="#FF8C6B"/>
<path d="M741.271 663.228C735.612 680.261 725.256 693.143 712.988 702.254C704.629 708.441 695.393 712.874 686.176 715.66C647.694 727.331 505.171 726.436 505.171 726.436L510.534 683.381L670.124 647.509C670.124 647.509 649.483 582.022 650.394 529.117C651.216 479.875 665.902 459.582 682.444 469.169C683.689 469.905 684.932 470.781 686.176 471.832C686.176 471.832 711.375 509.385 737.382 586.508C748.019 618.052 747.825 643.427 741.271 663.228Z" fill="#029D56"/>
<path d="M494.323 689.099L460.465 682.931C460.465 682.931 454.244 681.863 448.022 684.554C441.798 687.244 434.736 700.364 434.736 700.364C434.736 700.364 440.454 700.449 444.323 696.958C448.19 693.468 448.695 690.442 448.695 690.442L461.118 691.41L461.341 694.292C457.192 695.199 445.378 697.893 439.613 700.364C432.551 703.39 428.85 712.64 428.85 712.64C428.85 712.64 438.099 711.293 442.809 705.577L462.04 703.394L462.178 705.19C458.216 705.459 451.135 706.348 444.491 709.276C434.568 713.648 431.54 719.534 431.54 719.534C431.54 719.534 441.463 719.534 448.442 714.152L453.141 713.763C448.498 716.741 444.491 723.906 444.491 723.906C444.491 723.906 446.508 724.412 451.05 722.393C455.59 720.375 456.766 718.074 456.766 718.074L469.999 719.064C476.868 720.045 487.262 721.01 493.204 719.029L505.857 720.974L509.827 689.099H494.323Z" fill="#F8A58D"/>
<path d="M776.184 747.281H139.535C133.781 747.281 129.116 742.618 129.116 736.864C129.116 731.109 133.781 726.444 139.535 726.444H776.184C781.939 726.444 786.602 731.109 786.602 736.864C786.602 742.618 781.939 747.281 776.184 747.281Z" fill="#525252"/>
<path d="M532.134 747.281H135.368C131.915 747.281 129.116 742.618 129.116 736.864C129.116 731.109 131.915 726.444 135.368 726.444H333.751H532.134C535.586 726.444 538.387 731.109 538.387 736.864C538.387 742.618 535.586 747.281 532.134 747.281Z" fill="#3A3A3A"/>
<path d="M412.154 686.292H192.901C185.506 686.292 179.106 681.15 177.516 673.927L149.176 545.215C147.786 538.902 152.592 532.923 159.056 532.923H380.78C387.334 532.923 393.004 537.482 394.415 543.88L422.844 672.994C424.347 679.824 419.147 686.292 412.154 686.292Z" fill="#3A3A3A"/>
<path d="M228.855 664.493C227.024 673.713 216.261 679.348 204.813 677.078C193.367 674.804 185.571 665.487 187.402 656.263C189.233 647.039 199.997 641.404 211.444 643.676C222.892 645.95 230.686 655.269 228.855 664.493Z" fill="#454545"/>
<path d="M422.844 672.994L394.415 543.88C393.004 537.482 387.334 532.923 380.781 532.923H368C374.553 532.923 380.224 537.482 381.632 543.88L410.061 672.994C411.566 679.824 406.366 686.292 399.374 686.292H412.154C419.147 686.292 424.347 679.824 422.844 672.994Z" fill="#525252"/>
<path d="M384.9 721.273C384.9 724.13 382.593 726.437 379.737 726.437H197.728C194.809 726.437 192.158 725.245 190.242 723.331C188.311 721.415 187.133 718.778 187.133 715.843C187.133 713.755 187.762 711.716 188.923 709.973L233.97 642.481C235.258 640.584 237.391 639.437 239.683 639.437H318.444C321.269 639.437 323.043 642.498 321.616 644.946L283.585 710.648C282.171 713.08 283.93 716.11 286.724 716.11H379.737C381.164 716.11 382.451 716.691 383.393 717.633C384.319 718.559 384.9 719.846 384.9 721.273Z" fill="#525252"/>
<path d="M330.863 608.712H219.2C217.9 608.712 216.845 607.657 216.845 606.357C216.845 605.057 217.9 604.002 219.2 604.002H330.863C332.163 604.002 333.218 605.057 333.218 606.357C333.218 607.657 332.163 608.712 330.863 608.712Z" fill="#525252"/>
<path d="M336.246 622.837H224.583C223.281 622.837 222.228 621.782 222.228 620.482C222.228 619.182 223.281 618.129 224.583 618.129H336.246C337.546 618.129 338.601 619.182 338.601 620.482C338.601 621.782 337.546 622.837 336.246 622.837Z" fill="#525252"/>
<path d="M151.488 540.546H387.948C389.871 540.546 391.719 540.902 393.425 541.537C391.297 536.397 386.25 532.923 380.528 532.923H158.804C153.883 532.923 149.931 536.392 148.935 540.832C149.75 540.648 150.604 540.546 151.488 540.546Z" fill="#454545"/>
<path d="M394.409 664.493C392.578 673.713 381.815 679.348 370.367 677.078C358.92 674.804 351.125 665.487 352.956 656.263C354.786 647.039 365.551 641.404 376.997 643.676C388.444 645.95 396.239 655.269 394.409 664.493Z" fill="#454545"/>
<path d="M384.887 721.651C384.692 724.399 382.215 726.437 379.46 726.437H275.877C271.695 726.437 268.306 723.047 268.306 718.865C268.306 717.434 268.711 716.033 269.475 714.823L317.063 639.437H318.444C321.269 639.437 323.043 642.498 321.616 644.946L283.585 710.648C282.171 713.08 283.93 716.11 286.724 716.11H379.737C381.164 716.11 382.451 716.691 383.393 717.633C384.4 718.64 384.998 720.073 384.887 721.651Z" fill="#001C10"/>
<path d="M686.176 715.66C647.694 727.331 505.171 726.436 505.171 726.436L689.315 677.438C708.572 672.315 720.832 653.473 717.703 633.796C709.61 582.923 693.945 491.647 682.444 469.169C683.689 469.905 684.932 470.781 686.176 471.832C686.176 471.832 711.375 509.385 737.382 586.508C763.386 663.648 724.675 704.006 686.176 715.66Z" fill="#008045"/>
<path d="M675.317 649.315C675.317 649.315 701.647 648.944 723.031 668.469" stroke="#94796B" stroke-width="1.33333" stroke-miterlimit="10" stroke-linecap="round" stroke-linejoin="round"/>
<path d="M620.224 435.19C620.224 435.19 654.871 446.973 671.931 467.172" stroke="#029D56" stroke-width="1.33333" stroke-miterlimit="10" stroke-linecap="round" stroke-linejoin="round"/>
<path d="M447.756 582.848C447.756 582.848 466.888 607.633 469.339 636.171" stroke="#94796B" stroke-width="1.33333" stroke-miterlimit="10" stroke-linecap="round" stroke-linejoin="round"/>
<path d="M546.724 438.269C546.724 438.269 539.449 458.678 569.833 461.183C600.215 463.685 633.517 433.878 633.517 433.878" stroke="#029D56" stroke-width="1.33333" stroke-miterlimit="10" stroke-linecap="round" stroke-linejoin="round"/>
<path d="M505.171 689.099L498.057 719.776L505.857 720.974L509.827 689.099H505.171Z" fill="#FF8C6B"/>
<path d="M567.648 453.172C567.648 453.172 558.64 478.843 552.378 545.227" stroke="#029D56" stroke-width="1.33333" stroke-miterlimit="10" stroke-linecap="round" stroke-linejoin="round"/>
<path d="M625.831 297.207C625.831 297.207 611.64 293.849 598.8 298.789" stroke="#4B2E23" stroke-width="1.33333" stroke-miterlimit="10" stroke-linecap="round" stroke-linejoin="round"/>
<path d="M532.632 289.849C532.632 289.849 531.199 310.629 557.491 313.6" stroke="#4B2E23" stroke-width="1.33333" stroke-miterlimit="10" stroke-linecap="round" stroke-linejoin="round"/>
<path d="M628.17 283.509C628.17 283.509 631.231 291.769 628.581 296.925" stroke="#4B2E23" stroke-width="1.33333" stroke-miterlimit="10" stroke-linecap="round" stroke-linejoin="round"/>
<path d="M509.101 275.079C509.101 275.079 507.915 287.843 520.956 292.86" stroke="#4B2E23" stroke-width="1.33333" stroke-miterlimit="10" stroke-linecap="round" stroke-linejoin="round"/>
<path d="M513.842 298.789C513.842 298.789 511.422 308.341 520.436 312.455" stroke="#4B2E23" stroke-width="1.33333" stroke-miterlimit="10" stroke-linecap="round" stroke-linejoin="round"/>
<path d="M555.927 266.189C555.927 266.189 572.743 258.815 596.626 269.547C618.168 279.228 620.224 291.28 620.224 291.28" stroke="#4B2E23" stroke-width="1.33333" stroke-miterlimit="10" stroke-linecap="round" stroke-linejoin="round"/>
<path d="M628.17 302.344C628.17 302.344 632.914 304.583 632.914 311.3C632.914 318.018 629.661 324.867 629.661 324.867" stroke="#4B2E23" stroke-width="1.33333" stroke-miterlimit="10" stroke-linecap="round" stroke-linejoin="round"/>
<path d="M549.208 299.973C549.208 299.973 552.562 308.864 572.125 309.853C591.686 310.839 598.009 310.839 603.342 317.162C608.677 323.484 606.899 330.399 606.899 330.399" stroke="#4B2E23" stroke-width="1.33333" stroke-miterlimit="10" stroke-linecap="round" stroke-linejoin="round"/>
<path d="M541.881 93.7267H363.854C353.546 93.7267 345.188 102.086 345.188 112.395V142.875C345.188 153.185 353.546 161.542 363.854 161.542H387.434L381.948 180.489C380.926 184.016 384.813 186.932 387.915 184.964L424.83 161.542H541.881C552.191 161.542 560.55 153.185 560.55 142.875V112.395C560.55 102.086 552.191 93.7267 541.881 93.7267Z" fill="#D2D4D1"/>
<path d="M369.399 111.973H537.378" stroke="#F7F7F7" stroke-width="1.33333" stroke-miterlimit="10" stroke-linecap="round" stroke-linejoin="round"/>
<path d="M369.399 126.226H537.378" stroke="#F7F7F7" stroke-width="1.33333" stroke-miterlimit="10" stroke-linecap="round" stroke-linejoin="round"/>
<path d="M369.399 140.478H537.378" stroke="#F7F7F7" stroke-width="1.33333" stroke-miterlimit="10" stroke-linecap="round" stroke-linejoin="round"/>
<path d="M302.399 207.004C302.399 207.004 302.392 211.323 296.86 212.04C291.33 212.755 290.589 207.009 290.589 207.009C290.589 207.009 293.463 203.995 297.524 203.906C301.584 203.818 302.399 207.004 302.399 207.004Z" fill="#F7F7F7"/>
<path d="M287.037 228.927C287.037 228.927 278.682 229.209 275.302 232.307C271.922 235.405 284.408 236.344 287.037 235.123C289.665 233.904 290.834 228.536 287.037 228.927Z" fill="#F7F7F7"/>
<path d="M248.025 233.034L238.213 253.467C237.863 254.203 236.934 254.413 236.285 253.922L235.881 253.607L203.725 228.757C203.235 228.372 203.076 227.69 203.375 227.127L214.468 206.817L214.73 206.344C215.099 205.645 216.026 205.468 216.641 205.977L247.693 231.509C248.132 231.877 248.271 232.508 248.025 233.034Z" fill="#F7F7F7"/>
</svg>
