<svg width="794" height="861" viewBox="0 0 794 861" fill="none" xmlns="http://www.w3.org/2000/svg">
<g clip-path="url(#clip0_194_417)">
<path d="M116.279 799.742C271.317 881.417 522.683 881.419 677.719 799.743C832.757 718.063 832.757 585.64 677.719 503.962C522.681 422.284 271.315 422.284 116.277 503.96C-38.7598 585.638 -38.7597 718.063 116.279 799.742Z" fill="#F3F2F1"/>
<path d="M49.8118 697.56L57.0074 701.668C59.311 702.989 63.0438 702.985 65.3445 701.658L397.866 509.766C400.167 508.439 400.165 506.291 397.86 504.969L390.716 500.895C388.41 499.574 384.677 499.578 382.376 500.905L49.8074 692.762C47.5067 694.089 47.508 696.238 49.8118 697.56Z" fill="#DADBD8"/>
<path d="M601.631 750.407C562 772.128 497.751 772.128 458.12 750.407C418.491 728.692 418.491 693.476 458.12 671.755C497.751 650.039 562 650.039 601.631 671.755C641.259 693.476 641.259 728.692 601.631 750.407Z" fill="#DADBD8"/>
<path d="M702.476 602.794C671.902 619.553 622.333 619.553 591.759 602.794C561.184 586.041 561.184 558.873 591.759 542.116C622.333 525.361 671.902 525.361 702.476 542.116C733.049 558.873 733.049 586.041 702.476 602.794Z" fill="#DADBD8"/>
<path d="M685.406 529.347C685.287 519.52 692.152 499.082 702.199 486.2C712.247 473.319 728.171 463.798 739.611 467.557C750.265 471.057 749.284 484.985 736.52 494.362C723.757 503.736 704.546 515.552 699.077 531.559L687.432 551.256L685.406 529.347Z" fill="#00A358"/>
<path d="M687.432 551.256L686.767 544.053C688.046 543.536 688.783 543.053 688.783 543.053C688.783 543.053 690.632 524.39 691.754 504.492C694.536 497.96 698.102 491.451 702.199 486.201C710.74 475.25 723.53 466.728 734.198 466.728C736.082 466.728 737.896 466.993 739.611 467.557C744.469 469.153 746.909 472.919 746.913 477.432C746.919 482.815 743.463 489.261 736.52 494.362C723.757 503.736 704.546 515.552 699.078 531.559L687.432 551.256Z" fill="#00A358"/>
<path d="M684.842 542.801C685.154 542.772 685.422 542.538 685.481 542.214C691.66 508.595 718.477 481.005 734.652 474.785C735.023 474.643 735.208 474.227 735.066 473.858C734.925 473.489 734.517 473.296 734.136 473.444C717.654 479.782 690.342 507.826 684.069 541.957C683.998 542.345 684.255 542.718 684.644 542.791L684.842 542.801Z" fill="white"/>
<path d="M690.105 564.21C691.617 558.669 698.256 549.471 709.081 541.812C721.058 533.338 736.293 529.323 739.738 522.799C743.877 514.961 737.221 507.681 724.835 509.368C712.451 511.055 690.844 528.235 687.663 553.747L690.105 564.21Z" fill="#00A358"/>
<path d="M687.634 558.442C687.906 558.417 688.152 558.238 688.246 557.961C698.192 529.102 720.003 518.752 730.146 517.312C730.538 517.258 730.811 516.892 730.756 516.5C730.702 516.108 730.353 515.835 729.944 515.89C718.727 517.483 697.04 528.037 686.888 557.494C686.759 557.867 686.959 558.277 687.334 558.406L687.634 558.442Z" fill="white"/>
<path d="M58.7767 692.717L57.3147 691.874C54.9795 690.526 53.0861 687.246 53.0861 684.55L53.0868 191.667C53.0868 188.971 54.98 185.691 57.3154 184.345L375.033 1.00037C377.369 -0.346069 381.156 -0.346069 383.492 1.00037L384.953 1.84473C387.289 3.19305 389.182 6.47052 389.182 9.16718V502.051C389.182 504.748 387.289 508.026 384.953 509.374L67.2356 692.717C64.8995 694.065 61.1121 694.065 58.7767 692.717Z" fill="#00A358"/>
<path d="M388.943 7.40527C388.839 7.01097 388.707 6.61284 388.545 6.22239C388.707 6.61284 388.841 7.00905 388.943 7.40527ZM384.98 1.86004C384.97 1.85427 384.962 1.84848 384.953 1.84463L384.872 1.79852L384.955 1.84463C384.962 1.8504 384.972 1.85427 384.98 1.86004ZM382.442 0.517493C381.599 0.211669 380.654 0.0385728 379.694 0.000104427C380.654 0.0385728 381.601 0.211669 382.442 0.517493Z" fill="white"/>
<path d="M64.2373 193.221L54.336 187.509C55.0891 186.18 56.1519 185.027 57.326 184.343L375.031 1.00414C376.205 0.32901 377.739 -0.00950623 379.27 -0.00950623C379.411 -0.00950623 379.553 -0.00559998 379.694 0.000167847C380.654 0.0386353 381.599 0.211731 382.442 0.517548C382.815 0.654114 383.169 0.815643 383.492 1.00414L384.872 1.79858L384.953 1.8447C384.962 1.84854 384.97 1.85432 384.98 1.86009C386.475 2.74103 387.8 4.41827 388.545 6.22244C388.707 6.6129 388.839 7.01103 388.943 7.40533C389.036 7.76886 389.103 8.13045 389.142 8.48819C388.943 6.99178 388.056 6.14543 386.838 6.14543C386.269 6.14543 385.63 6.3282 384.955 6.71674L67.2274 190.076C66.0532 190.74 65.0122 191.913 64.2373 193.221Z" fill="#5CC8BC"/>
<path d="M55.0124 689.758C54.9479 689.674 54.8846 689.585 54.8223 689.496C54.8846 689.585 54.9479 689.671 55.0131 689.758H55.0124Z" fill="#D5D7D4"/>
<path d="M58.1715 692.368L57.3043 691.876C56.4586 691.385 55.6716 690.639 55.0124 689.758H55.0131C55.6755 690.637 56.4661 691.383 57.3147 691.873L58.1715 692.368Z" fill="#C0C1BF"/>
<path d="M62.9843 693.722C61.4646 693.722 59.9454 693.387 58.788 692.717L58.1715 692.368L57.3147 691.874C56.4661 691.383 55.6755 690.637 55.0131 689.758C54.9479 689.671 54.8846 689.585 54.8223 689.496C53.7753 688 53.0959 686.169 53.0959 684.547V191.671C53.0959 190.321 53.5604 188.815 54.336 187.509L64.2373 193.221C63.4842 194.548 62.9964 196.054 62.9964 197.383V690.281C62.9964 692.185 63.9487 693.291 65.3303 693.291C65.6994 693.291 66.0984 693.212 66.5185 693.049C65.4723 693.497 64.2283 693.722 62.9843 693.722Z" fill="#00A358"/>
<path d="M100.471 514.457L99.0089 513.615C96.6735 512.266 94.7801 508.987 94.7801 506.292V417.702C94.7801 415.005 96.6743 411.727 99.0104 410.379L387.462 243.755C389.798 242.407 393.585 242.407 395.921 243.755L397.381 244.598C399.717 245.946 401.61 249.225 401.61 251.92L401.608 340.513C401.608 343.207 399.715 346.487 397.379 347.835L108.929 514.459C106.594 515.806 102.806 515.806 100.471 514.457Z" fill="#E7E8E5"/>
<path d="M401.568 251.241C401.281 249.05 399.509 248.252 397.383 249.47L108.922 416.113C107.747 416.777 106.706 417.95 105.931 419.256L96.0301 413.543C96.7832 412.216 97.8461 411.064 99.0201 410.377L387.458 243.757C389.807 242.407 393.594 242.407 395.921 243.757L397.383 244.6C399.509 245.838 401.302 248.697 401.568 251.241Z" fill="#FAFAF9"/>
<path d="M108.213 514.79C105.887 515.786 102.587 515.677 100.482 514.459L98.9983 513.617C96.672 512.267 94.7891 508.989 94.7891 506.289V417.705C94.7891 416.355 95.2544 414.849 96.0301 413.543L105.931 419.256C105.177 420.585 104.69 422.091 104.69 423.418V512.022C104.69 514.436 106.219 515.565 108.213 514.79Z" fill="#DADBD8"/>
<path d="M149.716 410.164C166.169 400.67 179.504 408.056 179.503 426.665C179.501 445.272 166.15 467.899 149.681 477.204C133.212 486.51 119.862 479.114 119.87 460.698C119.879 442.279 133.264 419.66 149.716 410.164Z" fill="#00A358"/>
<path d="M100.471 634.513L99.0089 633.671C96.6735 632.323 94.7801 629.045 94.7801 626.349V537.758C94.7801 535.061 96.6743 531.784 99.0104 530.435L387.462 363.811C389.798 362.463 393.585 362.463 395.921 363.811L397.381 364.654C399.717 366.002 401.61 369.281 401.61 371.978L401.608 460.569C401.608 463.264 399.715 466.543 397.379 467.891L108.929 634.515C106.594 635.862 102.806 635.862 100.471 634.513Z" fill="#E7E8E5"/>
<path d="M401.568 371.297C401.281 369.106 399.509 368.308 397.383 369.526L108.922 536.169C107.747 536.832 106.706 538.006 105.931 539.312L96.0301 533.599C96.7832 532.272 97.8461 531.12 99.0201 530.433L387.458 363.815C389.807 362.463 393.594 362.463 395.921 363.815L397.383 364.656C399.509 365.896 401.302 368.752 401.568 371.297Z" fill="#FAFAF9"/>
<path d="M108.213 634.846C105.887 635.843 102.587 635.733 100.482 634.515L98.9983 633.673C96.672 632.323 94.7891 629.045 94.7891 626.345V537.764C94.7891 536.411 95.2544 534.907 96.0301 533.599L105.931 539.312C105.177 540.641 104.69 542.147 104.69 543.474V632.08C104.69 634.492 106.219 635.621 108.213 634.846Z" fill="#DADBD8"/>
<path d="M149.716 530.22C166.169 520.726 179.504 528.112 179.503 546.721C179.501 565.328 166.15 587.955 149.681 597.261C133.212 606.566 119.862 599.171 119.87 580.754C119.879 562.335 133.264 539.716 149.716 530.22Z" fill="#00A358"/>
<path d="M100.471 313.681L99.0089 312.839C96.6735 311.49 94.7801 308.213 94.7801 305.516V216.925C94.7801 214.229 96.6743 210.951 99.0104 209.603L387.462 42.9789C389.798 41.6326 393.585 41.6326 395.921 42.9789L397.381 43.8215C399.717 45.1698 401.61 48.4492 401.61 51.1458L401.608 139.737C401.608 142.431 399.715 145.711 397.379 147.059L108.929 313.683C106.594 315.031 102.806 315.029 100.471 313.681Z" fill="#E7E8E5"/>
<path d="M401.568 50.4649C401.281 48.2741 399.509 47.4759 397.383 48.6953L108.922 215.337C107.747 216 106.706 217.173 105.931 218.479L96.0301 212.767C96.7832 211.44 97.8461 210.288 99.0201 209.601L387.458 42.9827C389.807 41.6306 393.594 41.6306 395.921 42.9827L397.383 43.8233C399.509 45.0639 401.302 47.9183 401.568 50.4649Z" fill="#FAFAF9"/>
<path d="M108.213 314.014C105.887 315.01 102.587 314.9 100.482 313.683L98.9983 312.841C96.672 311.49 94.7891 308.213 94.7891 305.512V216.931C94.7891 215.579 95.2544 214.075 96.0301 212.767L105.931 218.479C105.177 219.808 104.69 221.315 104.69 222.642V311.248C104.69 313.66 106.219 314.789 108.213 314.014Z" fill="#DADBD8"/>
<path d="M149.716 209.388C166.169 199.894 179.504 207.279 179.503 225.889C179.501 244.496 166.15 267.123 149.681 276.428C133.212 285.734 119.862 278.338 119.87 259.922C119.879 241.503 133.264 218.883 149.716 209.388Z" fill="#00A358"/>
<path d="M120.744 426.159L119.283 425.317C116.947 423.968 115.053 420.691 115.053 417.994L115.054 329.403C115.054 326.708 116.947 323.429 119.284 322.081L407.735 155.457C410.071 154.108 413.858 154.108 416.194 155.457L417.654 156.299C419.99 157.647 421.884 160.927 421.884 163.624V252.214C421.884 254.909 419.988 258.189 417.652 259.537L129.203 426.161C126.867 427.509 123.08 427.507 120.744 426.159Z" fill="#263E47"/>
<path d="M421.841 162.943C421.555 160.752 419.782 159.954 417.656 161.171L129.195 327.814C128.021 328.478 126.98 329.651 126.205 330.957L116.303 325.245C117.057 323.918 118.12 322.765 119.294 322.079L407.733 155.459C410.081 154.108 413.867 154.108 416.194 155.459L417.656 156.301C419.782 157.54 421.576 160.398 421.841 162.943Z" fill="#33535F"/>
<path d="M128.486 426.492C126.16 427.488 122.86 427.378 120.756 426.161L119.272 425.318C116.946 423.968 115.063 420.691 115.063 417.99V329.407C115.063 328.057 115.528 326.551 116.303 325.245L126.205 330.957C125.452 332.286 124.965 333.792 124.965 335.119V423.726C124.965 426.138 126.493 427.267 128.486 426.492Z" fill="#17282F"/>
<path d="M169.99 321.865C186.442 312.371 199.778 319.757 199.776 338.366C199.776 356.974 186.423 379.601 169.955 388.906C153.486 398.212 140.135 390.816 140.144 372.399C140.153 353.981 153.537 331.361 169.99 321.865Z" fill="#F3F2F1"/>
<path d="M170.579 375.39C169.179 376.198 167.844 376.267 166.926 375.571L153.841 365.675C152.091 364.358 152.311 360.707 154.332 357.525C156.348 354.335 159.408 352.834 161.148 354.158L170.267 361.051L195.594 306.64C197.176 303.243 200.201 300.967 202.35 301.546C204.504 302.127 204.965 305.355 203.386 308.748L174.475 370.864C173.603 372.738 172.24 374.359 170.771 375.277L170.579 375.39Z" fill="#00A358"/>
<path d="M421.812 294.51L413.448 289.685L413.45 289.706C409.811 287.615 405.364 289.683 403.013 291.127L397.795 288.117C391.46 284.293 382.657 292.289 380.687 294.21L378.43 292.908L378.431 292.912C371.714 288.865 359.513 299.694 359.513 299.694V259.395L364.814 256.827L356.378 251.951L356.359 251.941L356.301 251.907L356.299 251.912C354.362 250.833 351.708 251.007 348.78 252.697C342.851 256.117 338.045 264.438 338.045 271.281V364.7C330.33 358.98 322.126 355.468 314.929 356.749C308.441 357.901 302.643 363.427 300.96 366.393C297.409 372.648 303.267 376.573 310.813 385.2C318.291 393.749 324.887 404.045 331.7 410.397C338.514 416.75 343.452 418.402 343.452 418.402V430.579L351.741 435.365L406.525 394.178V382.001C406.525 382.001 414.352 350.811 416.852 337.776C419.259 325.222 421.472 305.21 417.337 294.818L421.812 294.512V294.51Z" fill="#00A358"/>
<path d="M363.844 426.265C362.276 415.915 360.021 401.88 360.021 401.88L318.578 377.964L300.428 367.489C300.067 368.37 299.899 369.21 299.899 370.033C299.905 374.305 304.469 378.068 310.153 384.453C304.471 378.071 299.907 374.311 299.896 370.041C299.894 368.883 300.225 367.687 300.96 366.392C302.643 363.426 308.441 357.901 314.929 356.748C315.928 356.57 316.946 356.485 317.979 356.485C324.392 356.485 331.4 359.774 338.045 364.7V271.281C338.045 264.438 342.851 256.117 348.78 252.697C350.5 251.705 352.124 251.235 353.565 251.235C354.577 251.235 355.499 251.466 356.299 251.912L356.301 251.907L356.359 251.941L356.378 251.951L364.814 256.827L359.513 259.394V299.694C359.513 299.694 368.174 292.006 374.92 292.006C376.18 292.006 377.373 292.275 378.432 292.912L378.43 292.908L380.687 294.21C382.286 292.652 388.382 287.094 394.008 287.094C395.316 287.094 396.6 287.396 397.795 288.117L403.013 291.127C404.649 290.123 407.296 288.817 409.981 288.817C411.156 288.817 412.34 289.069 413.45 289.706L413.448 289.684L421.813 294.51V294.512L417.337 294.818L419.669 294.658L414.52 294.424L405.911 289.684C404.793 290.123 403.785 290.654 403.013 291.127L405.703 292.691L411.341 300.802L417.764 296.066C417.627 295.653 417.498 295.228 417.346 294.841C419.019 299.061 419.65 304.86 419.646 311.102C419.642 320.238 418.282 330.322 416.852 337.776C414.352 350.811 406.525 382.001 406.525 382.001V394.178L398.697 400.062C395.592 396.459 393.733 393.782 391.741 393.782C391.22 393.782 390.689 393.965 390.125 394.363C388.095 395.792 389.398 398.644 392.413 402.762C392.767 403.245 393.084 403.678 393.371 404.066L363.844 426.265ZM338.045 369.272L346.334 369.483V276.065L338.045 271.281V369.272ZM367.802 304.479L377.389 300.961L375.992 298.953L367.802 294.164V294.068L367.77 294.143L367.802 294.164V304.479ZM380.687 294.21L386.459 297.547L388.57 299.4L394.606 294.81L386.29 289.783C383.652 291.433 381.535 293.383 380.687 294.21ZM310.696 385.065C310.692 385.063 310.69 385.059 310.686 385.055C310.69 385.059 310.692 385.061 310.696 385.065ZM310.609 384.969C310.607 384.965 310.606 384.963 310.604 384.961C310.606 384.963 310.607 384.967 310.609 384.969ZM310.571 384.923C310.567 384.921 310.563 384.915 310.559 384.911C310.563 384.917 310.567 384.919 310.571 384.923ZM310.525 384.873C310.523 384.871 310.523 384.869 310.521 384.867C310.521 384.869 310.525 384.871 310.525 384.873ZM310.486 384.826C310.482 384.825 310.481 384.821 310.477 384.817C310.479 384.821 310.482 384.825 310.486 384.826ZM310.446 384.782C310.44 384.776 310.436 384.773 310.432 384.767C310.436 384.773 310.442 384.776 310.446 384.782ZM310.321 384.642C310.315 384.634 310.309 384.628 310.303 384.621C310.309 384.626 310.315 384.634 310.321 384.642Z" fill="#5CC8BC"/>
<path d="M360.021 401.88L318.577 377.964L300.428 367.489C298.119 373.132 303.717 377.089 310.813 385.2C318.291 393.749 324.887 404.045 331.701 410.397C338.514 416.75 343.452 418.402 343.452 418.402V430.579L351.741 435.365L363.844 426.265C362.276 415.915 360.021 401.88 360.021 401.88Z" fill="#00A358"/>
<path d="M346.334 276.065L338.045 271.281V369.272L346.334 369.483V276.065Z" fill="#00A358"/>
<path d="M411.341 300.802L417.764 296.066C417.624 295.645 417.495 295.212 417.337 294.818L419.669 294.658L414.52 294.424L405.911 289.684C404.793 290.123 403.785 290.654 403.013 291.127L405.703 292.691L411.341 300.802Z" fill="#00A358"/>
<path d="M388.57 299.4L394.606 294.81L386.29 289.783C383.652 291.433 381.535 293.383 380.687 294.21L386.459 297.547L388.57 299.4Z" fill="#00A358"/>
<path d="M375.992 298.953L367.77 294.143L367.802 294.068V304.479L377.389 300.962L375.992 298.953Z" fill="#00A358"/>
<path d="M351.741 435.365L343.452 430.579V418.402C343.452 418.402 338.514 416.75 331.701 410.397C331.075 409.814 330.452 409.198 329.828 408.552C327.644 406.29 325.474 403.672 323.276 400.889C321.473 398.604 319.653 396.209 317.794 393.807C315.535 390.883 313.219 387.95 310.813 385.2C304.827 378.356 299.905 374.471 299.899 370.034C299.899 369.21 300.067 368.37 300.428 367.489L318.578 377.964L360.021 401.88C360.021 401.88 362.276 415.915 363.844 426.265L351.741 435.365Z" fill="#00A358"/>
<path d="M346.334 369.483L338.045 369.272V271.281L346.334 276.065V369.483Z" fill="#00A358"/>
<path d="M411.341 300.802L405.703 292.691L403.013 291.127C403.785 290.654 404.793 290.123 405.911 289.684L414.52 294.424L419.669 294.658L417.337 294.818C417.495 295.212 417.624 295.645 417.764 296.066L411.341 300.802Z" fill="#00A358"/>
<path d="M388.57 299.4L386.459 297.547L380.687 294.21C381.535 293.383 383.652 291.433 386.29 289.783L394.606 294.81L388.57 299.4Z" fill="#00A358"/>
<path d="M367.802 304.479V294.164L375.992 298.953L377.389 300.962L367.802 304.479Z" fill="#00A358"/>
<path d="M367.802 294.164L367.77 294.143L367.802 294.068V294.164Z" fill="#00A358"/>
<path d="M351.741 435.365V423.187C351.741 423.187 346.804 421.533 339.99 415.182C333.178 408.829 326.58 398.533 319.103 389.983C311.558 381.359 305.699 377.433 309.249 371.176C310.933 368.21 316.73 362.686 323.219 361.532C330.417 360.253 338.62 363.765 346.334 369.483V276.065C346.334 269.223 351.141 260.903 357.069 257.481C362.998 254.059 367.802 256.833 367.802 263.676V304.48C367.802 304.48 382.594 291.348 388.57 299.4C388.57 299.4 403.102 284.184 409.661 297.038C409.661 297.038 420.331 288.423 425.141 298.419C429.952 308.415 427.641 329.524 425.141 342.559C422.642 355.594 414.814 386.787 414.814 386.787V398.964L351.741 435.365Z" fill="#00A358"/>
<path d="M367.802 322C367.802 322 369.149 303.383 375.992 298.954L375.747 299.025C371.393 301.296 367.802 304.48 367.802 304.48V304.128C367.727 304.362 367.802 304.48 367.802 304.48V322Z" fill="#33535F"/>
<path d="M388.57 299.4V316.432C388.57 316.432 390.462 298.919 394.389 294.685C391.043 296.817 388.585 299.384 388.57 299.4Z" fill="#33535F"/>
<path d="M409.663 297.036V314.129C409.663 314.129 410.704 296.909 414.414 294.366C411.718 295.382 409.677 297.024 409.663 297.036Z" fill="#33535F"/>
<path d="M348.722 240.932C347.39 241.699 346.311 241.243 346.311 239.912V226.396C346.311 225.065 347.39 223.363 348.722 222.596C350.053 221.826 351.133 222.282 351.133 223.613V237.129C351.133 238.46 350.053 240.162 348.722 240.932Z" fill="#E7E8E5"/>
<path d="M328.524 262.245C327.583 263.874 326.055 264.755 325.114 264.213L317.29 259.697C316.349 259.154 316.349 257.392 317.29 255.763C318.233 254.132 319.759 253.251 320.7 253.796L328.524 258.31C329.465 258.854 329.465 260.616 328.524 262.245Z" fill="#E7E8E5"/>
<path d="M320.157 290.194V290.581C320.157 292.012 318.997 293.839 317.567 294.666L306.861 300.844C305.431 301.669 304.271 301.179 304.271 299.75V299.363C304.271 297.932 305.431 296.105 306.861 295.278L317.567 289.1C318.997 288.275 320.157 288.765 320.157 290.194Z" fill="#E7E8E5"/>
<path d="M377.289 257.609V257.223C377.289 255.794 378.447 253.965 379.879 253.139L390.583 246.961C392.014 246.136 393.173 246.625 393.173 248.056V248.442C393.173 249.872 392.014 251.701 390.583 252.526L379.879 258.704C378.447 259.529 377.289 259.04 377.289 257.609Z" fill="#E7E8E5"/>
<path d="M368.922 238.931C367.979 238.387 367.979 236.625 368.922 234.996L376.744 221.451C377.687 219.82 379.213 218.939 380.154 219.484C381.095 220.026 381.095 221.788 380.154 223.419L372.33 236.964C371.389 238.593 369.863 239.474 368.922 238.931Z" fill="#E7E8E5"/>
<path d="M673.311 555.932V553.743C672.447 556.311 668.441 567.363 662.366 572.902C657.536 577.307 650.948 582.393 649.272 587.301C647.528 592.408 658.441 594.122 662.953 593.323C668.196 592.396 674.979 589.423 678.672 584.887C681.267 581.7 682.92 577.921 684.773 575.414C686.626 572.906 690.9 570.108 691.902 567.207C692.453 565.613 691.798 562.122 691.025 559.171C690.315 556.465 689.545 553.489 688.622 553.743C688.62 554.074 688.622 555.413 688.622 555.413C687.509 556.644 684.434 557.867 680.967 558C678.725 558.084 673.291 557.64 673.311 555.932Z" fill="#17282F"/>
<path d="M657.994 576.776C659.491 575.439 661 574.135 662.366 572.887C666.611 569.017 669.845 562.454 671.704 557.977C672.764 555.419 673.311 552.689 673.311 549.921V541.199H688.622V555.397V555.399V555.778L688.545 555.817C687.808 558.998 680.782 567.457 676.79 572.974C674.113 576.672 669.027 581.377 662.953 582.187C657.196 582.956 654.252 581.14 657.994 576.776Z" fill="#F8A58D"/>
<path d="M613.587 540.845V538.656C612.724 541.224 608.717 552.276 602.643 557.815C597.813 562.218 591.224 567.305 589.549 572.214C587.805 577.319 598.717 579.034 603.23 578.236C608.473 577.309 615.256 574.335 618.946 569.8C621.544 566.613 623.197 562.833 625.05 560.327C626.903 557.819 631.177 555.02 632.179 552.118C632.729 550.525 632.075 547.034 631.302 544.084C630.592 541.378 629.822 538.402 628.898 538.656C628.896 538.987 628.898 540.326 628.898 540.326C627.786 541.556 624.711 542.778 621.244 542.911C619.002 542.997 613.568 542.553 613.587 540.845Z" fill="#17282F"/>
<path d="M598.271 561.689C599.768 560.352 601.276 559.046 602.643 557.8C606.887 553.93 610.122 547.367 611.981 542.887C613.041 540.331 613.587 537.602 613.587 534.834V526.111H628.898V540.31V540.312V540.691L628.821 540.729C628.084 543.911 621.059 552.37 617.066 557.886C614.39 561.585 609.304 566.29 603.229 567.099C597.472 567.869 594.528 566.053 598.271 561.689Z" fill="#F8A58D"/>
<path d="M685.575 318.072C697.446 343.989 685.146 435.28 685.146 435.28C685.504 439.484 690.313 447.761 692.106 466.27C694.223 488.139 688.783 543.053 688.783 543.053C688.783 543.053 681.694 547.688 673.311 543.668C673.311 543.668 658.718 460.963 655.974 439.219C653.58 420.241 648.983 378.514 648.983 378.514L635.92 439.115C635.92 439.115 639.272 449.746 640.057 457.845C641.296 470.636 628.898 530.187 628.898 530.187C628.898 530.187 623.616 532.124 613.587 530.649C613.587 530.649 609.202 451.621 608.046 436.213C606.104 410.337 612.979 329.597 617.728 314.281L685.575 318.072Z" fill="#263E47"/>
<path d="M648.983 378.514L645.129 354.444C645.129 354.444 628.825 351.069 621.43 344.119C621.43 344.119 629.187 353.765 640.711 356.925L645.038 375.458L637.472 431.57L648.983 378.514Z" fill="#17282F"/>
<path d="M639.299 227.333C639.299 227.333 627.802 225.646 619.818 236.058C613.688 244.053 590.237 274.578 590.237 274.578C590.237 274.578 555.673 257.286 553.972 255.236C552.271 253.186 553.227 249.043 553.695 246.76C554.165 244.48 554.938 239.412 555.446 237.987C556.333 235.504 552.656 236.173 550.489 238.497C548.271 240.876 547.361 245.359 546.277 246.14C545.198 246.921 536.974 237.466 532.981 232.903C528.988 228.341 527.118 225.148 524.441 227.031C522.515 228.389 523.753 231.095 526.614 235.005C529.475 238.914 529.893 239.335 530.308 240.183C530.653 240.883 529.596 241.443 529.177 241.816C528.403 242.511 527.028 243.645 526.929 244.728C526.877 245.319 526.985 245.929 526.822 246.5C526.448 247.8 524.838 248.41 524.384 249.685C524.055 250.606 524.418 251.639 524.232 252.601C524.112 253.22 523.772 253.78 523.66 254.401C523.443 255.619 524.143 256.809 524.94 257.758C527.743 261.091 531.576 262.368 535.252 264.401C538.307 266.09 541.463 266.83 544.98 268.394C548.5 269.958 589.335 298.253 595.796 294.687C602.256 291.123 635.625 252.324 635.625 252.324C645.25 236.381 639.299 227.333 639.299 227.333Z" fill="#F8A58D"/>
<path d="M664.636 228.039C679.855 229.085 680.923 236.433 684.731 244.467C687.629 250.583 687.661 257.677 685.45 264.074L674.844 294.739C674.844 294.739 679.811 306.738 685.575 318.072C658.962 332.921 625.731 325.116 617.728 314.281C617.39 311.983 619.447 294.016 620.713 282.279C616.025 270.525 614.788 263.076 616.766 255.305C620.438 240.886 634.688 226.835 640.994 227.347L664.636 228.039Z" fill="#F3F2F1"/>
<path d="M650.007 215.431H655.912C673.091 215.431 687.017 201.511 687.017 184.339C687.017 167.074 673.016 153.077 655.745 153.077H650.174C632.903 153.077 618.902 167.074 618.902 184.339C618.902 201.511 632.828 215.431 650.007 215.431Z" fill="#17282F"/>
<path d="M703.674 231.82C693.524 231.82 685.297 223.594 685.297 213.45V174.112C695.447 174.112 703.674 182.336 703.674 192.483V231.82Z" fill="#17282F"/>
<path d="M688.664 167.136L684.057 174.535C686.099 175.901 688.787 175.351 690.059 173.306C691.331 171.263 690.707 168.5 688.664 167.136Z" fill="#17282F"/>
<path d="M630.089 166.847C626.491 168.971 622.046 178.016 622.485 196.978C622.856 213.046 628.067 217.016 630.684 218.16C633.301 219.305 638.346 218.608 643.253 217.791V227.435C643.253 227.435 636.472 235.306 636.899 239.729C637.326 244.151 646.689 245.196 653.033 240.876C659.378 236.556 663.445 229.98 663.445 229.98V206.668C663.445 206.668 666.757 211.09 672.175 207.493C677.592 203.898 677.798 194.996 674.648 191.802C671.5 188.605 664.711 189.617 663.445 194.033C663.445 194.033 655.622 194.317 645.204 188.597C634.784 182.877 630.782 173.077 630.089 166.847Z" fill="#F8A58D"/>
<path d="M642.233 192.94C642.175 194.098 643.032 195.079 644.148 195.131C645.262 195.185 646.214 194.289 646.272 193.131C646.33 191.973 645.473 190.992 644.357 190.938C643.243 190.886 642.291 191.78 642.233 192.94Z" fill="#17282F"/>
<path d="M639.893 206.562L635.198 208.058C635.589 209.401 636.955 210.155 638.252 209.741C639.549 209.33 640.284 207.905 639.893 206.562Z" fill="#F47089"/>
<path d="M625.658 186.735L629.749 183.9C629.002 182.733 627.482 182.421 626.353 183.204C625.223 183.987 624.911 185.568 625.658 186.735Z" fill="#17282F"/>
<path d="M626.601 191.479C626.543 192.636 627.399 193.617 628.515 193.671C629.629 193.723 630.582 192.829 630.64 191.671C630.697 190.513 629.841 189.53 628.725 189.478C627.611 189.424 626.659 190.321 626.601 191.479Z" fill="#17282F"/>
<path d="M636.476 190.321L636.154 202.486L629.749 200.503L636.476 190.321Z" fill="#F47089"/>
<path d="M643.253 217.791C648.423 217.112 659.058 214.059 660.717 209.855C660.717 209.855 660.165 212.498 656.986 215.219C653.809 217.941 643.253 221.009 643.253 221.009V217.791Z" fill="#F47089"/>
<path d="M682.15 319.844C682.158 319.84 682.168 319.836 682.175 319.832C682.168 319.836 682.16 319.84 682.15 319.844ZM682.214 319.813C682.275 319.784 682.339 319.753 682.399 319.725C682.337 319.753 682.275 319.784 682.214 319.813ZM682.401 319.723C683.467 319.207 684.527 318.657 685.575 318.072C684.527 318.657 683.468 319.207 682.401 319.723Z" fill="#21363E"/>
<path d="M652.883 326.27C643.705 326.27 635.227 324.531 628.712 321.838C633.014 322.506 637.195 322.796 641.153 322.796C647.403 322.796 653.095 322.069 657.83 320.95C666.572 318.88 672.118 310.042 669.809 301.364C669.72 301.035 669.63 300.752 669.537 300.527C668.183 297.271 665.595 296.932 664.575 296.932C664.307 296.932 664.148 296.955 664.148 296.955C667.598 294.668 669.991 291.1 670.8 287.044L674.036 267.823C674.036 267.823 674.756 263.576 673.214 258.5L683.911 246.135C683.911 246.135 684.679 246.667 685.887 247.508C687.548 252.842 687.307 258.664 685.472 264.009C685.472 264.011 685.472 264.013 685.47 264.015C685.464 264.034 685.456 264.053 685.45 264.074L674.844 294.739C674.844 294.739 674.86 294.776 674.888 294.847C674.89 294.849 674.89 294.849 674.89 294.851C675.402 296.076 680.113 307.324 685.541 318.005C685.552 318.028 685.564 318.051 685.575 318.072C684.527 318.657 683.467 319.207 682.401 319.723L682.399 319.725C682.339 319.754 682.275 319.784 682.214 319.813C682.2 319.819 682.187 319.827 682.175 319.832C682.168 319.836 682.158 319.84 682.15 319.844C672.583 324.416 662.36 326.27 652.883 326.27Z" fill="#D5D7D4"/>
<path d="M712.812 304.378C698.997 247.921 688.779 229.093 671.995 229.312C667.096 235.167 668.448 252.851 676.193 263.584C676.193 263.584 693.459 299.994 696.212 312.939C698.633 324.31 701.375 338.618 701.202 348.393C701.171 350.124 700.455 351.771 699.281 353.044C696.13 356.458 696.116 359.21 694.075 362.988C692.474 365.946 690.725 367.052 691.225 367.718C691.866 368.572 693.89 369.687 696.407 368.1C697.673 367.3 698.496 366.364 700.336 364.332C700.336 364.332 699.834 368.912 697.221 374.807C693.676 382.795 694.538 386.869 705.325 384.024C712.085 382.243 716.33 376.613 717.342 360.374C717.633 355.696 718.075 348.316 717.521 342.402C716.078 326.999 715.037 313.464 712.812 304.378Z" fill="#F8A58D"/>
<path d="M575.733 465.772C577.211 410.827 572.806 397.66 558.171 387.594L552.502 419.431C552.502 419.431 559.169 456.951 558.453 469.444C557.824 480.423 556.756 494.156 554.159 503.03C553.699 504.602 552.637 505.925 551.247 506.795C547.52 509.124 546.017 511.515 543.212 514.454C541.014 516.752 539.144 517.325 539.433 518.056C539.804 518.997 541.372 520.518 544.064 519.697C545.419 519.283 547.17 518.223 549.352 516.831C549.352 516.831 547.793 521.409 543.937 526.133C538.713 532.536 538.482 536.469 549.033 536.561C555.644 536.621 560.918 532.545 565.894 517.983C567.326 513.788 569.57 507.166 570.539 501.632C573.066 487.222 575.494 474.616 575.733 465.772Z" fill="#F8A58D"/>
<path d="M545.858 383.42C552.843 382.409 562.338 383.872 568.471 394.838C574.605 405.801 576.108 424.664 576.806 443.42C576.806 443.42 564.622 453.604 550.01 448.595L545.858 383.42Z" fill="#00A358"/>
<path d="M566.916 448.59C566.847 440.99 566.728 433.833 566.529 428.598C565.927 412.655 565.715 400.856 564.184 396.202C562.163 390.056 554.907 383.421 547.155 383.421C546.726 383.421 546.295 383.442 545.862 383.484L545.858 383.421C547.014 383.253 548.24 383.155 549.506 383.155C555.894 383.155 563.353 385.688 568.471 394.838C574.605 405.801 576.108 424.664 576.806 443.42C576.806 443.42 572.923 446.664 566.916 448.59Z" fill="#00A358"/>
<path d="M566.408 685.619C567.518 686.04 567.797 688.152 567.967 692.351C568.094 695.528 568.773 701.073 565.052 702.181C561.328 703.289 555.875 702.723 553.487 699.729C550.51 695.99 548.496 692.699 544.247 688.138C540.558 684.182 536.572 680.489 535.082 674.94C533.737 669.928 534.857 667.752 538.28 666.294C542.987 664.288 550.38 670.839 554.066 671.87C557.243 672.759 565.3 685.199 566.408 685.619Z" fill="#17282F"/>
<path d="M566.408 681.731V686.888C566.408 686.888 561.045 691.006 553.375 687.24C553.15 686.742 552.023 679.864 552.023 679.864L566.408 681.731Z" fill="#F8A58D"/>
<path d="M524.64 715.332C524.64 715.332 526.119 719.815 526.918 723.735C527.551 726.853 528.459 732.062 527.368 734.407C526.275 736.751 522.015 738.265 515.413 738.214C511.136 738.182 504.47 741.085 499.908 743.629C495.194 746.258 485.392 747.306 480.406 746.72C474.532 746.031 468.443 742.625 467.495 740.194C466.544 737.763 467.806 735.235 481.653 729.338C481.778 729.284 500.901 723.07 507.599 715.68L524.64 715.332Z" fill="#17282F"/>
<path d="M524.64 709.758C524.64 709.758 524.62 713.583 524.64 715.77C524.659 717.957 522.077 721.213 515.388 720.975C510.693 720.807 507.414 719.546 507.599 715.68V710.105L524.64 709.758Z" fill="#F8A58D"/>
<path d="M569.764 613.314C567.403 596.468 563.672 586.463 563.672 586.463C563.672 586.463 565.513 563.297 566.398 541.331C567.351 517.608 566.347 487.785 566.799 481.867C566.799 481.867 490.212 466.376 488.846 493.802C487.48 521.228 491.869 591.04 492.775 603.089C493.679 615.139 495.763 625.793 498.253 645.321C500.71 664.594 507.599 710.105 507.599 710.105C516.348 714.834 524.64 709.758 524.64 709.758C524.64 709.758 530.029 654.919 529.464 641.019C528.773 624.042 524.191 610.675 524.191 610.675C524.191 610.675 525.642 588.059 526.926 568.39C528.207 548.719 529.566 539.271 529.862 530.714L531.511 529.899C531.511 529.899 533.191 563.834 534.095 575.882C535.001 587.93 536.918 599.482 540.406 621.861C543.429 641.274 552.44 682.351 552.44 682.351C561.188 687.079 566.408 681.731 566.408 681.731C566.408 681.731 572.125 630.159 569.764 613.314Z" fill="#263E47"/>
<path d="M529.862 530.714C529.862 530.714 548.442 521.563 557.74 513.309C557.74 513.309 549.106 525.469 537.772 530.86C537.772 530.86 533.741 573.016 533.762 572.179L531.434 530.653L529.862 530.714Z" fill="#17282F"/>
<path d="M513.327 374.734L517.859 399.668L540.389 398.023L535.658 369.759L513.327 374.734Z" fill="#F8A58D"/>
<path d="M564.184 396.202C561.954 389.422 553.351 382.043 544.74 383.642C528.921 386.579 516.375 389.72 507.033 393.055C499.152 395.869 491.971 402.678 491.318 428.598C491.318 428.598 488.676 489.018 488.63 500.705C508.424 508.533 529.011 508.293 540.389 505.808C564.076 500.634 566.933 490.813 566.933 490.813C566.933 490.813 567.239 447.363 566.529 428.598C565.927 412.655 565.715 400.856 564.184 396.202Z" fill="#00A358"/>
<path d="M495.942 344.408C495.942 344.408 490.229 353.513 490.924 354.379C491.617 355.246 495.988 355.943 495.988 355.943L495.942 344.408Z" fill="#F8A58D"/>
<path d="M511.809 319.217C499.894 322.009 496.558 327.347 495.857 346.383C495.126 366.271 497.297 372.468 499.968 375.086C501.771 376.85 511.57 376.956 516.479 375.483C522.625 373.64 536.485 368.375 542.804 358.237C550.237 346.31 551.902 330.332 543.512 323.983C531.707 315.047 516.658 318.08 511.809 319.217Z" fill="#F8A58D"/>
<path d="M513.579 376.098C517.624 372.847 517.26 370.753 517.26 370.753C514.36 373.459 503.629 375.779 499.968 375.086C501.461 376.548 508.436 376.867 513.579 376.098Z" fill="#AA3B4B"/>
<path d="M495.988 324.168C499.485 330.151 507.074 333.012 507.074 333.012C509.358 335.614 508.099 345.76 512.121 347.37C512.121 347.37 513.849 339.986 520.06 340.769C526.312 341.559 527.332 349.48 523.514 354.39C519.694 359.303 515.994 357.537 515.994 357.537C515.994 357.537 516.423 368.026 521.207 373.863C521.207 373.863 526.541 375.458 536.227 373.163C542.183 371.753 550.478 364.086 553.857 356.089C561.003 339.17 561.19 324.087 550.391 319.811C549.062 312.119 542.904 308.798 535.938 307.361C520.943 304.272 511.278 313.625 499.735 312.814C493.127 312.348 491.892 317.157 495.988 324.168Z" fill="#17282F"/>
<path d="M550.634 322.39L557.703 318.009C556.493 316.057 553.928 315.456 551.977 316.666C550.026 317.878 549.425 320.44 550.634 322.39Z" fill="#17282F"/>
<path d="M507.649 392.949C507.649 392.949 496.452 395.019 490.599 403.872C484.745 412.724 459.436 444.451 459.436 444.451C459.436 444.451 423.025 426.234 421.233 424.076C419.442 421.916 420.45 417.55 420.943 415.145C421.435 412.743 422.249 407.406 422.786 405.905C423.721 403.288 419.846 403.993 417.564 406.44C415.226 408.946 414.268 413.67 413.127 414.493C411.989 415.315 403.327 405.355 399.12 400.549C394.916 395.742 392.944 392.378 390.125 394.363C388.095 395.792 389.398 398.644 392.413 402.762C395.428 406.88 395.867 407.325 396.305 408.217C396.667 408.954 395.555 409.544 395.114 409.939C394.298 410.67 392.848 411.864 392.746 413.005C392.69 413.628 392.803 414.27 392.632 414.87C392.24 416.242 390.542 416.884 390.063 418.227C389.717 419.198 390.1 420.285 389.904 421.298C389.778 421.95 389.419 422.541 389.301 423.195C389.072 424.478 389.809 425.734 390.65 426.73C393.604 430.242 397.641 431.587 401.512 433.73C404.731 435.511 408.055 436.29 411.762 437.936C415.468 439.582 459.119 471.831 465.925 468.076C472.731 464.32 507.649 423.541 507.649 423.541C517.789 406.748 507.649 392.949 507.649 392.949Z" fill="#F8A58D"/>
<path d="M511.551 391.634C506.735 392.188 499.989 391.295 490.556 401.422C481.122 411.549 469.329 428.729 469.329 428.729C469.329 428.729 472.604 445.151 490.439 448.596C490.439 448.596 506.958 431.679 511.551 422.366C516.146 413.051 517.222 397.919 511.551 391.634Z" fill="#00A358"/>
<path d="M490.439 448.596C489.034 448.325 487.722 447.973 486.492 447.555C475.777 443.912 471.499 435.247 470.016 431.066C469.508 429.635 469.329 428.729 469.329 428.729C469.329 428.729 481.122 411.549 490.556 401.422C499.989 391.295 506.735 392.188 511.551 391.634C514.243 394.617 515.415 399.593 515.411 404.994C515.407 410.972 513.964 417.471 511.551 422.366C507.072 431.447 491.257 447.755 490.47 448.565C490.45 448.586 490.439 448.596 490.439 448.596Z" fill="#00A358"/>
</g>
<defs>
<clipPath id="clip0_194_417">
<rect width="794" height="861" fill="white"/>
</clipPath>
</defs>
</svg>
